999
dxfrw 0.6.3
  0
SECTION
  2
HEADER
  9
$ACADVER
  1
AC1021
  9
$DWGCODEPAGE
  3
ANSI_1252
  9
$INSBASE
 10
0
 20
0
 30
0
  9
$EXTMIN
 10
-128.4200489248602
 20
-32.50003469613551
 30
0
  9
$EXTMAX
 10
128.4200489248602
 20
32.50003211816859
 30
0
  9
$LIMMIN
 10
0
 20
0
  9
$LIMMAX
 10
12
 20
9
  9
$ORTHOMODE
 70
    0
  9
$REGENMODE
 70
    1
  9
$FILLMODE
 70
    1
  9
$QTEXTMODE
 70
    0
  9
$MIRRTEXT
 70
    1
  9
$LTSCALE
 40
1
  9
$ATTMODE
 70
    1
  9
$TEXTSIZE
 40
0.2
  9
$TRACEWID
 40
0.05
  9
$TEXTSTYLE
  7
STANDARD
  9
$CLAYER
  8
0
  9
$CELTYPE
  6
BYLAYER
  9
$CECOLOR
 62
  256
  9
$CELTSCALE
 40
1
  9
$DISPSILH
 70
    0
  9
$DIMSCALE
 40
1
  9
$DIMASZ
 40
0.18
  9
$DIMEXO
 40
0.0625
  9
$DIMDLI
 40
0.38
  9
$DIMRND
 40
0
  9
$DIMDLE
 40
0
  9
$DIMEXE
 40
0.18
  9
$DIMTP
 40
0
  9
$DIMTM
 40
0
  9
$DIMTXT
 40
0.18
  9
$DIMCEN
 40
0.09
  9
$DIMTSZ
 40
0
  9
$DIMTOL
 70
    0
  9
$DIMLIM
 70
    0
  9
$DIMTIH
 70
    1
  9
$DIMTOH
 70
    1
  9
$DIMSE1
 70
    0
  9
$DIMSE2
 70
    0
  9
$DIMTAD
 70
    0
  9
$DIMZIN
 70
    0
  9
$DIMBLK
  1

  9
$DIMASO
 70
    1
  9
$DIMSHO
 70
    1
  9
$DIMPOST
  1

  9
$DIMAPOST
  1

  9
$DIMALT
 70
    0
  9
$DIMALTD
 70
    2
  9
$DIMALTF
 40
25.4
  9
$DIMLFAC
 40
1
  9
$DIMTOFL
 70
    0
  9
$DIMTVP
 40
0
  9
$DIMTIX
 70
    0
  9
$DIMSOXD
 70
    0
  9
$DIMSAH
 70
    0
  9
$DIMBLK1
  1

  9
$DIMBLK2
  1

  9
$DIMSTYLE
  2
STANDARD
  9
$DIMCLRD
 70
    0
  9
$DIMCLRE
 70
    0
  9
$DIMCLRT
 70
    0
  9
$DIMTFAC
 40
1
  9
$DIMGAP
 40
0.09
  9
$DIMJUST
 70
    0
  9
$DIMSD1
 70
    0
  9
$DIMSD2
 70
    0
  9
$DIMTOLJ
 70
    0
  9
$DIMTZIN
 70
    8
  9
$DIMALTZ
 70
    0
  9
$DIMALTTZ
 70
    0
  9
$DIMUPT
 70
    0
  9
$DIMDEC
 70
    4
  9
$DIMTDEC
 70
    2
  9
$DIMALTU
 70
    2
  9
$DIMALTTD
 70
    3
  9
$DIMTXSTY
  7
STANDARD
  9
$DIMAUNIT
 70
    0
  9
$DIMADEC
 70
    0
  9
$DIMALTRND
 40
0
  9
$DIMAZIN
 70
    0
  9
$DIMDSEP
 70
   44
  9
$DIMATFIT
 70
    3
  9
$DIMFRAC
 70
    0
  9
$DIMLDRBLK
  1
STANDARD
  9
$DIMLUNIT
 70
    2
  9
$DIMLWD
 70
   -2
  9
$DIMLWE
 70
   -2
  9
$DIMTMOVE
 70
    0
  9
$DIMFXL
 40
1
  9
$DIMFXLON
 70
    0
  9
$DIMJOGANG
 40
0.7854
  9
$DIMTFILL
 70
    0
  9
$DIMTFILLCLR
 70
    0
  9
$DIMARCSYM
 70
    0
  9
$DIMLTYPE
  6

  9
$DIMLTEX1
  6

  9
$DIMLTEX2
  6

  9
$LUNITS
 70
    2
  9
$LUPREC
 70
    4
  9
$SKETCHINC
 40
0.1
  9
$FILLETRAD
 40
0.5
  9
$AUNITS
 70
    0
  9
$AUPREC
 70
    0
  9
$MENU
  1
.
  9
$ELEVATION
 40
0
  9
$PELEVATION
 40
0
  9
$THICKNESS
 40
0
  9
$LIMCHECK
 70
    0
  9
$CHAMFERA
 40
0.5
  9
$CHAMFERB
 40
0.5
  9
$CHAMFERC
 40
0
  9
$CHAMFERD
 40
0
  9
$SKPOLY
 70
    0
  9
$USRTIMER
 70
    1
  9
$ANGBASE
 50
0
  9
$ANGDIR
 70
    0
  9
$PDMODE
 70
    0
  9
$PDSIZE
 40
0
  9
$PLINEWID
 40
0
  9
$SPLFRAME
 70
    0
  9
$SPLINETYPE
 70
    6
  9
$SPLINESEGS
 70
    8
  9
$HANDSEED
  5
20000
  9
$SURFTAB1
 70
    6
  9
$SURFTAB2
 70
    6
  9
$SURFTYPE
 70
    6
  9
$SURFU
 70
    6
  9
$SURFV
 70
    6
  9
$UCSBASE
  2

  9
$UCSNAME
  2

  9
$UCSORG
 10
0
 20
0
 30
0
  9
$UCSXDIR
 10
1
 20
0
 30
0
  9
$UCSYDIR
 10
0
 20
1
 30
0
  9
$UCSORTHOREF
  2

  9
$UCSORTHOVIEW
 70
    0
  9
$UCSORGTOP
 10
0
 20
0
 30
0
  9
$UCSORGBOTTOM
 10
0
 20
0
 30
0
  9
$UCSORGLEFT
 10
0
 20
0
 30
0
  9
$UCSORGRIGHT
 10
0
 20
0
 30
0
  9
$UCSORGFRONT
 10
0
 20
0
 30
0
  9
$UCSORGBACK
 10
0
 20
0
 30
0
  9
$PUCSBASE
  2

  9
$PUCSNAME
  2

  9
$PUCSORG
 10
0
 20
0
 30
0
  9
$PUCSXDIR
 10
1
 20
0
 30
0
  9
$PUCSYDIR
 10
0
 20
1
 30
0
  9
$PUCSORTHOREF
  2

  9
$PUCSORTHOVIEW
 70
    0
  9
$PUCSORGTOP
 10
0
 20
0
 30
0
  9
$PUCSORGBOTTOM
 10
0
 20
0
 30
0
  9
$PUCSORGLEFT
 10
0
 20
0
 30
0
  9
$PUCSORGRIGHT
 10
0
 20
0
 30
0
  9
$PUCSORGFRONT
 10
0
 20
0
 30
0
  9
$PUCSORGBACK
 10
0
 20
0
 30
0
  9
$USERI1
 70
    0
  9
$USERI2
 70
    0
  9
$USERI3
 70
    0
  9
$USERI4
 70
    0
  9
$USERI5
 70
    0
  9
$USERR1
 40
0
  9
$USERR2
 40
0
  9
$USERR3
 40
0
  9
$USERR4
 40
0
  9
$USERR5
 40
0
  9
$WORLDVIEW
 70
    1
  9
$SHADEDGE
 70
    3
  9
$SHADEDIF
 70
   70
  9
$TILEMODE
 70
    1
  9
$MAXACTVP
 70
   64
  9
$PINSBASE
 10
0
 20
0
 30
0
  9
$PLIMCHECK
 70
    0
  9
$PEXTMIN
 10
1e+020
 20
1e+020
 30
1e+020
  9
$PEXTMAX
 10
-1e+020
 20
-1e+020
 30
-1e+020
  9
$GRIDMODE
 70
    0
  9
$SNAPSTYLE
 70
    0
  9
$PLIMMIN
 10
0
 20
0
  9
$PLIMMAX
 10
12
 20
9
  9
$UNITMODE
 70
    0
  9
$VISRETAIN
 70
    1
  9
$PLINEGEN
 70
    0
  9
$PSLTSCALE
 70
    1
  9
$TREEDEPTH
 70
 3020
  9
$CMLSTYLE
  2
Standard
  9
$CMLJUST
 70
    0
  9
$CMLSCALE
 40
20
  9
$PROXYGRAPHICS
 70
    1
  9
$MEASUREMENT
 70
    1
  9
$CELWEIGHT
370
   -1
  9
$ENDCAPS
280
    0
  9
$JOINSTYLE
280
    0
  9
$LWDISPLAY
290
    0
  9
$INSUNITS
 70
    4
  9
$HYPERLINKBASE
  1

  9
$STYLESHEET
  1

  9
$XEDIT
290
    1
  9
$CEPSNTYPE
380
    0
  9
$PSTYLEMODE
290
    1
  9
$EXTNAMES
290
    1
  9
$PSVPSCALE
 40
1
  9
$OLESTARTUP
290
    0
  9
$SORTENTS
280
  127
  9
$INDEXCTL
280
    0
  9
$HIDETEXT
280
    1
  9
$XCLIPFRAME
290
    0
  9
$HALOGAP
280
    0
  9
$OBSCOLOR
 70
  257
  9
$OBSLTYPE
280
    0
  9
$INTERSECTIONDISPLAY
280
    0
  9
$INTERSECTIONCOLOR
 70
  257
  9
$DIMASSOC
280
    1
  9
$PROJECTNAME
  1

  9
$CAMERADISPLAY
290
    0
  9
$LENSLENGTH
 40
50
  9
$CAMERAHEIGHT
 40
0
  9
$STEPSPERSEC
 40
2
  9
$STEPSIZE
 40
50
  9
$3DDWFPREC
 40
2
  9
$PSOLWIDTH
 40
5
  9
$PSOLHEIGHT
 40
80
  9
$LOFTANG1
 40
1.570796326794897
  9
$LOFTANG2
 40
1.570796326794897
  9
$LOFTMAG1
 40
0
  9
$LOFTMAG2
 40
0
  9
$LOFTPARAM
 70
    7
  9
$LOFTNORMALS
280
    1
  9
$LATITUDE
 40
1
  9
$LONGITUDE
 40
1
  9
$NORTHDIRECTION
 40
0
  9
$TIMEZONE
 70
-8000
  9
$LIGHTGLYPHDISPLAY
280
    1
  9
$TILEMODELIGHTSYNCH
280
    1
  9
$SOLIDHIST
280
    1
  9
$SHOWHIST
280
    1
  9
$DWFFRAME
280
    2
  9
$DGNFRAME
280
    0
  9
$REALWORLDSCALE
290
    1
  9
$INTERFERECOLOR
 62
    1
  9
$CSHADOW
280
    0
  9
$SHADOWPLANELOCATION
 40
0
  0
ENDSEC
  0
SECTION
  2
CLASSES
  0
ENDSEC
  0
SECTION
  2
TABLES
  0
TABLE
  2
VPORT
  5
8
330
0
100
AcDbSymbolTable
 70
    1
  0
VPORT
  5
31
330
2
100
AcDbSymbolTableRecord
100
AcDbViewportTableRecord
  2
*ACTIVE
 70
    0
 10
0
 20
0
 11
1
 21
1
 12
56.34195541858517
 22
65.56384498261369
 13
0
 23
0
 14
10
 24
10
 15
10
 25
10
 16
0
 26
0
 36
1
 17
0
 27
0
 37
0
 40
211.9771327183541
 41
1.904648390941597
 42
50
 43
0
 44
0
 50
0
 51
0
 71
    0
 72
  100
 73
    1
 74
    3
 75
    0
 76
    0
 77
    0
 78
    0
281
    0
 65
    1
110
0
120
0
130
0
111
1
121
0
131
0
112
0
122
1
132
0
 79
    0
146
0
348
10020
 60
    7
 61
    5
292
1
282
    1
141
0
142
0
 63
  250
421
3358443
  0
ENDTAB
  0
TABLE
  2
LTYPE
  5
5
330
0
100
AcDbSymbolTable
 70
    4
  0
LTYPE
  5
14
330
5
100
AcDbSymbolTableRecord
100
AcDbLinetypeTableRecord
  2
ByBlock
 70
    0
  3

 72
   65
 73
    0
 40
0
  0
LTYPE
  5
15
330
5
100
AcDbSymbolTableRecord
100
AcDbLinetypeTableRecord
  2
ByLayer
 70
    0
  3

 72
   65
 73
    0
 40
0
  0
LTYPE
  5
16
330
5
100
AcDbSymbolTableRecord
100
AcDbLinetypeTableRecord
  2
Continuous
 70
    0
  3
Solid line
 72
   65
 73
    0
 40
0
  0
LTYPE
  5
32
330
5
100
AcDbSymbolTableRecord
100
AcDbLinetypeTableRecord
  2
DOT
 70
    0
  3
Dot . . . . . . . . . . . . . . . . . . . . . .
 72
   65
 73
    2
 40
6.35
 49
0
 74
    0
 49
-6.35
 74
    0
  0
LTYPE
  5
33
330
5
100
AcDbSymbolTableRecord
100
AcDbLinetypeTableRecord
  2
DOTTINY
 70
    0
  3
Dot (.15x) .....................................
 72
   65
 73
    2
 40
0.9525
 49
0
 74
    0
 49
-0.9525
 74
    0
  0
LTYPE
  5
34
330
5
100
AcDbSymbolTableRecord
100
AcDbLinetypeTableRecord
  2
DOT2
 70
    0
  3
Dot (.5x) .....................................
 72
   65
 73
    2
 40
3.175
 49
0
 74
    0
 49
-3.175
 74
    0
  0
LTYPE
  5
35
330
5
100
AcDbSymbolTableRecord
100
AcDbLinetypeTableRecord
  2
DOTX2
 70
    0
  3
Dot (2x) .  .  .  .  .  .  .  .  .  .  .  .  .
 72
   65
 73
    2
 40
12.7
 49
0
 74
    0
 49
-12.7
 74
    0
  0
LTYPE
  5
36
330
5
100
AcDbSymbolTableRecord
100
AcDbLinetypeTableRecord
  2
DASHED
 70
    0
  3
Dashed _ _ _ _ _ _ _ _ _ _ _ _ _ _ _ _ _
 72
   65
 73
    2
 40
19.05
 49
12.7
 74
    0
 49
-6.35
 74
    0
  0
LTYPE
  5
37
330
5
100
AcDbSymbolTableRecord
100
AcDbLinetypeTableRecord
  2
DASHEDTINY
 70
    0
  3
Dashed (.15x) _ _ _ _ _ _ _ _ _ _ _ _ _ _ _ _ _
 72
   65
 73
    2
 40
2.8575
 49
1.905
 74
    0
 49
-0.9525
 74
    0
  0
LTYPE
  5
38
330
5
100
AcDbSymbolTableRecord
100
AcDbLinetypeTableRecord
  2
DASHED2
 70
    0
  3
Dashed (.5x) _ _ _ _ _ _ _ _ _ _ _ _ _ _ _ _ _
 72
   65
 73
    2
 40
9.524999999999999
 49
6.35
 74
    0
 49
-3.175
 74
    0
  0
LTYPE
  5
39
330
5
100
AcDbSymbolTableRecord
100
AcDbLinetypeTableRecord
  2
DASHEDX2
 70
    0
  3
Dashed (2x) ____  ____  ____  ____  ____  ___
 72
   65
 73
    2
 40
38.09999999999999
 49
25.4
 74
    0
 49
-12.7
 74
    0
  0
LTYPE
  5
3A
330
5
100
AcDbSymbolTableRecord
100
AcDbLinetypeTableRecord
  2
DASHDOT
 70
    0
  3
Dash dot __ . __ . __ . __ . __ . __ . __ . __
 72
   65
 73
    4
 40
25.4
 49
12.7
 74
    0
 49
-6.35
 74
    0
 49
0
 74
    0
 49
-6.35
 74
    0
  0
LTYPE
  5
3B
330
5
100
AcDbSymbolTableRecord
100
AcDbLinetypeTableRecord
  2
DASHDOTTINY
 70
    0
  3
Dash dot (.15x) _._._._._._._._._._._._._._._.
 72
   65
 73
    4
 40
3.81
 49
1.905
 74
    0
 49
-0.9525
 74
    0
 49
0
 74
    0
 49
-0.9525
 74
    0
  0
LTYPE
  5
3C
330
5
100
AcDbSymbolTableRecord
100
AcDbLinetypeTableRecord
  2
DASHDOT2
 70
    0
  3
Dash dot (.5x) _._._._._._._._._._._._._._._.
 72
   65
 73
    4
 40
12.7
 49
6.35
 74
    0
 49
-3.175
 74
    0
 49
0
 74
    0
 49
-3.175
 74
    0
  0
LTYPE
  5
3D
330
5
100
AcDbSymbolTableRecord
100
AcDbLinetypeTableRecord
  2
DASHDOTX2
 70
    0
  3
Dash dot (2x) ____  .  ____  .  ____  .  ___
 72
   65
 73
    4
 40
50.8
 49
25.4
 74
    0
 49
-12.7
 74
    0
 49
0
 74
    0
 49
-12.7
 74
    0
  0
LTYPE
  5
3E
330
5
100
AcDbSymbolTableRecord
100
AcDbLinetypeTableRecord
  2
DIVIDE
 70
    0
  3
Divide ____ . . ____ . . ____ . . ____ . . ____
 72
   65
 73
    6
 40
31.75
 49
12.7
 74
    0
 49
-6.35
 74
    0
 49
0
 74
    0
 49
-6.35
 74
    0
 49
0
 74
    0
 49
-6.35
 74
    0
  0
LTYPE
  5
3F
330
5
100
AcDbSymbolTableRecord
100
AcDbLinetypeTableRecord
  2
DIVIDETINY
 70
    0
  3
Divide (.15x) __..__..__..__..__..__..__..__.._
 72
   65
 73
    6
 40
4.7625
 49
1.905
 74
    0
 49
-0.9525
 74
    0
 49
0
 74
    0
 49
-0.9525
 74
    0
 49
0
 74
    0
 49
-0.9525
 74
    0
  0
LTYPE
  5
40
330
5
100
AcDbSymbolTableRecord
100
AcDbLinetypeTableRecord
  2
DIVIDE2
 70
    0
  3
Divide (.5x) __..__..__..__..__..__..__..__.._
 72
   65
 73
    6
 40
15.875
 49
6.35
 74
    0
 49
-3.175
 74
    0
 49
0
 74
    0
 49
-3.175
 74
    0
 49
0
 74
    0
 49
-3.175
 74
    0
  0
LTYPE
  5
41
330
5
100
AcDbSymbolTableRecord
100
AcDbLinetypeTableRecord
  2
DIVIDEX2
 70
    0
  3
Divide (2x) ________  .  .  ________  .  .  _
 72
   65
 73
    6
 40
63.5
 49
25.4
 74
    0
 49
-12.7
 74
    0
 49
0
 74
    0
 49
-12.7
 74
    0
 49
0
 74
    0
 49
-12.7
 74
    0
  0
LTYPE
  5
42
330
5
100
AcDbSymbolTableRecord
100
AcDbLinetypeTableRecord
  2
BORDER
 70
    0
  3
Border __ __ . __ __ . __ __ . __ __ . __ __ .
 72
   65
 73
    6
 40
44.45
 49
12.7
 74
    0
 49
-6.35
 74
    0
 49
12.7
 74
    0
 49
-6.35
 74
    0
 49
0
 74
    0
 49
-6.35
 74
    0
  0
LTYPE
  5
43
330
5
100
AcDbSymbolTableRecord
100
AcDbLinetypeTableRecord
  2
BORDERTINY
 70
    0
  3
Border (.15x) __.__.__.__.__.__.__.__.__.__.__.
 72
   65
 73
    6
 40
6.6675
 49
1.905
 74
    0
 49
-0.9525
 74
    0
 49
1.905
 74
    0
 49
-0.9525
 74
    0
 49
0
 74
    0
 49
-0.9525
 74
    0
  0
LTYPE
  5
44
330
5
100
AcDbSymbolTableRecord
100
AcDbLinetypeTableRecord
  2
BORDER2
 70
    0
  3
Border (.5x) __.__.__.__.__.__.__.__.__.__.__.
 72
   65
 73
    6
 40
22.225
 49
6.35
 74
    0
 49
-3.175
 74
    0
 49
6.35
 74
    0
 49
-3.175
 74
    0
 49
0
 74
    0
 49
-3.175
 74
    0
  0
LTYPE
  5
45
330
5
100
AcDbSymbolTableRecord
100
AcDbLinetypeTableRecord
  2
BORDERX2
 70
    0
  3
Border (2x) ____  ____  .  ____  ____  .  ___
 72
   65
 73
    6
 40
88.89999999999999
 49
25.4
 74
    0
 49
-12.7
 74
    0
 49
25.4
 74
    0
 49
-12.7
 74
    0
 49
0
 74
    0
 49
-12.7
 74
    0
  0
LTYPE
  5
46
330
5
100
AcDbSymbolTableRecord
100
AcDbLinetypeTableRecord
  2
CENTER
 70
    0
  3
Center ____ _ ____ _ ____ _ ____ _ ____ _ ____
 72
   65
 73
    4
 40
50.8
 49
31.75
 74
    0
 49
-6.35
 74
    0
 49
6.35
 74
    0
 49
-6.35
 74
    0
  0
LTYPE
  5
47
330
5
100
AcDbSymbolTableRecord
100
AcDbLinetypeTableRecord
  2
CENTERTINY
 70
    0
  3
Center (.15x) ___ _ ___ _ ___ _ ___ _ ___ _ ___
 72
   65
 73
    4
 40
7.62
 49
4.7625
 74
    0
 49
-0.9525
 74
    0
 49
0.9525
 74
    0
 49
-0.9525
 74
    0
  0
LTYPE
  5
48
330
5
100
AcDbSymbolTableRecord
100
AcDbLinetypeTableRecord
  2
CENTER2
 70
    0
  3
Center (.5x) ___ _ ___ _ ___ _ ___ _ ___ _ ___
 72
   65
 73
    4
 40
28.575
 49
19.05
 74
    0
 49
-3.175
 74
    0
 49
3.175
 74
    0
 49
-3.175
 74
    0
  0
LTYPE
  5
49
330
5
100
AcDbSymbolTableRecord
100
AcDbLinetypeTableRecord
  2
CENTERX2
 70
    0
  3
Center (2x) ________  __  ________  __  _____
 72
   65
 73
    4
 40
101.6
 49
63.5
 74
    0
 49
-12.7
 74
    0
 49
12.7
 74
    0
 49
-12.7
 74
    0
  0
ENDTAB
  0
TABLE
  2
LAYER
  5
2
330
0
100
AcDbSymbolTable
 70
    1
  0
LAYER
  5
10
330
2
100
AcDbSymbolTableRecord
100
AcDbLayerTableRecord
  2
0
 70
    0
 62
    7
  6
CONTINUOUS
370
   -3
390
F
  0
ENDTAB
  0
TABLE
  2
STYLE
  5
3
330
0
100
AcDbSymbolTable
 70
    3
  0
STYLE
  5
4A
330
2
100
AcDbSymbolTableRecord
100
AcDbTextStyleTableRecord
  2
Standard
 70
    0
 40
0
 41
1
 50
0
 71
    0
 42
1
  3
txt
  4

  0
ENDTAB
  0
TABLE
  2
VIEW
  5
6
330
0
100
AcDbSymbolTable
 70
    0
  0
ENDTAB
  0
TABLE
  2
UCS
  5
7
330
0
100
AcDbSymbolTable
 70
    0
  0
ENDTAB
  0
TABLE
  2
APPID
  5
9
330
0
100
AcDbSymbolTable
 70
    1
  0
APPID
  5
12
330
9
100
AcDbSymbolTableRecord
100
AcDbRegAppTableRecord
  2
ACAD
 70
    0
  0
APPID
  5
4B
330
9
100
AcDbSymbolTableRecord
100
AcDbRegAppTableRecord
  2
LibreCad
 70
    0
  0
ENDTAB
  0
TABLE
  2
DIMSTYLE
  5
A
330
0
100
AcDbSymbolTable
 70
    1
100
AcDbDimStyleTable
 71
    1
  0
DIMSTYLE
105
4C
330
A
100
AcDbSymbolTableRecord
100
AcDbDimStyleTableRecord
  2
Standard
 70
    0
 40
1
 41
0.18
 42
0.0625
 43
0.38
 44
0.18
 45
0
 46
0
 47
0
 48
0
 49
1
140
0.18
141
0.09
142
0
143
25.4
144
1
145
0
146
1
147
0.09
148
0
 71
    0
 72
    0
 73
    1
 74
    1
 75
    0
 76
    0
 77
    0
 78
    0
 79
    0
170
    0
171
    2
172
    0
173
    0
174
    0
175
    0
176
    0
177
    0
178
    0
179
    0
271
    4
272
    4
273
    2
274
    2
275
    0
276
    0
277
    2
278
    0
279
    0
280
    0
281
    0
282
    0
283
    1
284
    0
285
    0
286
    0
288
    0
289
    3
340
standard
341

371
   -2
372
   -2
  0
ENDTAB
  0
TABLE
  2
BLOCK_RECORD
  5
1
330
0
100
AcDbSymbolTable
 70
    2
  0
BLOCK_RECORD
  5
1F
330
1
100
AcDbSymbolTableRecord
100
AcDbBlockTableRecord
  2
*Model_Space
 70
    0
280
    1
281
    0
  0
BLOCK_RECORD
  5
1E
330
1
100
AcDbSymbolTableRecord
100
AcDbBlockTableRecord
  2
*Paper_Space
 70
    0
280
    1
281
    0
  0
ENDTAB
  0
ENDSEC
  0
SECTION
  2
BLOCKS
  0
BLOCK
  5
20
330
1F
100
AcDbEntity
  8
0
100
AcDbBlockBegin
  2
*Model_Space
 70
    0
 10
0
 20
0
 30
0
  3
*Model_Space
  1

  0
ENDBLK
  5
21
330
1F
100
AcDbEntity
  8
0
100
AcDbBlockEnd
  0
BLOCK
  5
1C
330
1B
100
AcDbEntity
  8
0
100
AcDbBlockBegin
  2
*Paper_Space
 70
    0
 10
0
 20
0
 30
0
  3
*Paper_Space
  1

  0
ENDBLK
  5
1D
330
1F
100
AcDbEntity
  8
0
100
AcDbBlockEnd
  0
ENDSEC
  0
SECTION
  2
ENTITIES
  0
LWPOLYLINE
  5
4D
100
AcDbEntity
  8
0
  6
ByLayer
 62
  256
370
   -1
100
AcDbPolyline
 90
  256
 70
    1
 43
0
 10
113.4197720370821
 20
-2.85182921971e-005
 10
113.4132398881654
 20
-0.5162375115352452
 10
113.3937481611875
 20
-1.029225865559154
 10
113.3614539358074
 20
-1.538836500705184
 10
113.3165142916836
 20
-2.044912337314594
 10
113.259086308475
 20
-2.547296295728643
 10
113.1893270658404
 20
-3.04583129628859
 10
113.1073936434384
 20
-3.540360259335695
 10
113.0134431209277
 20
-4.030726105211217
 10
112.9076325779672
 20
-4.516771754256416
 10
112.7901190942155
 20
-4.99834012681255
 10
112.6610597493315
 20
-5.475274143220879
 10
112.5206116229738
 20
-5.947416723822665
 10
112.3689317948012
 20
-6.414610788959163
 10
112.2061773444724
 20
-6.876699258971634
 10
112.0325053516462
 20
-7.333525054201338
 10
111.8480728959813
 20
-7.784931094989533
 10
111.6530370571364
 20
-8.23076030167748
 10
111.4475549147703
 20
-8.670855594606437
 10
111.2317835485418
 20
-9.105059894117664
 10
111.0058800381095
 20
-9.533216120552421
 10
110.7700014631323
 20
-9.955167194251965
 10
110.5243049032688
 20
-10.37075603555756
 10
110.2689474381777
 20
-10.77982556481046
 10
110.004086147518
 20
-11.18221870235192
 10
109.7298781109482
 20
-11.57777836852321
 10
109.4464804081271
 20
-11.96634748366559
 10
109.1540501187135
 20
-12.34776896812031
 10
108.852744322366
 20
-12.72188574222864
 10
108.5427200987436
 20
-13.08854072633182
 10
108.2241345275047
 20
-13.44757684077114
 10
107.8971446883083
 20
-13.79883700588783
 10
107.5619076608131
 20
-14.14216414202316
 10
107.2185805246777
 20
-14.4774011695184
 10
106.8673203595611
 20
-14.80439100871479
 10
106.5082842451217
 20
-15.1229765799536
 10
106.1416292610186
 20
-15.4330008035761
 10
105.7675124869102
 20
-15.73430659992352
 10
105.3860910024555
 20
-16.02673688933715
 10
104.9975218873131
 20
-16.31013459215824
 10
104.6019622211418
 20
-16.58434262872803
 10
104.1995690836004
 20
-16.84920391938781
 10
103.7904995543475
 20
-17.10456138447882
 10
103.3749107130419
 20
-17.35025794434232
 10
102.9529596393423
 20
-17.58613651931957
 10
102.5248034129076
 20
-17.81204002975184
 10
102.0905991133964
 20
-18.02781139598038
 10
101.6505038204674
 20
-18.23329353834645
 10
101.2046746137794
 20
-18.42832937719131
 10
100.7532685729912
 20
-18.61276183285622
 10
100.2964427777615
 20
-18.78643382568244
 10
99.83435430774907
 20
-18.94918827601123
 10
99.36716024261258
 20
-19.10086810418385
 10
98.89501766201079
 20
-19.24131623054155
 10
98.41808364560247
 20
-19.3703755754256
 10
97.93651527304634
 20
-19.48788905917725
 10
97.45046962400113
 20
-19.59369960213777
 10
96.96010377812561
 20
-19.68765012464841
 10
96.4655748150785
 20
-19.76958354705044
 10
95.96703981451856
 20
-19.83934278968512
 10
95.46465585610451
 20
-19.89677077289369
 10
94.95858001949509
 20
-19.94171041701743
 10
94.44896938434907
 20
-19.97400464239758
 10
93.93598103032517
 20
-19.99349636937542
 10
93.41977203708211
 20
-20.0000285182922
 10
92.90356304383907
 20
-19.99349636937542
 10
92.39057468981517
 20
-19.97400464239758
 10
91.88096405466915
 20
-19.94171041701743
 10
91.37488821805974
 20
-19.89677077289369
 10
90.87250425964569
 20
-19.83934278968512
 10
90.37396925908574
 20
-19.76958354705044
 10
89.87944029603862
 20
-19.68765012464841
 10
89.38907445016311
 20
-19.59369960213777
 10
88.90302880111791
 20
-19.48788905917725
 10
88.42146042856179
 20
-19.3703755754256
 10
87.94452641215346
 20
-19.24131623054155
 10
87.47238383155167
 20
-19.10086810418385
 10
87.00518976641519
 20
-18.94918827601123
 10
86.54310129640271
 20
-18.78643382568244
 10
86.08627550117299
 20
-18.61276183285622
 10
85.63486946038481
 20
-18.42832937719131
 10
85.18904025369685
 20
-18.23329353834645
 10
84.7489449607679
 20
-18.02781139598038
 10
84.31474066125666
 20
-17.81204002975184
 10
83.88658443482191
 20
-17.58613651931957
 10
83.46463336112237
 20
-17.35025794434232
 10
83.04904451981679
 20
-17.10456138447882
 10
82.63997499056389
 20
-16.84920391938781
 10
82.23758185302242
 20
-16.58434262872803
 10
81.84202218685112
 20
-16.31013459215824
 10
81.45345307170874
 20
-16.02673688933715
 10
81.07203158725402
 20
-15.73430659992352
 10
80.6979148131457
 20
-15.4330008035761
 10
80.33125982904252
 20
-15.1229765799536
 10
79.97222371460322
 20
-14.80439100871479
 10
79.62096354948653
 20
-14.4774011695184
 10
79.27763641335119
 20
-14.14216414202316
 10
78.94239938585594
 20
-13.79883700588783
 10
78.61540954665955
 20
-13.44757684077114
 10
78.29682397542074
 20
-13.08854072633182
 10
77.98679975179826
 20
-12.72188574222864
 10
77.68549395545084
 20
-12.34776896812031
 10
77.39306366603721
 20
-11.96634748366559
 10
77.10966596321612
 20
-11.57777836852321
 10
76.83545792664631
 20
-11.18221870235192
 10
76.57059663598653
 20
-10.77982556481046
 10
76.31523917089552
 20
-10.37075603555756
 10
76.06954261103203
 20
-9.955167194251965
 10
75.83366403605478
 20
-9.533216120552421
 10
75.60776052562251
 20
-9.105059894117664
 10
75.39198915939397
 20
-8.670855594606437
 10
75.18650701702791
 20
-8.23076030167748
 10
74.99147117818305
 20
-7.784931094989533
 10
74.80703872251814
 20
-7.333525054201338
 10
74.63336672969191
 20
-6.876699258971634
 10
74.47061227936311
 20
-6.414610788959163
 10
74.31893245119051
 20
-5.947416723822665
 10
74.17848432483281
 20
-5.475274143220879
 10
74.04942497994877
 20
-4.99834012681255
 10
73.93191149619712
 20
-4.516771754256416
 10
73.82610095323659
 20
-4.030726105211217
 10
73.73215043072595
 20
-3.540360259335695
 10
73.65021700832392
 20
-3.04583129628859
 10
73.58045776568926
 20
-2.547296295728643
 10
73.52302978248068
 20
-2.044912337314594
 10
73.47809013835695
 20
-1.538836500705184
 10
73.44579591297679
 20
-1.029225865559154
 10
73.42630418599896
 20
-0.5162375115352452
 10
73.41977203708217
 20
-2.85182921971e-005
 10
73.42630418599896
 20
0.5161804749508497
 10
73.44579591297679
 20
1.029168828974758
 10
73.47809013835695
 20
1.538779464120786
 10
73.52302978248068
 20
2.044855300730195
 10
73.58045776568926
 20
2.547239259144242
 10
73.65021700832392
 20
3.045774259704189
 10
73.73215043072595
 20
3.540303222751293
 10
73.82610095323659
 20
4.030669068626814
 10
73.93191149619712
 20
4.516714717672011
 10
74.04942497994877
 20
4.998283090228146
 10
74.17848432483281
 20
5.475217106636475
 10
74.31893245119051
 20
5.947359687238258
 10
74.47061227936311
 20
6.414553752374754
 10
74.63336672969191
 20
6.876642222387225
 10
74.80703872251814
 20
7.333468017616928
 10
74.99147117818305
 20
7.784874058405123
 10
75.18650701702791
 20
8.230703265093069
 10
75.39198915939397
 20
8.670798558022025
 10
75.60776052562251
 20
9.105002857533252
 10
75.83366403605478
 20
9.533159083968009
 10
76.06954261103203
 20
9.955110157667553
 10
76.31523917089552
 20
10.37069899897315
 10
76.57059663598653
 20
10.77976852822604
 10
76.83545792664631
 20
11.18216166576751
 10
77.10966596321612
 20
11.5777213319388
 10
77.39306366603719
 20
11.96629044708118
 10
77.68549395545081
 20
12.3477119315359
 10
77.98679975179823
 20
12.72182870564422
 10
78.29682397542072
 20
13.08848368974741
 10
78.61540954665952
 20
13.44751980418672
 10
78.94239938585591
 20
13.79877996930341
 10
79.27763641335116
 20
14.14210710543875
 10
79.6209635494865
 20
14.47734413293398
 10
79.97222371460319
 20
14.80433397213038
 10
80.33125982904249
 20
15.12291954336919
 10
80.69791481314567
 20
15.43294376699168
 10
81.07203158725399
 20
15.73424956333911
 10
81.45345307170871
 20
16.02667985275274
 10
81.8420221868511
 20
16.31007755557382
 10
82.23758185302239
 20
16.58428559214362
 10
82.63997499056386
 20
16.8491468828034
 10
83.04904451981676
 20
17.1045043478944
 10
83.46463336112234
 20
17.3502009077579
 10
83.88658443482188
 20
17.58607948273516
 10
84.31474066125664
 20
17.81198299316743
 10
84.74894496076787
 20
18.02775435939596
 10
85.18904025369682
 20
18.23323650176204
 10
85.63486946038478
 20
18.4282723406069
 10
86.08627550117296
 20
18.61270479627181
 10
86.54310129640268
 20
18.78637678909804
 10
87.00518976641516
 20
18.94913123942682
 10
87.47238383155164
 20
19.10081106759944
 10
87.94452641215344
 20
19.24125919395714
 10
88.42146042856176
 20
19.37031853884119
 10
88.90302880111788
 20
19.48783202259285
 10
89.38907445016308
 20
19.59364256555337
 10
89.8794402960386
 20
19.68759308806401
 10
90.37396925908571
 20
19.76952651046604
 10
90.87250425964567
 20
19.83928575310072
 10
91.37488821805971
 20
19.89671373630929
 10
91.88096405466912
 20
19.94165338043303
 10
92.39057468981514
 20
19.97394760581319
 10
92.90356304383904
 20
19.99343933279103
 10
93.41977203708208
 20
19.9999714817078
 10
93.93598103032514
 20
19.99343933279103
 10
94.44896938434904
 20
19.97394760581319
 10
94.95858001949506
 20
19.94165338043303
 10
95.46465585610449
 20
19.89671373630929
 10
95.96703981451853
 20
19.83928575310072
 10
96.46557481507847
 20
19.76952651046604
 10
96.96010377812559
 20
19.68759308806401
 10
97.4504696240011
 20
19.59364256555337
 10
97.93651527304631
 20
19.48783202259285
 10
98.41808364560244
 20
19.37031853884119
 10
98.89501766201076
 20
19.24125919395714
 10
99.36716024261256
 20
19.10081106759944
 10
99.83435430774904
 20
18.94913123942682
 10
100.2964427777615
 20
18.78637678909804
 10
100.7532685729912
 20
18.61270479627181
 10
101.2046746137794
 20
18.4282723406069
 10
101.6505038204674
 20
18.23323650176204
 10
102.0905991133963
 20
18.02775435939596
 10
102.5248034129076
 20
17.81198299316743
 10
102.9529596393423
 20
17.58607948273516
 10
103.3749107130419
 20
17.3502009077579
 10
103.7904995543475
 20
17.1045043478944
 10
104.1995690836004
 20
16.8491468828034
 10
104.6019622211418
 20
16.58428559214362
 10
104.9975218873131
 20
16.31007755557382
 10
105.3860910024555
 20
16.02667985275274
 10
105.7675124869102
 20
15.73424956333911
 10
106.1416292610185
 20
15.43294376699168
 10
106.5082842451217
 20
15.12291954336919
 10
106.867320359561
 20
14.80433397213038
 10
107.2185805246777
 20
14.47734413293398
 10
107.5619076608131
 20
14.14210710543875
 10
107.8971446883083
 20
13.79877996930341
 10
108.2241345275047
 20
13.44751980418672
 10
108.5427200987435
 20
13.08848368974741
 10
108.852744322366
 20
12.72182870564422
 10
109.1540501187134
 20
12.3477119315359
 10
109.4464804081271
 20
11.96629044708118
 10
109.7298781109481
 20
11.5777213319388
 10
110.0040861475179
 20
11.18216166576751
 10
110.2689474381777
 20
10.77976852822604
 10
110.5243049032687
 20
10.37069899897315
 10
110.7700014631322
 20
9.955110157667553
 10
111.0058800381095
 20
9.533159083968009
 10
111.2317835485418
 20
9.105002857533252
 10
111.4475549147703
 20
8.670798558022025
 10
111.6530370571364
 20
8.230703265093069
 10
111.8480728959812
 20
7.784874058405123
 10
112.0325053516461
 20
7.333468017616928
 10
112.2061773444724
 20
6.876642222387225
 10
112.3689317948012
 20
6.414553752374754
 10
112.5206116229738
 20
5.947359687238258
 10
112.6610597493315
 20
5.475217106636475
 10
112.7901190942155
 20
4.998283090228146
 10
112.9076325779672
 20
4.516714717672011
 10
113.0134431209277
 20
4.030669068626814
 10
113.1073936434384
 20
3.540303222751293
 10
113.1893270658404
 20
3.045774259704189
 10
113.259086308475
 20
2.547239259144242
 10
113.3165142916836
 20
2.044855300730195
 10
113.3614539358074
 20
1.538779464120786
 10
113.3937481611875
 20
1.029168828974758
 10
113.4132398881654
 20
0.5161804749508497
  0
LWPOLYLINE
  5
4E
100
AcDbEntity
  8
0
  6
ByLayer
 62
  256
370
   -1
100
AcDbPolyline
 90
  112
 70
    1
 43
0
 10
128.4200489248602
 20
-19.80003469613544
 10
128.4200489248602
 20
19.80000218895407
 10
128.415901010298
 20
20.1277948996634
 10
128.4035237636671
 20
20.45354250446858
 10
128.3830169305507
 20
20.77714525778631
 10
128.3544802565321
 20
21.09850341403328
 10
128.3180134871947
 20
21.4175172276262
 10
128.2737163681217
 20
21.73408695298176
 10
128.2216886448964
 20
22.04811284451667
 10
128.1620300631021
 20
22.35949515664763
 10
128.0948403683221
 20
22.66813414379133
 10
128.0202193061399
 20
22.97393006036447
 10
127.9382666221385
 20
23.27678316078376
 10
127.8490820619014
 20
23.57659369946589
 10
127.7527653710117
 20
23.87326193082756
 10
127.649416295053
 20
24.16668810928548
 10
127.5391345796083
 20
24.45677248925634
 10
127.4220199702611
 20
24.74341532515685
 10
127.2981722125946
 20
25.02651687140369
 10
127.1676910521921
 20
25.30597738241358
 10
126.8872275055125
 20
25.85357631638928
 10
126.5814272948887
 20
26.38541416241754
 10
126.2510883849869
 20
26.90069295583196
 10
125.8970087404737
 20
27.39861473196613
 10
125.5199863260154
 20
27.87838152615367
 10
125.1208191062785
 20
28.33919537372816
 10
124.7003050459293
 20
28.7802583100232
 10
124.2592421096343
 20
29.20077237037238
 10
123.7984282620598
 20
29.59993959010932
 10
123.3186614678723
 20
29.97696200456759
 10
122.8207396917381
 20
30.3310416490808
 10
122.3054608983237
 20
30.66138055898255
 10
121.7736230522954
 20
30.96718076960643
 10
121.2260241183198
 20
31.24764431628604
 10
120.9465636073099
 20
31.3781254766885
 10
120.663462061063
 20
31.50197323435498
 10
120.3768192251625
 20
31.6190878437022
 10
120.0867348451917
 20
31.72936955914685
 10
119.7933086667337
 20
31.83271863510563
 10
119.4966404353721
 20
31.92903532599524
 10
119.1968298966899
 20
32.01821988623239
 10
118.8939767962707
 20
32.10017257023376
 10
118.5881808796975
 20
32.17479363241606
 10
118.2795418925538
 20
32.241983327196
 10
117.9681595804229
 20
32.30164190899026
 10
117.654133688888
 20
32.35366963221554
 10
117.3375639635324
 20
32.39796675128856
 10
117.0185501499395
 20
32.434433520626
 10
116.6971919936925
 20
32.46297019464458
 10
116.3735892403748
 20
32.48347702776098
 10
116.0478416355696
 20
32.4958542743919
 10
115.7200489248603
 20
32.50000218895406
 10
47.72404892486014
 20
32.50000218895406
 10
47.72404892486014
 20
27.16600218895402
 10
33.75404892485994
 20
27.16600218895402
 10
33.75404892485994
 20
9.778971481707828
 10
28.42004892485993
 20
9.778971481707828
 10
28.42004892486025
 20
-9.779028518291938
 10
33.75404892485997
 20
-9.779028518291938
 10
33.75404892485997
 20
-27.16603469613548
 10
47.72404892486017
 20
-27.16603469613548
 10
47.72404892486017
 20
-32.50003469613551
 10
115.7200489248603
 20
-32.50003469613546
 10
116.0478416355697
 20
-32.4958867815733
 10
116.3735892403748
 20
-32.48350953494238
 10
116.6971919936926
 20
-32.46300270182598
 10
117.0185501499395
 20
-32.4344660278074
 10
117.3375639635324
 20
-32.39799925846995
 10
117.654133688888
 20
-32.35370213939694
 10
117.9681595804229
 20
-32.30167441617165
 10
118.2795418925539
 20
-32.24201583437739
 10
118.5881808796975
 20
-32.17482613959746
 10
118.8939767962707
 20
-32.10020507741515
 10
119.19682989669
 20
-32.01825239341378
 10
119.4966404353721
 20
-31.92906783317664
 10
119.7933086667338
 20
-31.83275114228703
 10
120.0867348451917
 20
-31.72940206632824
 10
120.3768192251625
 20
-31.61912035088359
 10
120.6634620610631
 20
-31.50200574153637
 10
120.9465636073099
 20
-31.37815798386988
 10
121.2260241183198
 20
-31.24767682346742
 10
121.7736230522955
 20
-30.96721327678781
 10
122.3054608983237
 20
-30.66141306616392
 10
122.8207396917382
 20
-30.33107415626217
 10
123.3186614678723
 20
-29.97699451174896
 10
123.7984282620599
 20
-29.59997209729068
 10
124.2592421096343
 20
-29.20080487755375
 10
124.7003050459294
 20
-28.78029081720457
 10
125.1208191062785
 20
-28.33922788090953
 10
125.5199863260155
 20
-27.87841403333504
 10
125.8970087404737
 20
-27.3986472391475
 10
126.251088384987
 20
-26.90072546301332
 10
126.5814272948887
 20
-26.38544666959891
 10
126.8872275055126
 20
-25.85360882357064
 10
127.1676910521922
 20
-25.30600988959494
 10
127.2981722125947
 20
-25.02654937858505
 10
127.4220199702611
 20
-24.74344783233821
 10
127.5391345796084
 20
-24.45680499643771
 10
127.649416295053
 20
-24.16672061646685
 10
127.7527653710118
 20
-23.87329443800893
 10
127.8490820619014
 20
-23.57662620664725
 10
127.9382666221385
 20
-23.27681566796512
 10
128.0202193061399
 20
-22.97396256754583
 10
128.0948403683222
 20
-22.66816665097269
 10
128.1620300631022
 20
-22.35952766382899
 10
128.2216886448964
 20
-22.04814535169804
 10
128.2737163681217
 20
-21.73411946016313
 10
128.3180134871947
 20
-21.41754973480757
 10
128.3544802565321
 20
-21.09853592121465
 10
128.3830169305507
 20
-20.77717776496768
 10
128.4035237636671
 20
-20.45357501164995
 10
128.4159010102981
 20
-20.12782740684477
  0
LWPOLYLINE
  5
4F
100
AcDbEntity
  8
0
  6
ByLayer
 62
  256
370
   -1
100
AcDbPolyline
 90
   10
 70
    1
 43
0
 10
-25.1838320976782
 20
3.447503773536818
 10
-25.18391380022104
 20
-3.799579587481167
 10
-2.400489489016728
 20
-25.77045888308916
 10
3.187510510983252
 20
-25.77045888308912
 10
3.187510510983465
 20
-12.56245888308916
 10
-2.400489489016728
 20
-12.56245888308926
 10
-2.400489489016707
 20
12.27163747064561
 10
3.187510510983266
 20
12.27163747064555
 10
3.187510510983266
 20
25.47963747064545
 10
-2.40048948901655
 20
25.47963747064558
  0
LWPOLYLINE
  5
50
100
AcDbEntity
  8
0
  6
ByLayer
 62
  256
370
   -1
100
AcDbPolyline
 90
   10
 70
    1
 43
0
 10
0.9390737218355305
 20
3.447503773536818
 10
0.9389920192926873
 20
-3.799579587481167
 10
23.72241633049697
 20
-25.77045888308916
 10
29.31041633049696
 20
-25.77045888308912
 10
29.31041633049717
 20
-12.56245888308916
 10
23.72241633049697
 20
-12.56245888308926
 10
23.72241633049699
 20
12.27163747064561
 10
29.31041633049697
 20
12.27163747064555
 10
29.31041633049697
 20
25.47963747064545
 10
23.72241633049715
 20
25.47963747064558
  0
LWPOLYLINE
  5
51
100
AcDbEntity
  8
0
  6
ByLayer
 62
  256
370
   -1
100
AcDbPolyline
 90
    4
 70
    1
 43
0
 10
80.91975200106752
 20
24.62561289728072
 42
0.4142135623730953
 10
77.94475200106753
 20
21.65061289728072
 42
0.4142135623730953
 10
80.91975200106752
 20
18.67561289728072
 42
0.4142135623730953
 10
83.89475200106752
 20
21.65061289728072
 42
0.4142135623730953
  0
LWPOLYLINE
  5
52
100
AcDbEntity
  8
0
  6
ByLayer
 62
  256
370
   -1
100
AcDbPolyline
 90
    4
 70
    1
 43
0
 10
118.4197875292028
 20
2.974985672924538
 42
0.4142135623730953
 10
115.4447875292028
 20
-1.432707546100903e-005
 42
0.4142135623730954
 10
118.4197875292028
 20
-2.975014327075463
 42
0.4142135623730945
 10
121.3947875292028
 20
-1.432707546402253e-005
 42
0.4142135623730947
  0
LWPOLYLINE
  5
53
100
AcDbEntity
  8
0
  6
ByLayer
 62
  256
370
   -1
100
AcDbPolyline
 90
    4
 70
    1
 43
0
 10
80.91977658097575
 20
-18.67568412508184
 42
0.414213562373095
 10
77.94477658097576
 20
-21.65068412508184
 42
0.4142135623730953
 10
80.91977658097575
 20
-24.62568412508184
 42
0.4142135623730953
 10
83.89477658097574
 20
-21.65068412508184
 42
0.414213562373095
  0
LWPOLYLINE
  5
54
100
AcDbEntity
  8
0
  6
ByLayer
 62
  256
370
   -1
100
AcDbPolyline
 90
  220
 70
    1
 43
0
 10
-104.1340464253496
 20
-32.50001815796883
 10
-104.1340464253519
 20
-27.00000340809345
 10
-90.8340464253518
 20
-27.00000340809345
 10
-90.83404642533483
 20
-32.50001796699392
 10
-66.00055223926412
 20
-32.50000357070893
 10
-66.00055223926432
 20
-27.00000340809345
 10
-52.7005522392643
 20
-27.00000340809345
 10
-52.7005522392646
 20
-32.50000362400946
 10
-41.12006608961454
 20
-32.5000194915948
 10
-40.79227306199207
 20
-32.49587201245511
 10
-40.46652513509395
 20
-32.48349518348356
 10
-40.14292205482895
 20
-32.4629887504541
 10
-39.82156356710584
 20
-32.4344524591407
 10
-39.50254941783338
 20
-32.3979860553173
 10
-39.18597935292034
 20
-32.35368928475786
 10
-38.87195311827548
 20
-32.30166189323633
 10
-38.56057045980756
 20
-32.24200362652665
 10
-38.25193112342536
 20
-32.1748142304028
 10
-37.94613485503763
 20
-32.10019345063871
 10
-37.64328140055314
 20
-32.01824103300834
 10
-37.34347050588066
 20
-31.92905672328565
 10
-37.04680191692895
 20
-31.83274026724458
 10
-36.75337537960678
 20
-31.72939141065909
 10
-36.4632906398229
 20
-31.61910989930313
 10
-36.17664744348609
 20
-31.50199547895066
 10
-35.89354553650511
 20
-31.37814789537562
 10
-35.61408466478873
 20
-31.24766689435197
 10
-35.0664850107848
 20
-30.96720362305467
 10
-34.53464644874444
 20
-30.66140363125036
 10
-34.01936694593775
 20
-30.33106488513067
 10
-33.52144446963487
 20
-29.97698535088723
 10
-33.04167698710589
 20
-29.59996299471164
 10
-32.58086246562097
 20
-29.20079578279555
 10
-32.13979887245019
 20
-28.78028168133057
 10
-31.71928417486368
 20
-28.33921865650833
 10
-31.32011634013157
 20
-27.87840467452044
 10
-30.94309333552398
 20
-27.39863770155853
 10
-30.58901312831101
 20
-26.90071570381422
 10
-30.2586736857628
 20
-26.38543664747914
 10
-29.95287297514946
 20
-25.85359849874491
 10
-29.67240896374111
 20
-25.30599922380315
 10
-29.54192758501072
 20
-25.02653852843933
 10
-29.41807961880787
 20
-24.74343678884549
 10
-29.30096481104133
 20
-24.45679375079557
 10
-29.19068290761986
 20
-24.16670916006354
 10
-29.08733365445222
 20
-23.87328276242334
 10
-28.99101679744719
 20
-23.57661430364893
 10
-28.90183208251353
 20
-23.27680352951427
 10
-28.81987925555999
 20
-22.9739501857933
 10
-28.74525806249536
 20
-22.66815401825997
 10
-28.67806824922839
 20
-22.35951477268824
 10
-28.61840956166784
 20
-22.04813219485206
 10
-28.56638174572248
 20
-21.73410603052539
 10
-28.52208454730108
 20
-21.41753602548218
 10
-28.4856177123124
 20
-21.09852192549638
 10
-28.45708098666521
 20
-20.77716347634195
 10
-28.43657411626827
 20
-20.45356042379283
 10
-28.42419684703034
 20
-20.12781251362298
 10
-28.4200489248602
 20
-19.80001949160635
 10
-28.4200489248602
 20
19.80000018014761
 10
-28.42419682309518
 20
20.12779222277344
 10
-28.43657402121023
 20
20.45353917224831
 10
-28.45708077432052
 20
20.77714128339804
 10
-28.48561733754121
 20
21.09849881104851
 10
-28.52208396598746
 20
21.41751201002555
 10
-28.56638091477444
 20
21.73408113515502
 10
-28.6184084390173
 20
22.04810644126277
 10
-28.67806679383122
 20
22.35948818317465
 10
-28.74525623433134
 20
22.66812661571652
 10
-28.81987701563285
 20
22.97392199371421
 10
-28.9018293928509
 20
23.2767745719936
 10
-28.99101362110066
 20
23.57658460538052
 10
-29.08732995549727
 20
23.87325234870082
 10
-29.19067865115592
 20
24.16667805678036
 10
-29.30095996319177
 20
24.456761984445
 10
-29.41807414671997
 20
24.74340438652057
 10
-29.5419214568557
 20
25.02650551783293
 10
-29.67240214871411
 20
25.30596563320793
 10
-29.95286469805963
 20
25.85356383544927
 10
-30.25866383567785
 20
26.38540103185139
 10
-30.58900160249007
 20
26.9006792610211
 10
-30.9430800394176
 20
27.3986005615652
 10
-31.32010118738175
 20
27.87836697209052
 10
-31.71926708730382
 20
28.33918053120384
 10
-32.13977978010512
 20
28.78024327751199
 10
-32.58084130670694
 20
29.20075724962178
 10
-33.04165370803062
 20
29.59992448614
 10
-33.52141902499744
 20
29.97694702567347
 10
-34.01933929852872
 20
30.33102690682901
 10
-34.53461656954575
 20
30.66136616821342
 10
-35.06645287896986
 20
30.96716684843349
 10
-35.61405026772233
 20
31.24763098609606
 10
-35.89351000463462
 20
31.3781124885329
 10
-36.17661077672449
 20
31.50196061980791
 10
-36.4632528391071
 20
31.61907563474695
 10
-36.75333644689762
 20
31.72935778817587
 10
-37.04676185521122
 20
31.83270733492051
 10
-37.34342931916306
 20
31.92902452980673
 10
-37.64323909386829
 20
32.01820962766038
 10
-37.94609143444209
 20
32.10016288330732
 10
-38.25188659599961
 20
32.17478455157338
 10
-38.56052483365602
 20
32.24197488728443
 10
-38.87190640252648
 20
32.30163414526632
 10
-39.18593155772616
 20
32.35366258034488
 10
-39.50250055437022
 20
32.39796044734599
 10
-39.82151364757382
 20
32.43442800109548
 10
-40.14287109245213
 20
32.46296549641921
 10
-40.46647314412031
 20
32.48347318814302
 10
-40.79222005769352
 20
32.49585133109278
 10
-41.12001208828693
 20
32.50000018009433
 10
-52.74626450656909
 20
32.50003066183817
 10
-52.74626450657849
 20
27.00002742143226
 10
-66.04626450657851
 20
27.00002742143226
 10
-66.04626450657898
 20
32.50003103798458
 10
-90.82081702155423
 20
32.50003149606896
 10
-90.82081702155415
 20
27.0000304125584
 10
-104.1208170215542
 20
27.0000304125584
 10
-104.1208170215591
 20
32.50003211816859
 10
-115.7200857613298
 20
32.50000017999042
 10
-116.0478777919251
 20
32.49585133099151
 10
-116.3736247055002
 20
32.48347318804427
 10
-116.6972267571704
 20
32.46296549632287
 10
-117.0185842020507
 20
32.43442800100146
 10
-117.3375972952564
 20
32.39796044725419
 10
-117.6541662919025
 20
32.3536625802552
 10
-117.9681914471042
 20
32.30163414517865
 10
-118.2795730159768
 20
32.24197488719867
 10
-118.5882112536353
 20
32.17478455148944
 10
-118.8940064151949
 20
32.10016288322508
 10
-119.1968587557709
 20
32.01820962757977
 10
-119.4966685304782
 20
31.92902452972763
 10
-119.7933359944322
 20
31.83270733484284
 10
-120.086761402748
 20
31.72935778809952
 10
-120.3768450105407
 20
31.61907563467184
 10
-120.6634870729255
 20
31.50196061973395
 10
-120.9465878450175
 20
31.37811248845999
 10
-121.226047581932
 20
31.24763098602412
 10
-121.7736449706888
 20
30.96716684836323
 10
-122.3054812801172
 20
30.66136616814449
 10
-122.8207585511386
 20
30.33102690676108
 10
-123.3186788246741
 20
29.97694702560622
 10
-123.7984441416451
 20
29.59992448607311
 10
-124.2592565429728
 20
29.20075724955494
 10
-124.7003180695786
 20
28.78024327744492
 10
-125.1208307623837
 20
28.33918053113624
 10
-125.5199966623095
 20
27.87836697202211
 10
-125.8970178102772
 20
27.39860056149573
 10
-126.2510962472082
 20
26.90067926095029
 10
-126.5814340140236
 20
26.38540103177901
 10
-126.8872331516449
 20
25.85356383537507
 10
-127.1676957009932
 20
25.30596563313168
 10
-127.2981763928529
 20
25.02650551775557
 10
-127.4220237029899
 20
24.74340438644204
 10
-127.5391378865193
 20
24.45676198436526
 10
-127.6494191985563
 20
24.16667805669936
 10
-127.752767894216
 20
23.8732523486185
 10
-127.8490842286136
 20
23.57658460529682
 10
-127.9382684568643
 20
23.27677457190849
 10
-128.0202208340832
 20
22.97392199362764
 10
-128.0948416153855
 20
22.66812661562843
 10
-128.1620310558864
 20
22.35948818308501
 10
-128.2216894107009
 20
22.04810644117153
 10
-128.2737169349443
 20
21.73408113506214
 10
-128.3180138837318
 20
21.41751200993098
 10
-128.3544805121784
 20
21.09849881095221
 10
-128.3830170753995
 20
20.77714128329999
 10
-128.4035238285099
 20
20.45353917214845
 10
-128.4159010266251
 20
20.12779222267175
 10
-128.4200489248602
 20
19.80000018004404
 10
-128.4200489248602
 20
-19.8000346961357
 10
-128.4159010094292
 20
-20.12782744239671
 10
-128.4035237602166
 20
-20.45357508207491
 10
-128.3830169228427
 20
-20.77717786956524
 10
-128.354480242928
 20
-21.09853605926261
 10
-128.3180134660931
 20
-21.41754990556195
 10
-128.2737163379584
 20
-21.7341196628582
 10
-128.2216886041444
 20
-22.04814558554627
 10
-128.1620300102715
 20
-22.35952792802109
 10
-128.0948403019602
 20
-22.66816694467759
 10
-128.020219224831
 20
-22.97396288991071
 10
-127.9382665245043
 20
-23.27681601811535
 10
-127.8490819466006
 20
-23.57662658368647
 10
-127.7527652367404
 20
-23.87329484101896
 10
-127.6494161405442
 20
-24.16672104450778
 10
-127.5391344036324
 20
-24.45680544854783
 10
-127.4220197716254
 20
-24.74344830753406
 10
-127.2981719901438
 20
-25.02654987586138
 10
-127.1676908048081
 20
-25.30601040792473
 10
-126.8872272050559
 20
-25.8536093808392
 10
-126.5814269373326
 20
-26.38544726143687
 10
-126.251087966602
 20
-26.90072608487718
 10
-125.8970082578277
 20
-27.39864788631954
 10
-125.5199857759737
 20
-27.87841470092336
 10
-125.1208184860036
 20
-28.33922856384806
 10
-124.7003043528811
 20
-28.78029151025305
 10
-124.25924134157
 20
-29.20080557529775
 10
-123.7984274170342
 20
-29.59997279414157
 10
-123.3186605442372
 20
-29.97699520194393
 10
-122.8207386881429
 20
-30.33107483386424
 10
-122.305459813715
 20
-30.66141372506191
 10
-121.7736218859172
 20
-30.96721391069638
 10
-121.2260228697134
 20
-31.24767742592704
 10
-120.9465623175104
 20
-31.37815856812826
 10
-120.6634607300672
 20
-31.50200630591332
 10
-120.3768178530044
 20
-31.61912089367713
 10
-120.0867334319425
 20
-31.72940258581463
 10
-119.7933072125018
 20
-31.83275163672074
 10
-119.4966389403029
 20
-31.92906830079038
 10
-119.1968283609662
 20
-32.01825283241849
 10
-118.8939752201122
 20
-32.10020548599999
 10
-118.5881792633614
 20
-32.17482651592982
 10
-118.2795402363342
 20
-32.24201617660289
 10
-117.9681578846511
 20
-32.30167472241413
 10
-117.6541319539326
 20
-32.35370240775847
 10
-117.3375621897991
 20
-32.39799948703083
 10
-117.0185483378712
 20
-32.43446621462616
 10
-116.6971901437692
 20
-32.46300284493936
 10
-116.3735873531136
 20
-32.48350963236537
 10
-116.047839711525
 20
-32.49588683129911
 10
-115.7200469646238
 20
-32.50003469613551
  0
LWPOLYLINE
  5
55
100
AcDbEntity
  8
0
  6
ByLayer
 62
  256
370
   -1
100
AcDbPolyline
 90
    4
 70
    1
 43
0
 10
-42.47631061974427
 20
2.958515982247183
 42
-0.414213562373095
 10
-39.52631061974425
 20
0.008515982247181789
 42
-0.414213562373095
 10
-42.47631061974427
 20
-2.941484017752817
 42
-0.4142135623730953
 10
-45.42631061974426
 20
0.008515982247183709
 42
-0.4142135623730953
  0
LWPOLYLINE
  5
56
100
AcDbEntity
  8
0
  6
ByLayer
 62
  256
370
   -1
100
AcDbPolyline
 90
    4
 70
    1
 43
0
 10
-114.3890800412791
 20
2.973915129284818
 42
-0.4142135623730953
 10
-111.4390800412791
 20
0.02391512928481744
 42
-0.4142135623730953
 10
-114.3890800412791
 20
-2.926084870715183
 42
-0.4142135623730946
 10
-117.3390800412791
 20
0.02391512928481803
 42
-0.4142135623730946
  0
LWPOLYLINE
  5
57
100
AcDbEntity
  8
0
  6
ByLayer
 62
  256
370
   -1
100
AcDbPolyline
 90
    4
 70
    1
 43
0
 10
-81.12357414311037
 20
-10
 10
-75.67357414311039
 20
-10
 10
-75.67357414311039
 20
10
 10
-81.12357414311037
 20
10
  0
LWPOLYLINE
  5
58
100
AcDbEntity
  8
0
  6
ByLayer
 62
  256
370
   -1
100
AcDbPolyline
 90
    4
 70
    1
 43
0
 10
-26.25700000000001
 20
-2.860951030672045
 10
-16.25699999999999
 20
-2.860951030672045
 10
-16.25699999999999
 20
2.589048969327955
 10
-26.25700000000001
 20
2.589048969327955
  0
LWPOLYLINE
  5
59
100
AcDbEntity
  8
0
  6
ByLayer
 62
  256
370
   -1
100
AcDbPolyline
 90
    4
 70
    1
 43
0
 10
-0.1339999999999932
 20
-2.85507107119909
 10
9.865999999999993
 20
-2.85507107119909
 10
9.865999999999993
 20
2.59492892880091
 10
-0.1339999999999932
 20
2.59492892880091
  0
ENDSEC
  0
SECTION
  2
OBJECTS
  0
DICTIONARY
  5
C
330
0
100
AcDbDictionary
281
    1
  3
ACAD_GROUP
350
D
  0
DICTIONARY
  5
D
330
C
100
AcDbDictionary
281
    1
  0
ENDSEC
  0
EOF
