999
dxfrw 0.6.3
  0
SECTION
  2
HEADER
  9
$ACADVER
  1
AC1021
  9
$DWGCODEPAGE
  3
ANSI_1252
  9
$INSBASE
 10
0
 20
0
 30
0
  9
$EXTMIN
 10
-132.897
 20
-32.50003329064151
 30
0
  9
$EXTMAX
 10
125.3973031613595
 20
32.50003352366259
 30
0
  9
$LIMMIN
 10
0
 20
0
  9
$LIMMAX
 10
12
 20
9
  9
$ORTHOMODE
 70
    0
  9
$REGENMODE
 70
    1
  9
$FILLMODE
 70
    1
  9
$QTEXTMODE
 70
    0
  9
$MIRRTEXT
 70
    1
  9
$LTSCALE
 40
1
  9
$ATTMODE
 70
    1
  9
$TEXTSIZE
 40
0.2
  9
$TRACEWID
 40
0.05
  9
$TEXTSTYLE
  7
STANDARD
  9
$CLAYER
  8
0
  9
$CELTYPE
  6
BYLAYER
  9
$CECOLOR
 62
  256
  9
$CELTSCALE
 40
1
  9
$DISPSILH
 70
    0
  9
$DIMSCALE
 40
1
  9
$DIMASZ
 40
0.18
  9
$DIMEXO
 40
0.0625
  9
$DIMDLI
 40
0.38
  9
$DIMRND
 40
0
  9
$DIMDLE
 40
0
  9
$DIMEXE
 40
0.18
  9
$DIMTP
 40
0
  9
$DIMTM
 40
0
  9
$DIMTXT
 40
0.18
  9
$DIMCEN
 40
0.09
  9
$DIMTSZ
 40
0
  9
$DIMTOL
 70
    0
  9
$DIMLIM
 70
    0
  9
$DIMTIH
 70
    1
  9
$DIMTOH
 70
    1
  9
$DIMSE1
 70
    0
  9
$DIMSE2
 70
    0
  9
$DIMTAD
 70
    0
  9
$DIMZIN
 70
    0
  9
$DIMBLK
  1

  9
$DIMASO
 70
    1
  9
$DIMSHO
 70
    1
  9
$DIMPOST
  1

  9
$DIMAPOST
  1

  9
$DIMALT
 70
    0
  9
$DIMALTD
 70
    2
  9
$DIMALTF
 40
25.4
  9
$DIMLFAC
 40
1
  9
$DIMTOFL
 70
    0
  9
$DIMTVP
 40
0
  9
$DIMTIX
 70
    0
  9
$DIMSOXD
 70
    0
  9
$DIMSAH
 70
    0
  9
$DIMBLK1
  1

  9
$DIMBLK2
  1

  9
$DIMSTYLE
  2
STANDARD
  9
$DIMCLRD
 70
    0
  9
$DIMCLRE
 70
    0
  9
$DIMCLRT
 70
    0
  9
$DIMTFAC
 40
1
  9
$DIMGAP
 40
0.09
  9
$DIMJUST
 70
    0
  9
$DIMSD1
 70
    0
  9
$DIMSD2
 70
    0
  9
$DIMTOLJ
 70
    0
  9
$DIMTZIN
 70
    8
  9
$DIMALTZ
 70
    0
  9
$DIMALTTZ
 70
    0
  9
$DIMUPT
 70
    0
  9
$DIMDEC
 70
    4
  9
$DIMTDEC
 70
    2
  9
$DIMALTU
 70
    2
  9
$DIMALTTD
 70
    3
  9
$DIMTXSTY
  7
STANDARD
  9
$DIMAUNIT
 70
    0
  9
$DIMADEC
 70
    0
  9
$DIMALTRND
 40
0
  9
$DIMAZIN
 70
    0
  9
$DIMDSEP
 70
   44
  9
$DIMATFIT
 70
    3
  9
$DIMFRAC
 70
    0
  9
$DIMLDRBLK
  1
STANDARD
  9
$DIMLUNIT
 70
    2
  9
$DIMLWD
 70
   -2
  9
$DIMLWE
 70
   -2
  9
$DIMTMOVE
 70
    0
  9
$DIMFXL
 40
1
  9
$DIMFXLON
 70
    0
  9
$DIMJOGANG
 40
0.7854
  9
$DIMTFILL
 70
    0
  9
$DIMTFILLCLR
 70
    0
  9
$DIMARCSYM
 70
    0
  9
$DIMLTYPE
  6

  9
$DIMLTEX1
  6

  9
$DIMLTEX2
  6

  9
$LUNITS
 70
    2
  9
$LUPREC
 70
    4
  9
$SKETCHINC
 40
0.1
  9
$FILLETRAD
 40
0.5
  9
$AUNITS
 70
    0
  9
$AUPREC
 70
    0
  9
$MENU
  1
.
  9
$ELEVATION
 40
0
  9
$PELEVATION
 40
0
  9
$THICKNESS
 40
0
  9
$LIMCHECK
 70
    0
  9
$CHAMFERA
 40
0.5
  9
$CHAMFERB
 40
0.5
  9
$CHAMFERC
 40
0
  9
$CHAMFERD
 40
0
  9
$SKPOLY
 70
    0
  9
$USRTIMER
 70
    1
  9
$ANGBASE
 50
0
  9
$ANGDIR
 70
    0
  9
$PDMODE
 70
    0
  9
$PDSIZE
 40
0
  9
$PLINEWID
 40
0
  9
$SPLFRAME
 70
    0
  9
$SPLINETYPE
 70
    6
  9
$SPLINESEGS
 70
    8
  9
$HANDSEED
  5
20000
  9
$SURFTAB1
 70
    6
  9
$SURFTAB2
 70
    6
  9
$SURFTYPE
 70
    6
  9
$SURFU
 70
    6
  9
$SURFV
 70
    6
  9
$UCSBASE
  2

  9
$UCSNAME
  2

  9
$UCSORG
 10
0
 20
0
 30
0
  9
$UCSXDIR
 10
1
 20
0
 30
0
  9
$UCSYDIR
 10
0
 20
1
 30
0
  9
$UCSORTHOREF
  2

  9
$UCSORTHOVIEW
 70
    0
  9
$UCSORGTOP
 10
0
 20
0
 30
0
  9
$UCSORGBOTTOM
 10
0
 20
0
 30
0
  9
$UCSORGLEFT
 10
0
 20
0
 30
0
  9
$UCSORGRIGHT
 10
0
 20
0
 30
0
  9
$UCSORGFRONT
 10
0
 20
0
 30
0
  9
$UCSORGBACK
 10
0
 20
0
 30
0
  9
$PUCSBASE
  2

  9
$PUCSNAME
  2

  9
$PUCSORG
 10
0
 20
0
 30
0
  9
$PUCSXDIR
 10
1
 20
0
 30
0
  9
$PUCSYDIR
 10
0
 20
1
 30
0
  9
$PUCSORTHOREF
  2

  9
$PUCSORTHOVIEW
 70
    0
  9
$PUCSORGTOP
 10
0
 20
0
 30
0
  9
$PUCSORGBOTTOM
 10
0
 20
0
 30
0
  9
$PUCSORGLEFT
 10
0
 20
0
 30
0
  9
$PUCSORGRIGHT
 10
0
 20
0
 30
0
  9
$PUCSORGFRONT
 10
0
 20
0
 30
0
  9
$PUCSORGBACK
 10
0
 20
0
 30
0
  9
$USERI1
 70
    0
  9
$USERI2
 70
    0
  9
$USERI3
 70
    0
  9
$USERI4
 70
    0
  9
$USERI5
 70
    0
  9
$USERR1
 40
0
  9
$USERR2
 40
0
  9
$USERR3
 40
0
  9
$USERR4
 40
0
  9
$USERR5
 40
0
  9
$WORLDVIEW
 70
    1
  9
$SHADEDGE
 70
    3
  9
$SHADEDIF
 70
   70
  9
$TILEMODE
 70
    1
  9
$MAXACTVP
 70
   64
  9
$PINSBASE
 10
0
 20
0
 30
0
  9
$PLIMCHECK
 70
    0
  9
$PEXTMIN
 10
1e+020
 20
1e+020
 30
1e+020
  9
$PEXTMAX
 10
-1e+020
 20
-1e+020
 30
-1e+020
  9
$GRIDMODE
 70
    0
  9
$SNAPSTYLE
 70
    0
  9
$PLIMMIN
 10
0
 20
0
  9
$PLIMMAX
 10
12
 20
9
  9
$UNITMODE
 70
    0
  9
$VISRETAIN
 70
    1
  9
$PLINEGEN
 70
    0
  9
$PSLTSCALE
 70
    1
  9
$TREEDEPTH
 70
 3020
  9
$CMLSTYLE
  2
Standard
  9
$CMLJUST
 70
    0
  9
$CMLSCALE
 40
20
  9
$PROXYGRAPHICS
 70
    1
  9
$MEASUREMENT
 70
    1
  9
$CELWEIGHT
370
   -1
  9
$ENDCAPS
280
    0
  9
$JOINSTYLE
280
    0
  9
$LWDISPLAY
290
    0
  9
$INSUNITS
 70
    4
  9
$HYPERLINKBASE
  1

  9
$STYLESHEET
  1

  9
$XEDIT
290
    1
  9
$CEPSNTYPE
380
    0
  9
$PSTYLEMODE
290
    1
  9
$EXTNAMES
290
    1
  9
$PSVPSCALE
 40
1
  9
$OLESTARTUP
290
    0
  9
$SORTENTS
280
  127
  9
$INDEXCTL
280
    0
  9
$HIDETEXT
280
    1
  9
$XCLIPFRAME
290
    0
  9
$HALOGAP
280
    0
  9
$OBSCOLOR
 70
  257
  9
$OBSLTYPE
280
    0
  9
$INTERSECTIONDISPLAY
280
    0
  9
$INTERSECTIONCOLOR
 70
  257
  9
$DIMASSOC
280
    1
  9
$PROJECTNAME
  1

  9
$CAMERADISPLAY
290
    0
  9
$LENSLENGTH
 40
50
  9
$CAMERAHEIGHT
 40
0
  9
$STEPSPERSEC
 40
2
  9
$STEPSIZE
 40
50
  9
$3DDWFPREC
 40
2
  9
$PSOLWIDTH
 40
5
  9
$PSOLHEIGHT
 40
80
  9
$LOFTANG1
 40
1.570796326794897
  9
$LOFTANG2
 40
1.570796326794897
  9
$LOFTMAG1
 40
0
  9
$LOFTMAG2
 40
0
  9
$LOFTPARAM
 70
    7
  9
$LOFTNORMALS
280
    1
  9
$LATITUDE
 40
1
  9
$LONGITUDE
 40
1
  9
$NORTHDIRECTION
 40
0
  9
$TIMEZONE
 70
-8000
  9
$LIGHTGLYPHDISPLAY
280
    1
  9
$TILEMODELIGHTSYNCH
280
    1
  9
$SOLIDHIST
280
    1
  9
$SHOWHIST
280
    1
  9
$DWFFRAME
280
    2
  9
$DGNFRAME
280
    0
  9
$REALWORLDSCALE
290
    1
  9
$INTERFERECOLOR
 62
    1
  9
$CSHADOW
280
    0
  9
$SHADOWPLANELOCATION
 40
0
  0
ENDSEC
  0
SECTION
  2
CLASSES
  0
ENDSEC
  0
SECTION
  2
TABLES
  0
TABLE
  2
VPORT
  5
8
330
0
100
AcDbSymbolTable
 70
    1
  0
VPORT
  5
31
330
2
100
AcDbSymbolTableRecord
100
AcDbViewportTableRecord
  2
*ACTIVE
 70
    0
 10
0
 20
0
 11
1
 21
1
 12
171.3313386467623
 22
54.95235562126569
 13
0
 23
0
 14
10
 24
10
 15
10
 25
10
 16
0
 26
0
 36
1
 17
0
 27
0
 37
0
 40
264.9714158979421
 41
1.904648390941597
 42
50
 43
0
 44
0
 50
0
 51
0
 71
    0
 72
  100
 73
    1
 74
    3
 75
    0
 76
    0
 77
    0
 78
    0
281
    0
 65
    1
110
0
120
0
130
0
111
1
121
0
131
0
112
0
122
1
132
0
 79
    0
146
0
348
10020
 60
    7
 61
    5
292
1
282
    1
141
0
142
0
 63
  250
421
3358443
  0
ENDTAB
  0
TABLE
  2
LTYPE
  5
5
330
0
100
AcDbSymbolTable
 70
    4
  0
LTYPE
  5
14
330
5
100
AcDbSymbolTableRecord
100
AcDbLinetypeTableRecord
  2
ByBlock
 70
    0
  3

 72
   65
 73
    0
 40
0
  0
LTYPE
  5
15
330
5
100
AcDbSymbolTableRecord
100
AcDbLinetypeTableRecord
  2
ByLayer
 70
    0
  3

 72
   65
 73
    0
 40
0
  0
LTYPE
  5
16
330
5
100
AcDbSymbolTableRecord
100
AcDbLinetypeTableRecord
  2
Continuous
 70
    0
  3
Solid line
 72
   65
 73
    0
 40
0
  0
LTYPE
  5
32
330
5
100
AcDbSymbolTableRecord
100
AcDbLinetypeTableRecord
  2
DOT
 70
    0
  3
Dot . . . . . . . . . . . . . . . . . . . . . .
 72
   65
 73
    2
 40
6.35
 49
0
 74
    0
 49
-6.35
 74
    0
  0
LTYPE
  5
33
330
5
100
AcDbSymbolTableRecord
100
AcDbLinetypeTableRecord
  2
DOTTINY
 70
    0
  3
Dot (.15x) .....................................
 72
   65
 73
    2
 40
0.9525
 49
0
 74
    0
 49
-0.9525
 74
    0
  0
LTYPE
  5
34
330
5
100
AcDbSymbolTableRecord
100
AcDbLinetypeTableRecord
  2
DOT2
 70
    0
  3
Dot (.5x) .....................................
 72
   65
 73
    2
 40
3.175
 49
0
 74
    0
 49
-3.175
 74
    0
  0
LTYPE
  5
35
330
5
100
AcDbSymbolTableRecord
100
AcDbLinetypeTableRecord
  2
DOTX2
 70
    0
  3
Dot (2x) .  .  .  .  .  .  .  .  .  .  .  .  .
 72
   65
 73
    2
 40
12.7
 49
0
 74
    0
 49
-12.7
 74
    0
  0
LTYPE
  5
36
330
5
100
AcDbSymbolTableRecord
100
AcDbLinetypeTableRecord
  2
DASHED
 70
    0
  3
Dashed _ _ _ _ _ _ _ _ _ _ _ _ _ _ _ _ _
 72
   65
 73
    2
 40
19.05
 49
12.7
 74
    0
 49
-6.35
 74
    0
  0
LTYPE
  5
37
330
5
100
AcDbSymbolTableRecord
100
AcDbLinetypeTableRecord
  2
DASHEDTINY
 70
    0
  3
Dashed (.15x) _ _ _ _ _ _ _ _ _ _ _ _ _ _ _ _ _
 72
   65
 73
    2
 40
2.8575
 49
1.905
 74
    0
 49
-0.9525
 74
    0
  0
LTYPE
  5
38
330
5
100
AcDbSymbolTableRecord
100
AcDbLinetypeTableRecord
  2
DASHED2
 70
    0
  3
Dashed (.5x) _ _ _ _ _ _ _ _ _ _ _ _ _ _ _ _ _
 72
   65
 73
    2
 40
9.524999999999999
 49
6.35
 74
    0
 49
-3.175
 74
    0
  0
LTYPE
  5
39
330
5
100
AcDbSymbolTableRecord
100
AcDbLinetypeTableRecord
  2
DASHEDX2
 70
    0
  3
Dashed (2x) ____  ____  ____  ____  ____  ___
 72
   65
 73
    2
 40
38.09999999999999
 49
25.4
 74
    0
 49
-12.7
 74
    0
  0
LTYPE
  5
3A
330
5
100
AcDbSymbolTableRecord
100
AcDbLinetypeTableRecord
  2
DASHDOT
 70
    0
  3
Dash dot __ . __ . __ . __ . __ . __ . __ . __
 72
   65
 73
    4
 40
25.4
 49
12.7
 74
    0
 49
-6.35
 74
    0
 49
0
 74
    0
 49
-6.35
 74
    0
  0
LTYPE
  5
3B
330
5
100
AcDbSymbolTableRecord
100
AcDbLinetypeTableRecord
  2
DASHDOTTINY
 70
    0
  3
Dash dot (.15x) _._._._._._._._._._._._._._._.
 72
   65
 73
    4
 40
3.81
 49
1.905
 74
    0
 49
-0.9525
 74
    0
 49
0
 74
    0
 49
-0.9525
 74
    0
  0
LTYPE
  5
3C
330
5
100
AcDbSymbolTableRecord
100
AcDbLinetypeTableRecord
  2
DASHDOT2
 70
    0
  3
Dash dot (.5x) _._._._._._._._._._._._._._._.
 72
   65
 73
    4
 40
12.7
 49
6.35
 74
    0
 49
-3.175
 74
    0
 49
0
 74
    0
 49
-3.175
 74
    0
  0
LTYPE
  5
3D
330
5
100
AcDbSymbolTableRecord
100
AcDbLinetypeTableRecord
  2
DASHDOTX2
 70
    0
  3
Dash dot (2x) ____  .  ____  .  ____  .  ___
 72
   65
 73
    4
 40
50.8
 49
25.4
 74
    0
 49
-12.7
 74
    0
 49
0
 74
    0
 49
-12.7
 74
    0
  0
LTYPE
  5
3E
330
5
100
AcDbSymbolTableRecord
100
AcDbLinetypeTableRecord
  2
DIVIDE
 70
    0
  3
Divide ____ . . ____ . . ____ . . ____ . . ____
 72
   65
 73
    6
 40
31.75
 49
12.7
 74
    0
 49
-6.35
 74
    0
 49
0
 74
    0
 49
-6.35
 74
    0
 49
0
 74
    0
 49
-6.35
 74
    0
  0
LTYPE
  5
3F
330
5
100
AcDbSymbolTableRecord
100
AcDbLinetypeTableRecord
  2
DIVIDETINY
 70
    0
  3
Divide (.15x) __..__..__..__..__..__..__..__.._
 72
   65
 73
    6
 40
4.7625
 49
1.905
 74
    0
 49
-0.9525
 74
    0
 49
0
 74
    0
 49
-0.9525
 74
    0
 49
0
 74
    0
 49
-0.9525
 74
    0
  0
LTYPE
  5
40
330
5
100
AcDbSymbolTableRecord
100
AcDbLinetypeTableRecord
  2
DIVIDE2
 70
    0
  3
Divide (.5x) __..__..__..__..__..__..__..__.._
 72
   65
 73
    6
 40
15.875
 49
6.35
 74
    0
 49
-3.175
 74
    0
 49
0
 74
    0
 49
-3.175
 74
    0
 49
0
 74
    0
 49
-3.175
 74
    0
  0
LTYPE
  5
41
330
5
100
AcDbSymbolTableRecord
100
AcDbLinetypeTableRecord
  2
DIVIDEX2
 70
    0
  3
Divide (2x) ________  .  .  ________  .  .  _
 72
   65
 73
    6
 40
63.5
 49
25.4
 74
    0
 49
-12.7
 74
    0
 49
0
 74
    0
 49
-12.7
 74
    0
 49
0
 74
    0
 49
-12.7
 74
    0
  0
LTYPE
  5
42
330
5
100
AcDbSymbolTableRecord
100
AcDbLinetypeTableRecord
  2
BORDER
 70
    0
  3
Border __ __ . __ __ . __ __ . __ __ . __ __ .
 72
   65
 73
    6
 40
44.45
 49
12.7
 74
    0
 49
-6.35
 74
    0
 49
12.7
 74
    0
 49
-6.35
 74
    0
 49
0
 74
    0
 49
-6.35
 74
    0
  0
LTYPE
  5
43
330
5
100
AcDbSymbolTableRecord
100
AcDbLinetypeTableRecord
  2
BORDERTINY
 70
    0
  3
Border (.15x) __.__.__.__.__.__.__.__.__.__.__.
 72
   65
 73
    6
 40
6.6675
 49
1.905
 74
    0
 49
-0.9525
 74
    0
 49
1.905
 74
    0
 49
-0.9525
 74
    0
 49
0
 74
    0
 49
-0.9525
 74
    0
  0
LTYPE
  5
44
330
5
100
AcDbSymbolTableRecord
100
AcDbLinetypeTableRecord
  2
BORDER2
 70
    0
  3
Border (.5x) __.__.__.__.__.__.__.__.__.__.__.
 72
   65
 73
    6
 40
22.225
 49
6.35
 74
    0
 49
-3.175
 74
    0
 49
6.35
 74
    0
 49
-3.175
 74
    0
 49
0
 74
    0
 49
-3.175
 74
    0
  0
LTYPE
  5
45
330
5
100
AcDbSymbolTableRecord
100
AcDbLinetypeTableRecord
  2
BORDERX2
 70
    0
  3
Border (2x) ____  ____  .  ____  ____  .  ___
 72
   65
 73
    6
 40
88.89999999999999
 49
25.4
 74
    0
 49
-12.7
 74
    0
 49
25.4
 74
    0
 49
-12.7
 74
    0
 49
0
 74
    0
 49
-12.7
 74
    0
  0
LTYPE
  5
46
330
5
100
AcDbSymbolTableRecord
100
AcDbLinetypeTableRecord
  2
CENTER
 70
    0
  3
Center ____ _ ____ _ ____ _ ____ _ ____ _ ____
 72
   65
 73
    4
 40
50.8
 49
31.75
 74
    0
 49
-6.35
 74
    0
 49
6.35
 74
    0
 49
-6.35
 74
    0
  0
LTYPE
  5
47
330
5
100
AcDbSymbolTableRecord
100
AcDbLinetypeTableRecord
  2
CENTERTINY
 70
    0
  3
Center (.15x) ___ _ ___ _ ___ _ ___ _ ___ _ ___
 72
   65
 73
    4
 40
7.62
 49
4.7625
 74
    0
 49
-0.9525
 74
    0
 49
0.9525
 74
    0
 49
-0.9525
 74
    0
  0
LTYPE
  5
48
330
5
100
AcDbSymbolTableRecord
100
AcDbLinetypeTableRecord
  2
CENTER2
 70
    0
  3
Center (.5x) ___ _ ___ _ ___ _ ___ _ ___ _ ___
 72
   65
 73
    4
 40
28.575
 49
19.05
 74
    0
 49
-3.175
 74
    0
 49
3.175
 74
    0
 49
-3.175
 74
    0
  0
LTYPE
  5
49
330
5
100
AcDbSymbolTableRecord
100
AcDbLinetypeTableRecord
  2
CENTERX2
 70
    0
  3
Center (2x) ________  __  ________  __  _____
 72
   65
 73
    4
 40
101.6
 49
63.5
 74
    0
 49
-12.7
 74
    0
 49
12.7
 74
    0
 49
-12.7
 74
    0
  0
ENDTAB
  0
TABLE
  2
LAYER
  5
2
330
0
100
AcDbSymbolTable
 70
    1
  0
LAYER
  5
10
330
2
100
AcDbSymbolTableRecord
100
AcDbLayerTableRecord
  2
0
 70
    0
 62
    7
  6
CONTINUOUS
370
   -3
390
F
  0
LAYER
  5
4A
330
2
100
AcDbSymbolTableRecord
100
AcDbLayerTableRecord
  2
CLAMPBASE
 70
    0
 62
   18
  6
CONTINUOUS
370
   -3
390
F
  0
ENDTAB
  0
TABLE
  2
STYLE
  5
3
330
0
100
AcDbSymbolTable
 70
    3
  0
STYLE
  5
4B
330
2
100
AcDbSymbolTableRecord
100
AcDbTextStyleTableRecord
  2
Standard
 70
    0
 40
0
 41
1
 50
0
 71
    0
 42
1
  3
txt
  4

  0
ENDTAB
  0
TABLE
  2
VIEW
  5
6
330
0
100
AcDbSymbolTable
 70
    0
  0
ENDTAB
  0
TABLE
  2
UCS
  5
7
330
0
100
AcDbSymbolTable
 70
    0
  0
ENDTAB
  0
TABLE
  2
APPID
  5
9
330
0
100
AcDbSymbolTable
 70
    1
  0
APPID
  5
12
330
9
100
AcDbSymbolTableRecord
100
AcDbRegAppTableRecord
  2
ACAD
 70
    0
  0
APPID
  5
4C
330
9
100
AcDbSymbolTableRecord
100
AcDbRegAppTableRecord
  2
LibreCad
 70
    0
  0
ENDTAB
  0
TABLE
  2
DIMSTYLE
  5
A
330
0
100
AcDbSymbolTable
 70
    1
100
AcDbDimStyleTable
 71
    1
  0
DIMSTYLE
105
4D
330
A
100
AcDbSymbolTableRecord
100
AcDbDimStyleTableRecord
  2
Standard
 70
    0
 40
1
 41
0.18
 42
0.0625
 43
0.38
 44
0.18
 45
0
 46
0
 47
0
 48
0
 49
1
140
0.18
141
0.09
142
0
143
25.4
144
1
145
0
146
1
147
0.09
148
0
 71
    0
 72
    0
 73
    1
 74
    1
 75
    0
 76
    0
 77
    0
 78
    0
 79
    0
170
    0
171
    2
172
    0
173
    0
174
    0
175
    0
176
    0
177
    0
178
    0
179
    0
271
    4
272
    4
273
    2
274
    2
275
    0
276
    0
277
    2
278
    0
279
    0
280
    0
281
    0
282
    0
283
    1
284
    0
285
    0
286
    0
288
    0
289
    3
340
standard
341

371
   -2
372
   -2
  0
ENDTAB
  0
TABLE
  2
BLOCK_RECORD
  5
1
330
0
100
AcDbSymbolTable
 70
    2
  0
BLOCK_RECORD
  5
1F
330
1
100
AcDbSymbolTableRecord
100
AcDbBlockTableRecord
  2
*Model_Space
 70
    0
280
    1
281
    0
  0
BLOCK_RECORD
  5
1E
330
1
100
AcDbSymbolTableRecord
100
AcDbBlockTableRecord
  2
*Paper_Space
 70
    0
280
    1
281
    0
  0
ENDTAB
  0
ENDSEC
  0
SECTION
  2
BLOCKS
  0
BLOCK
  5
20
330
1F
100
AcDbEntity
  8
0
100
AcDbBlockBegin
  2
*Model_Space
 70
    0
 10
0
 20
0
 30
0
  3
*Model_Space
  1

  0
ENDBLK
  5
21
330
1F
100
AcDbEntity
  8
0
100
AcDbBlockEnd
  0
BLOCK
  5
1C
330
1B
100
AcDbEntity
  8
0
100
AcDbBlockBegin
  2
*Paper_Space
 70
    0
 10
0
 20
0
 30
0
  3
*Paper_Space
  1

  0
ENDBLK
  5
1D
330
1F
100
AcDbEntity
  8
0
100
AcDbBlockEnd
  0
ENDSEC
  0
SECTION
  2
ENTITIES
  0
LWPOLYLINE
  5
4E
100
AcDbEntity
  8
CLAMPBASE
  6
ByLayer
 62
  256
370
   -1
100
AcDbPolyline
 90
    8
 70
    1
 43
0
 10
-15.3273993613677
 20
-25.3188831276795
 42
0.414213562373095
 10
-10.32739936136776
 20
-20.3188831276795
 10
-10.32739936136776
 20
19.6811168723205
 42
0.4142135623730948
 10
-15.3273993613677
 20
24.6811168723205
 10
-25.32739936136768
 20
24.6811168723205
 42
0.414213562373095
 10
-30.32739936136765
 20
19.6811168723205
 10
-30.32739936136765
 20
-20.3188831276795
 42
0.414213562373095
 10
-25.32739936136768
 20
-25.3188831276795
  0
LWPOLYLINE
  5
4F
100
AcDbEntity
  8
CLAMPBASE
  6
ByLayer
 62
  256
370
   -1
100
AcDbPolyline
 90
    8
 70
    1
 43
0
 10
25.56338466557426
 20
-25.3188831276795
 42
0.414213562373095
 10
30.56338466557429
 20
-20.3188831276795
 10
30.56338466557429
 20
19.6811168723205
 42
0.414213562373095
 10
25.56338466557429
 20
24.6811168723205
 10
-2.436615334425769
 20
24.6811168723205
 42
0.4142135623730951
 10
-7.436615334425776
 20
19.6811168723205
 10
-7.436615334425772
 20
-20.3188831276795
 42
0.414213562373095
 10
-2.436615334425772
 20
-25.3188831276795
  0
LWPOLYLINE
  5
50
100
AcDbEntity
  8
CLAMPBASE
  6
ByLayer
 62
  256
370
   -1
100
AcDbPolyline
 90
    4
 70
    1
 43
0
 10
23.56338466557428
 20
-18.2688831276795
 42
0.4142135623730955
 10
21.51338466557428
 20
-20.3188831276795
 42
0.414213562373095
 10
23.56338466557428
 20
-22.3688831276795
 42
0.414213562373095
 10
25.61338466557427
 20
-20.3188831276795
 42
0.414213562373095
  0
LWPOLYLINE
  5
51
100
AcDbEntity
  8
CLAMPBASE
  6
ByLayer
 62
  256
370
   -1
100
AcDbPolyline
 90
    4
 70
    1
 43
0
 10
7.563384665574262
 20
-8.268883127679487
 42
0.414213562373095
 10
5.513384665574264
 20
-10.3188831276795
 42
0.414213562373095
 10
7.56338466557426
 20
-12.36888312767951
 42
0.4142135623730953
 10
9.613384665574259
 20
-10.3188831276795
 42
0.4142135623730953
  0
LWPOLYLINE
  5
52
100
AcDbEntity
  8
CLAMPBASE
  6
ByLayer
 62
  256
370
   -1
100
AcDbPolyline
 90
    4
 70
    1
 43
0
 10
7.563384665574262
 20
11.73111687232051
 42
0.414213562373095
 10
5.513384665574264
 20
9.681116872320501
 42
0.414213562373095
 10
7.56338466557426
 20
7.63111687232049
 42
0.4142135623730953
 10
9.613384665574259
 20
9.681116872320501
 42
0.414213562373095
  0
LWPOLYLINE
  5
53
100
AcDbEntity
  8
CLAMPBASE
  6
ByLayer
 62
  256
370
   -1
100
AcDbPolyline
 90
    4
 70
    1
 43
0
 10
23.56338466557428
 20
21.73111687232051
 42
0.4142135623730955
 10
21.51338466557428
 20
19.6811168723205
 42
0.414213562373095
 10
23.56338466557428
 20
17.63111687232049
 42
0.414213562373095
 10
25.61338466557427
 20
19.6811168723205
 42
0.414213562373095
  0
LWPOLYLINE
  5
54
100
AcDbEntity
  8
CLAMPBASE
  6
ByLayer
 62
  256
370
   -1
100
AcDbPolyline
 90
    4
 70
    1
 43
0
 10
-15.32739936136773
 20
12.23111687232051
 42
0.414213562373095
 10
-17.87739936136773
 20
9.681116872320501
 42
0.4142135623730953
 10
-15.32739936136773
 20
7.13111687232049
 42
0.414213562373095
 10
-12.77739936136773
 20
9.6811168723205
 42
0.414213562373095
  0
LWPOLYLINE
  5
55
100
AcDbEntity
  8
CLAMPBASE
  6
ByLayer
 62
  256
370
   -1
100
AcDbPolyline
 90
    4
 70
    1
 43
0
 10
-15.32739936136773
 20
-7.768883127679487
 42
0.4142135623730951
 10
-17.87739936136773
 20
-10.3188831276795
 42
0.414213562373095
 10
-15.32739936136773
 20
-12.86888312767951
 42
0.414213562373095
 10
-12.77739936136773
 20
-10.3188831276795
 42
0.414213562373095
  0
LWPOLYLINE
  5
56
100
AcDbEntity
  8
CLAMPBASE
  6
ByLayer
 62
  256
370
   -1
100
AcDbPolyline
 90
    6
 70
    1
 43
0
 10
-61.44856268055376
 20
22.54999999999996
 42
0.4142135623730958
 10
-63.99856268055375
 20
19.99999999999996
 42
0.4142135623730954
 10
-61.44856268055378
 20
17.44999999999996
 10
-44.9485626805539
 20
17.44999999999996
 42
0.4142135623730955
 10
-42.39856268055393
 20
19.99999999999996
 42
0.4142135623730955
 10
-44.9485626805539
 20
22.54999999999996
  0
LWPOLYLINE
  5
57
100
AcDbEntity
  8
CLAMPBASE
  6
ByLayer
 62
  256
370
   -1
100
AcDbPolyline
 90
    6
 70
    1
 43
0
 10
-61.44856268055374
 20
-17.44999999999995
 42
0.414213562373095
 10
-63.99856268055371
 20
-19.99999999999995
 42
0.4142135623730944
 10
-61.44856268055375
 20
-22.54999999999995
 10
-44.94856268055387
 20
-22.54999999999995
 42
0.414213562373095
 10
-42.3985626805539
 20
-19.99999999999995
 42
0.414213562373095
 10
-44.94856268055387
 20
-17.44999999999995
  0
LWPOLYLINE
  5
58
100
AcDbEntity
  8
CLAMPBASE
  6
ByLayer
 62
  256
370
   -1
100
AcDbPolyline
 90
   10
 70
    1
 43
0
 10
-131.8233894065061
 20
3.592914479758623
 10
-131.823471109049
 20
-3.654168881259348
 10
-109.0400467978444
 20
-25.62504817686736
 10
-103.4520467978444
 20
-25.62504817686731
 10
-103.4520467978442
 20
-12.41704817686734
 10
-109.0400467978444
 20
-12.41704817686744
 10
-109.0400467978444
 20
12.4170481768674
 10
-103.4520467978444
 20
12.41704817686734
 10
-103.4520467978444
 20
25.62504817686723
 10
-109.0400467978442
 20
25.62504817686736
  0
LWPOLYLINE
  5
59
100
AcDbEntity
  8
CLAMPBASE
  6
ByLayer
 62
  256
370
   -1
100
AcDbPolyline
 90
   10
 70
    1
 43
0
 10
-105.7004835869921
 20
3.592914479758623
 10
-105.700565289535
 20
-3.654168881259348
 10
-82.91714097833079
 20
-25.62504817686736
 10
-77.32914097833086
 20
-25.62504817686731
 10
-77.32914097833066
 20
-12.41704817686734
 10
-82.91714097833079
 20
-12.41704817686744
 10
-82.91714097833076
 20
12.4170481768674
 10
-77.32914097833086
 20
12.41704817686734
 10
-77.32914097833086
 20
25.62504817686723
 10
-82.91714097833062
 20
25.62504817686736
  0
LWPOLYLINE
  5
5A
100
AcDbEntity
  8
CLAMPBASE
  6
ByLayer
 62
  256
370
   -1
100
AcDbPolyline
 90
   24
 70
    1
 43
0
 10
-33.19856268055375
 20
12.2311168723205
 10
-48.90956788718729
 20
12.2311168723205
 42
0.414213562373095
 10
-51.45956788718726
 20
9.681116872320507
 42
0.4142135623730949
 10
-48.90956788718731
 20
7.131116872320501
 10
-33.19856268055375
 20
7.1311168723205
 10
-33.19856268055374
 20
-7.768883127679498
 10
-48.90956788718727
 20
-7.768883127679499
 42
0.4142135623730951
 10
-51.45956788718723
 20
-10.3188831276795
 42
0.4142135623730954
 10
-48.90956788718728
 20
-12.8688831276795
 10
-33.19856268055374
 20
-12.8688831276795
 10
-33.19856268055374
 20
-22.5
 42
-0.4142135623730948
 10
-43.19856268055376
 20
-32.50000922127239
 10
-58.89456268055373
 20
-32.50001844254479
 10
-58.89456268055373
 20
-27.16601844254475
 10
-72.86456268055383
 20
-27.16601844254475
 10
-72.86456268055383
 20
-9.779012264701208
 10
-78.19856268055355
 20
-9.779012264701208
 10
-78.19856268055386
 20
9.778987735298557
 10
-72.86456268055386
 20
9.778987735298557
 10
-72.86456268055386
 20
27.16601844254475
 10
-58.89456268055373
 20
27.16601844254475
 10
-58.89456268055373
 20
32.50001844254479
 10
-43.19856268055377
 20
32.50000922127239
 42
-0.4142135623730953
 10
-33.19856268055376
 20
22.5
  0
LWPOLYLINE
  5
5B
100
AcDbEntity
  8
CLAMPBASE
  6
ByLayer
 62
  256
370
   -1
100
AcDbPolyline
 90
  224
 70
    1
 43
0
 10
54.77130042873769
 20
-32.50002554828571
 10
57.18330566087009
 20
-32.50001675247483
 10
57.18330566086782
 20
-27.00000200259945
 10
70.48330566086787
 20
-27.00000200259945
 10
70.48330566088484
 20
-32.50001656149991
 10
95.31679984695555
 20
-32.50000216521492
 10
95.31679984695535
 20
-27.00000200259945
 10
108.6167998469554
 20
-27.00000200259945
 10
108.6167998469551
 20
-32.50000221851545
 10
111.0479259646598
 20
-32.50001068789618
 10
112.6972859966051
 20
-32.50001808610079
 10
113.0250790242276
 20
-32.49587060696111
 10
113.3508269511257
 20
-32.48349377798955
 10
113.6744300313907
 20
-32.4629873449601
 10
113.9957885191138
 20
-32.4344510536467
 10
114.3148026683863
 20
-32.39798464982329
 10
114.6313727332993
 20
-32.35368787926385
 10
114.9453989679442
 20
-32.30166048774232
 10
115.2567816264121
 20
-32.24200222103265
 10
115.5654209627943
 20
-32.17481282490879
 10
115.8712172311821
 20
-32.1001920451447
 10
116.1740706856665
 20
-32.01823962751433
 10
116.473881580339
 20
-31.92905531779164
 10
116.7705501692907
 20
-31.83273886175057
 10
117.0639767066129
 20
-31.72939000516509
 10
117.3540614463968
 20
-31.61910849380913
 10
117.6407046427336
 20
-31.50199407345665
 10
117.9238065497146
 20
-31.37814648988162
 10
118.203267421431
 20
-31.24766548885797
 10
118.7508670754349
 20
-30.96720221756066
 10
119.2827056374752
 20
-30.66140222575635
 10
119.7979851402819
 20
-30.33106347963667
 10
120.2959076165848
 20
-29.97698394539322
 10
120.7756750991138
 20
-29.59996158921764
 10
121.2364896205987
 20
-29.20079437730155
 10
121.6775532137695
 20
-28.78028027583657
 10
122.098067911356
 20
-28.33921725101432
 10
122.4972357460881
 20
-27.87840326902643
 10
122.8742587506957
 20
-27.39863629606452
 10
123.2283389579087
 20
-26.90071429832022
 10
123.5586784004569
 20
-26.38543524198514
 10
123.8644791110702
 20
-25.8535970932509
 10
124.1449431224786
 20
-25.30599781830914
 10
124.275424501209
 20
-25.02653712294533
 10
124.3992724674118
 20
-24.74343538335148
 10
124.5163872751783
 20
-24.45679234530157
 10
124.6266691785998
 20
-24.16670775456954
 10
124.7300184317675
 20
-23.87328135692934
 10
124.8263352887725
 20
-23.57661289815493
 10
124.9155200037061
 20
-23.27680212402026
 10
124.9974728306597
 20
-22.97394878029929
 10
125.0720940237243
 20
-22.66815261276597
 10
125.1392838369913
 20
-22.35951336719424
 10
125.1989425245518
 20
-22.04813078935807
 10
125.2509703404972
 20
-21.7341046250314
 10
125.2952675389186
 20
-21.41753461998818
 10
125.3317343739073
 20
-21.09852052000238
 10
125.3602710995545
 20
-20.77716207084795
 10
125.3807779699514
 20
-20.45355901829883
 10
125.3931552391893
 20
-20.12781110812897
 10
125.3973031613595
 20
-19.80001808611235
 10
125.3973031613595
 20
19.80000158564161
 10
125.3931552631245
 20
20.12779362826744
 10
125.3807780650094
 20
20.4535405777423
 10
125.3602713118992
 20
20.77714268889204
 10
125.3317347486785
 20
21.0985002165425
 10
125.2952681202322
 20
21.41751341551955
 10
125.2509711714452
 20
21.73408254064902
 10
125.1989436472024
 20
22.04810784675677
 10
125.1392852923885
 20
22.35948958866865
 10
125.0720958518883
 20
22.66812802121052
 10
124.9974750705868
 20
22.97392339920822
 10
124.9155226933688
 20
23.2767759774876
 10
124.826338465119
 20
23.57658601087452
 10
124.7300221307224
 20
23.87325375419483
 10
124.6266734350637
 20
24.16667946227437
 10
124.5163921230279
 20
24.456763389939
 10
124.3992779394997
 20
24.74340579201457
 10
124.275430629364
 20
25.02650692332693
 10
124.1449499375056
 20
25.30596703870193
 10
123.86448738816
 20
25.85356524094327
 10
123.5586882505418
 20
26.38540243734539
 10
123.2283504837296
 20
26.9006806665151
 10
122.8742720468021
 20
27.39860196705921
 10
122.4972508988379
 20
27.87836837758452
 10
122.0980849989159
 20
28.33918193669785
 10
121.6775723061146
 20
28.780244683006
 10
121.2365107795127
 20
29.20075865511578
 10
120.775698378189
 20
29.59992589163401
 10
120.2959330612222
 20
29.97694843116748
 10
119.798012787691
 20
30.33102831232302
 10
119.2827355166739
 20
30.66136757370742
 10
118.7508992072498
 20
30.9671682539275
 10
118.2033018184973
 20
31.24763239159006
 10
117.9238420815851
 20
31.3781138940269
 10
117.6407413094952
 20
31.50196202530191
 10
117.3540992471126
 20
31.61907704024095
 10
117.064015639322
 20
31.72935919366987
 10
116.7705902310084
 20
31.83270874041452
 10
116.4739227670566
 20
31.92902593530074
 10
116.1741129923514
 20
32.01821103315439
 10
115.8712606517776
 20
32.10016428880132
 10
115.5654654902201
 20
32.17478595706739
 10
115.2568272525637
 20
32.24197629277843
 10
114.9454456836932
 20
32.30163555076032
 10
114.6314205284935
 20
32.35366398583889
 10
114.3148515318495
 20
32.39796185283999
 10
113.9958384386458
 20
32.43442940658948
 10
113.6744809937675
 20
32.46296690191321
 10
113.3508789420994
 20
32.48347459363703
 10
113.0251320285261
 20
32.49585273658678
 10
112.6973399979327
 20
32.50000158558834
 10
111.0479259646598
 20
32.50001574178842
 10
108.5710875796506
 20
32.50003206733218
 10
108.5710875796412
 20
27.00002882692626
 10
95.27108757964116
 20
27.00002882692626
 10
95.27108757964069
 20
32.50003244347859
 10
70.49653506466544
 20
32.50003290156296
 10
70.49653506466552
 20
27.0000318180524
 10
57.19653506466551
 20
27.0000318180524
 10
57.19653506466057
 20
32.50003352366259
 10
54.77130042873769
 20
32.5000165203714
 10
53.09726632488989
 20
32.50000158548443
 10
52.76947429429457
 20
32.49585273648551
 10
52.44372738071942
 20
32.48347459353828
 10
52.12012532904926
 20
32.46296690181688
 10
51.79876788416895
 20
32.43442940649547
 10
51.47975479096333
 20
32.3979618527482
 10
51.16318579431722
 20
32.35366398574921
 10
50.84916063911547
 20
32.30163555067265
 10
50.53777907024291
 20
32.24197629269268
 10
50.22914083258439
 20
32.17478595698344
 10
49.92334567102474
 20
32.10016428871909
 10
49.62049333044881
 20
32.01821103307378
 10
49.32068355574143
 20
31.92902593522164
 10
49.02401609178744
 20
31.83270874033684
 10
48.73059068347168
 20
31.72935919359352
 10
48.44050707567897
 20
31.61907704016585
 10
48.15386501329418
 20
31.50196202522795
 10
47.87076424120214
 20
31.378113893954
 10
47.59130450428767
 20
31.24763239151812
 10
47.04370711553085
 20
30.96716825385723
 10
46.51187080610242
 20
30.66136757363849
 10
45.9965935350811
 20
30.33102831225509
 10
45.49867326154559
 20
29.97694843110023
 10
45.01890794457461
 20
29.59992589156711
 10
44.55809554324687
 20
29.20075865504894
 10
44.11703401664107
 20
28.78024468293892
 10
43.69652132383592
 20
28.33918193663025
 10
43.29735542391013
 20
27.87836837751611
 10
42.92033427594242
 20
27.39860196698973
 10
42.56625583901149
 20
26.90068066644429
 10
42.23591807219604
 20
26.38540243727301
 10
41.93011893457481
 20
25.85356524086907
 10
41.64965638522648
 20
25.30596703862568
 10
41.51917569336675
 20
25.02650692324957
 10
41.39532838322976
 20
24.74340579193604
 10
41.27821419970035
 20
24.45676338985926
 10
41.16793288766337
 20
24.16667946219336
 10
41.06458419200365
 20
23.8732537541125
 10
40.96826785760603
 20
23.57658601079082
 10
40.87908362935535
 20
23.27677597740249
 10
40.79713125213644
 20
22.97392339912164
 10
40.72251047083414
 20
22.66812802112243
 10
40.65532103033329
 20
22.35948958857901
 10
40.59566267551874
 20
22.04810784666553
 10
40.54363515127531
 20
21.73408254055613
 10
40.49933820248786
 20
21.41751341542498
 10
40.46287157404121
 20
21.09850021644621
 10
40.43433501082021
 20
20.77714268879399
 10
40.4138282577097
 20
20.45354057764245
 10
40.4014510595945
 20
20.12779362816575
 10
40.39730316135947
 20
19.80000158553804
 10
40.39730316135947
 20
-19.8000332906417
 10
40.40145107679047
 20
-20.12782603690271
 10
40.41382832600314
 20
-20.45357367658092
 10
40.43433516337703
 20
-20.77717646407124
 10
40.46287184329164
 20
-21.09853465376861
 10
40.49933862012654
 20
-21.41754850006795
 10
40.54363574826124
 20
-21.73411825736419
 10
40.59566348207527
 20
-22.04814418005226
 10
40.65532207594816
 20
-22.35952652252709
 10
40.72251178425946
 20
-22.66816553918359
 10
40.79713286138868
 20
-22.97396148441671
 10
40.87908556171536
 20
-23.27681461262135
 10
40.96827013961903
 20
-23.57662517819246
 10
41.06458684947922
 20
-23.87329343552496
 10
41.16793594567547
 20
-24.16671963901377
 10
41.2782176825873
 20
-24.45680404305383
 10
41.39533231459424
 20
-24.74344690204006
 10
41.51918009607583
 20
-25.02654847036738
 10
41.6496612814116
 20
-25.30600900243072
 10
41.93012488116381
 20
-25.85360797534519
 10
42.23592514888709
 20
-26.38544585594287
 10
42.56626411961771
 20
-26.90072467938318
 10
42.92034382839192
 20
-27.39864648082554
 10
43.29736631024596
 20
-27.87841329542936
 10
43.6965336002161
 20
-28.33922715835406
 10
44.11704773333857
 20
-28.78029010475905
 10
44.55811074464962
 20
-29.20080416980375
 10
45.01892466918551
 20
-29.59997138864756
 10
45.4986915419825
 20
-29.97699379644992
 10
45.99661339807681
 20
-30.33107342837023
 10
46.51189227250471
 20
-30.66141231956791
 10
47.04373020030245
 20
-30.96721250520238
 10
47.59132921650628
 20
-31.24767602043304
 10
47.8707897687093
 20
-31.37815716263426
 10
48.15389135615244
 20
-31.50200490041932
 10
48.44053423321523
 20
-31.61911948818313
 10
48.73061865427719
 20
-31.72940118032063
 10
49.02404487371787
 20
-31.83275023122673
 10
49.32071314591678
 20
-31.92906689529638
 10
49.62052372525347
 20
-32.01825142692449
 10
49.92337686610746
 20
-32.10020408050599
 10
50.22917282285829
 20
-32.17482511043582
 10
50.53781184988547
 20
-32.24201477110888
 10
50.84919420156856
 20
-32.30167331692012
 10
51.16322013228707
 20
-32.35370100226447
 10
51.47978989642054
 20
-32.39799808153683
 10
51.7988037483485
 20
-32.43446480913215
 10
52.12016194245049
 20
-32.46300143944536
 10
52.44376473310604
 20
-32.48350822687136
 10
52.76951237469466
 20
-32.49588542580511
 10
53.09730512159589
 20
-32.50003329064151
  0
LWPOLYLINE
  5
5C
100
AcDbEntity
  8
CLAMPBASE
  6
ByLayer
 62
  256
370
   -1
100
AcDbPolyline
 90
    4
 70
    1
 43
0
 10
54.43415535738558
 20
2.965923603483268
 42
0.4142135623730954
 10
51.48415535738556
 20
0.0159236034832755
 42
0.4142135623730954
 10
54.43415535738557
 20
-2.93407639651672
 42
0.414213562373095
 10
57.38415535738557
 20
0.01592360348327368
 42
0.414213562373095
  0
LWPOLYLINE
  5
5D
100
AcDbEntity
  8
CLAMPBASE
  6
ByLayer
 62
  256
370
   -1
100
AcDbPolyline
 90
    4
 70
    1
 43
0
 10
111.3446801938101
 20
2.960615735655464
 42
0.414213562373095
 10
108.3946801938101
 20
0.01061573565546907
 42
0.414213562373095
 10
111.3446801938101
 20
-2.939384264344526
 42
0.414213562373095
 10
114.2946801938101
 20
0.01061573565546865
 42
0.414213562373095
  0
LWPOLYLINE
  5
5E
100
AcDbEntity
  8
CLAMPBASE
  6
ByLayer
 62
  256
370
   -1
100
AcDbPolyline
 90
    4
 70
    1
 43
0
 10
80.19644171708192
 20
-10
 10
85.64644171708193
 20
-10
 10
85.64644171708193
 20
10
 10
80.19644171708192
 20
10
  0
LWPOLYLINE
  5
5F
100
AcDbEntity
  8
CLAMPBASE
  6
ByLayer
 62
  256
370
   -1
100
AcDbPolyline
 90
    4
 70
    1
 43
0
 10
-106.774
 20
-2.714811573179265
 10
-96.77400000000003
 20
-2.714811573179265
 10
-96.77400000000003
 20
2.735188426820735
 10
-106.774
 20
2.735188426820735
  0
LWPOLYLINE
  5
60
100
AcDbEntity
  8
CLAMPBASE
  6
ByLayer
 62
  256
370
   -1
100
AcDbPolyline
 90
    4
 70
    1
 43
0
 10
-132.897
 20
-2.717682647140669
 10
-122.897
 20
-2.717682647140669
 10
-122.897
 20
2.732317352859331
 10
-132.897
 20
2.732317352859331
  0
ENDSEC
  0
SECTION
  2
OBJECTS
  0
DICTIONARY
  5
C
330
0
100
AcDbDictionary
281
    1
  3
ACAD_GROUP
350
D
  0
DICTIONARY
  5
D
330
C
100
AcDbDictionary
281
    1
  0
ENDSEC
  0
EOF
