999
dxfrw 0.6.3
  0
SECTION
  2
HEADER
  9
$ACADVER
  1
AC1021
  9
$DWGCODEPAGE
  3
ANSI_1252
  9
$INSBASE
 10
0
 20
0
 30
0
  9
$EXTMIN
 10
-73.32056298265194
 20
-33.0703873225093
 30
0
  9
$EXTMAX
 10
73.32056298265195
 20
33.0703873225093
 30
0
  9
$LIMMIN
 10
0
 20
0
  9
$LIMMAX
 10
12
 20
9
  9
$ORTHOMODE
 70
    0
  9
$REGENMODE
 70
    1
  9
$FILLMODE
 70
    1
  9
$QTEXTMODE
 70
    0
  9
$MIRRTEXT
 70
    1
  9
$LTSCALE
 40
1
  9
$ATTMODE
 70
    1
  9
$TEXTSIZE
 40
0.2
  9
$TRACEWID
 40
0.05
  9
$TEXTSTYLE
  7
STANDARD
  9
$CLAYER
  8
0
  9
$CELTYPE
  6
BYLAYER
  9
$CECOLOR
 62
  256
  9
$CELTSCALE
 40
1
  9
$DISPSILH
 70
    0
  9
$DIMSCALE
 40
1
  9
$DIMASZ
 40
0.18
  9
$DIMEXO
 40
0.0625
  9
$DIMDLI
 40
0.38
  9
$DIMRND
 40
0
  9
$DIMDLE
 40
0
  9
$DIMEXE
 40
0.18
  9
$DIMTP
 40
0
  9
$DIMTM
 40
0
  9
$DIMTXT
 40
0.18
  9
$DIMCEN
 40
0.09
  9
$DIMTSZ
 40
0
  9
$DIMTOL
 70
    0
  9
$DIMLIM
 70
    0
  9
$DIMTIH
 70
    1
  9
$DIMTOH
 70
    1
  9
$DIMSE1
 70
    0
  9
$DIMSE2
 70
    0
  9
$DIMTAD
 70
    0
  9
$DIMZIN
 70
    0
  9
$DIMBLK
  1

  9
$DIMASO
 70
    1
  9
$DIMSHO
 70
    1
  9
$DIMPOST
  1

  9
$DIMAPOST
  1

  9
$DIMALT
 70
    0
  9
$DIMALTD
 70
    2
  9
$DIMALTF
 40
25.4
  9
$DIMLFAC
 40
1
  9
$DIMTOFL
 70
    0
  9
$DIMTVP
 40
0
  9
$DIMTIX
 70
    0
  9
$DIMSOXD
 70
    0
  9
$DIMSAH
 70
    0
  9
$DIMBLK1
  1

  9
$DIMBLK2
  1

  9
$DIMSTYLE
  2
STANDARD
  9
$DIMCLRD
 70
    0
  9
$DIMCLRE
 70
    0
  9
$DIMCLRT
 70
    0
  9
$DIMTFAC
 40
1
  9
$DIMGAP
 40
0.09
  9
$DIMJUST
 70
    0
  9
$DIMSD1
 70
    0
  9
$DIMSD2
 70
    0
  9
$DIMTOLJ
 70
    0
  9
$DIMTZIN
 70
    8
  9
$DIMALTZ
 70
    0
  9
$DIMALTTZ
 70
    0
  9
$DIMUPT
 70
    0
  9
$DIMDEC
 70
    4
  9
$DIMTDEC
 70
    2
  9
$DIMALTU
 70
    2
  9
$DIMALTTD
 70
    3
  9
$DIMTXSTY
  7
STANDARD
  9
$DIMAUNIT
 70
    0
  9
$DIMADEC
 70
    0
  9
$DIMALTRND
 40
0
  9
$DIMAZIN
 70
    0
  9
$DIMDSEP
 70
   44
  9
$DIMATFIT
 70
    3
  9
$DIMFRAC
 70
    0
  9
$DIMLDRBLK
  1
STANDARD
  9
$DIMLUNIT
 70
    2
  9
$DIMLWD
 70
   -2
  9
$DIMLWE
 70
   -2
  9
$DIMTMOVE
 70
    0
  9
$DIMFXL
 40
1
  9
$DIMFXLON
 70
    0
  9
$DIMJOGANG
 40
0.7854
  9
$DIMTFILL
 70
    0
  9
$DIMTFILLCLR
 70
    0
  9
$DIMARCSYM
 70
    0
  9
$DIMLTYPE
  6

  9
$DIMLTEX1
  6

  9
$DIMLTEX2
  6

  9
$LUNITS
 70
    2
  9
$LUPREC
 70
    4
  9
$SKETCHINC
 40
0.1
  9
$FILLETRAD
 40
0.5
  9
$AUNITS
 70
    0
  9
$AUPREC
 70
    0
  9
$MENU
  1
.
  9
$ELEVATION
 40
0
  9
$PELEVATION
 40
0
  9
$THICKNESS
 40
0
  9
$LIMCHECK
 70
    0
  9
$CHAMFERA
 40
0.5
  9
$CHAMFERB
 40
0.5
  9
$CHAMFERC
 40
0
  9
$CHAMFERD
 40
0
  9
$SKPOLY
 70
    0
  9
$USRTIMER
 70
    1
  9
$ANGBASE
 50
0
  9
$ANGDIR
 70
    0
  9
$PDMODE
 70
    0
  9
$PDSIZE
 40
0
  9
$PLINEWID
 40
0
  9
$SPLFRAME
 70
    0
  9
$SPLINETYPE
 70
    6
  9
$SPLINESEGS
 70
    8
  9
$HANDSEED
  5
20000
  9
$SURFTAB1
 70
    6
  9
$SURFTAB2
 70
    6
  9
$SURFTYPE
 70
    6
  9
$SURFU
 70
    6
  9
$SURFV
 70
    6
  9
$UCSBASE
  2

  9
$UCSNAME
  2

  9
$UCSORG
 10
0
 20
0
 30
0
  9
$UCSXDIR
 10
1
 20
0
 30
0
  9
$UCSYDIR
 10
0
 20
1
 30
0
  9
$UCSORTHOREF
  2

  9
$UCSORTHOVIEW
 70
    0
  9
$UCSORGTOP
 10
0
 20
0
 30
0
  9
$UCSORGBOTTOM
 10
0
 20
0
 30
0
  9
$UCSORGLEFT
 10
0
 20
0
 30
0
  9
$UCSORGRIGHT
 10
0
 20
0
 30
0
  9
$UCSORGFRONT
 10
0
 20
0
 30
0
  9
$UCSORGBACK
 10
0
 20
0
 30
0
  9
$PUCSBASE
  2

  9
$PUCSNAME
  2

  9
$PUCSORG
 10
0
 20
0
 30
0
  9
$PUCSXDIR
 10
1
 20
0
 30
0
  9
$PUCSYDIR
 10
0
 20
1
 30
0
  9
$PUCSORTHOREF
  2

  9
$PUCSORTHOVIEW
 70
    0
  9
$PUCSORGTOP
 10
0
 20
0
 30
0
  9
$PUCSORGBOTTOM
 10
0
 20
0
 30
0
  9
$PUCSORGLEFT
 10
0
 20
0
 30
0
  9
$PUCSORGRIGHT
 10
0
 20
0
 30
0
  9
$PUCSORGFRONT
 10
0
 20
0
 30
0
  9
$PUCSORGBACK
 10
0
 20
0
 30
0
  9
$USERI1
 70
    0
  9
$USERI2
 70
    0
  9
$USERI3
 70
    0
  9
$USERI4
 70
    0
  9
$USERI5
 70
    0
  9
$USERR1
 40
0
  9
$USERR2
 40
0
  9
$USERR3
 40
0
  9
$USERR4
 40
0
  9
$USERR5
 40
0
  9
$WORLDVIEW
 70
    1
  9
$SHADEDGE
 70
    3
  9
$SHADEDIF
 70
   70
  9
$TILEMODE
 70
    1
  9
$MAXACTVP
 70
   64
  9
$PINSBASE
 10
0
 20
0
 30
0
  9
$PLIMCHECK
 70
    0
  9
$PEXTMIN
 10
1e+020
 20
1e+020
 30
1e+020
  9
$PEXTMAX
 10
-1e+020
 20
-1e+020
 30
-1e+020
  9
$GRIDMODE
 70
    0
  9
$SNAPSTYLE
 70
    0
  9
$PLIMMIN
 10
0
 20
0
  9
$PLIMMAX
 10
12
 20
9
  9
$UNITMODE
 70
    0
  9
$VISRETAIN
 70
    1
  9
$PLINEGEN
 70
    0
  9
$PSLTSCALE
 70
    1
  9
$TREEDEPTH
 70
 3020
  9
$CMLSTYLE
  2
Standard
  9
$CMLJUST
 70
    0
  9
$CMLSCALE
 40
20
  9
$PROXYGRAPHICS
 70
    1
  9
$MEASUREMENT
 70
    1
  9
$CELWEIGHT
370
   -1
  9
$ENDCAPS
280
    0
  9
$JOINSTYLE
280
    0
  9
$LWDISPLAY
290
    0
  9
$INSUNITS
 70
    4
  9
$HYPERLINKBASE
  1

  9
$STYLESHEET
  1

  9
$XEDIT
290
    1
  9
$CEPSNTYPE
380
    0
  9
$PSTYLEMODE
290
    1
  9
$EXTNAMES
290
    1
  9
$PSVPSCALE
 40
1
  9
$OLESTARTUP
290
    0
  9
$SORTENTS
280
  127
  9
$INDEXCTL
280
    0
  9
$HIDETEXT
280
    1
  9
$XCLIPFRAME
290
    0
  9
$HALOGAP
280
    0
  9
$OBSCOLOR
 70
  257
  9
$OBSLTYPE
280
    0
  9
$INTERSECTIONDISPLAY
280
    0
  9
$INTERSECTIONCOLOR
 70
  257
  9
$DIMASSOC
280
    1
  9
$PROJECTNAME
  1

  9
$CAMERADISPLAY
290
    0
  9
$LENSLENGTH
 40
50
  9
$CAMERAHEIGHT
 40
0
  9
$STEPSPERSEC
 40
2
  9
$STEPSIZE
 40
50
  9
$3DDWFPREC
 40
2
  9
$PSOLWIDTH
 40
5
  9
$PSOLHEIGHT
 40
80
  9
$LOFTANG1
 40
1.570796326794897
  9
$LOFTANG2
 40
1.570796326794897
  9
$LOFTMAG1
 40
0
  9
$LOFTMAG2
 40
0
  9
$LOFTPARAM
 70
    7
  9
$LOFTNORMALS
280
    1
  9
$LATITUDE
 40
1
  9
$LONGITUDE
 40
1
  9
$NORTHDIRECTION
 40
0
  9
$TIMEZONE
 70
-8000
  9
$LIGHTGLYPHDISPLAY
280
    1
  9
$TILEMODELIGHTSYNCH
280
    1
  9
$SOLIDHIST
280
    1
  9
$SHOWHIST
280
    1
  9
$DWFFRAME
280
    2
  9
$DGNFRAME
280
    0
  9
$REALWORLDSCALE
290
    1
  9
$INTERFERECOLOR
 62
    1
  9
$CSHADOW
280
    0
  9
$SHADOWPLANELOCATION
 40
0
  0
ENDSEC
  0
SECTION
  2
CLASSES
  0
ENDSEC
  0
SECTION
  2
TABLES
  0
TABLE
  2
VPORT
  5
8
330
0
100
AcDbSymbolTable
 70
    1
  0
VPORT
  5
31
330
2
100
AcDbSymbolTableRecord
100
AcDbViewportTableRecord
  2
*ACTIVE
 70
    0
 10
0
 20
0
 11
1
 21
1
 12
58.6643556616686
 22
22.57316441667292
 13
0
 23
0
 14
10
 24
10
 15
10
 25
10
 16
0
 26
0
 36
1
 17
0
 27
0
 37
0
 40
108.532291951797
 41
1.904648390941597
 42
50
 43
0
 44
0
 50
0
 51
0
 71
    0
 72
  100
 73
    1
 74
    3
 75
    0
 76
    0
 77
    0
 78
    0
281
    0
 65
    1
110
0
120
0
130
0
111
1
121
0
131
0
112
0
122
1
132
0
 79
    0
146
0
348
10020
 60
    7
 61
    5
292
1
282
    1
141
0
142
0
 63
  250
421
3358443
  0
ENDTAB
  0
TABLE
  2
LTYPE
  5
5
330
0
100
AcDbSymbolTable
 70
    4
  0
LTYPE
  5
14
330
5
100
AcDbSymbolTableRecord
100
AcDbLinetypeTableRecord
  2
ByBlock
 70
    0
  3

 72
   65
 73
    0
 40
0
  0
LTYPE
  5
15
330
5
100
AcDbSymbolTableRecord
100
AcDbLinetypeTableRecord
  2
ByLayer
 70
    0
  3

 72
   65
 73
    0
 40
0
  0
LTYPE
  5
16
330
5
100
AcDbSymbolTableRecord
100
AcDbLinetypeTableRecord
  2
Continuous
 70
    0
  3
Solid line
 72
   65
 73
    0
 40
0
  0
LTYPE
  5
32
330
5
100
AcDbSymbolTableRecord
100
AcDbLinetypeTableRecord
  2
DOT
 70
    0
  3
Dot . . . . . . . . . . . . . . . . . . . . . .
 72
   65
 73
    2
 40
6.35
 49
0
 74
    0
 49
-6.35
 74
    0
  0
LTYPE
  5
33
330
5
100
AcDbSymbolTableRecord
100
AcDbLinetypeTableRecord
  2
DOTTINY
 70
    0
  3
Dot (.15x) .....................................
 72
   65
 73
    2
 40
0.9525
 49
0
 74
    0
 49
-0.9525
 74
    0
  0
LTYPE
  5
34
330
5
100
AcDbSymbolTableRecord
100
AcDbLinetypeTableRecord
  2
DOT2
 70
    0
  3
Dot (.5x) .....................................
 72
   65
 73
    2
 40
3.175
 49
0
 74
    0
 49
-3.175
 74
    0
  0
LTYPE
  5
35
330
5
100
AcDbSymbolTableRecord
100
AcDbLinetypeTableRecord
  2
DOTX2
 70
    0
  3
Dot (2x) .  .  .  .  .  .  .  .  .  .  .  .  .
 72
   65
 73
    2
 40
12.7
 49
0
 74
    0
 49
-12.7
 74
    0
  0
LTYPE
  5
36
330
5
100
AcDbSymbolTableRecord
100
AcDbLinetypeTableRecord
  2
DASHED
 70
    0
  3
Dashed _ _ _ _ _ _ _ _ _ _ _ _ _ _ _ _ _
 72
   65
 73
    2
 40
19.05
 49
12.7
 74
    0
 49
-6.35
 74
    0
  0
LTYPE
  5
37
330
5
100
AcDbSymbolTableRecord
100
AcDbLinetypeTableRecord
  2
DASHEDTINY
 70
    0
  3
Dashed (.15x) _ _ _ _ _ _ _ _ _ _ _ _ _ _ _ _ _
 72
   65
 73
    2
 40
2.8575
 49
1.905
 74
    0
 49
-0.9525
 74
    0
  0
LTYPE
  5
38
330
5
100
AcDbSymbolTableRecord
100
AcDbLinetypeTableRecord
  2
DASHED2
 70
    0
  3
Dashed (.5x) _ _ _ _ _ _ _ _ _ _ _ _ _ _ _ _ _
 72
   65
 73
    2
 40
9.524999999999999
 49
6.35
 74
    0
 49
-3.175
 74
    0
  0
LTYPE
  5
39
330
5
100
AcDbSymbolTableRecord
100
AcDbLinetypeTableRecord
  2
DASHEDX2
 70
    0
  3
Dashed (2x) ____  ____  ____  ____  ____  ___
 72
   65
 73
    2
 40
38.09999999999999
 49
25.4
 74
    0
 49
-12.7
 74
    0
  0
LTYPE
  5
3A
330
5
100
AcDbSymbolTableRecord
100
AcDbLinetypeTableRecord
  2
DASHDOT
 70
    0
  3
Dash dot __ . __ . __ . __ . __ . __ . __ . __
 72
   65
 73
    4
 40
25.4
 49
12.7
 74
    0
 49
-6.35
 74
    0
 49
0
 74
    0
 49
-6.35
 74
    0
  0
LTYPE
  5
3B
330
5
100
AcDbSymbolTableRecord
100
AcDbLinetypeTableRecord
  2
DASHDOTTINY
 70
    0
  3
Dash dot (.15x) _._._._._._._._._._._._._._._.
 72
   65
 73
    4
 40
3.81
 49
1.905
 74
    0
 49
-0.9525
 74
    0
 49
0
 74
    0
 49
-0.9525
 74
    0
  0
LTYPE
  5
3C
330
5
100
AcDbSymbolTableRecord
100
AcDbLinetypeTableRecord
  2
DASHDOT2
 70
    0
  3
Dash dot (.5x) _._._._._._._._._._._._._._._.
 72
   65
 73
    4
 40
12.7
 49
6.35
 74
    0
 49
-3.175
 74
    0
 49
0
 74
    0
 49
-3.175
 74
    0
  0
LTYPE
  5
3D
330
5
100
AcDbSymbolTableRecord
100
AcDbLinetypeTableRecord
  2
DASHDOTX2
 70
    0
  3
Dash dot (2x) ____  .  ____  .  ____  .  ___
 72
   65
 73
    4
 40
50.8
 49
25.4
 74
    0
 49
-12.7
 74
    0
 49
0
 74
    0
 49
-12.7
 74
    0
  0
LTYPE
  5
3E
330
5
100
AcDbSymbolTableRecord
100
AcDbLinetypeTableRecord
  2
DIVIDE
 70
    0
  3
Divide ____ . . ____ . . ____ . . ____ . . ____
 72
   65
 73
    6
 40
31.75
 49
12.7
 74
    0
 49
-6.35
 74
    0
 49
0
 74
    0
 49
-6.35
 74
    0
 49
0
 74
    0
 49
-6.35
 74
    0
  0
LTYPE
  5
3F
330
5
100
AcDbSymbolTableRecord
100
AcDbLinetypeTableRecord
  2
DIVIDETINY
 70
    0
  3
Divide (.15x) __..__..__..__..__..__..__..__.._
 72
   65
 73
    6
 40
4.7625
 49
1.905
 74
    0
 49
-0.9525
 74
    0
 49
0
 74
    0
 49
-0.9525
 74
    0
 49
0
 74
    0
 49
-0.9525
 74
    0
  0
LTYPE
  5
40
330
5
100
AcDbSymbolTableRecord
100
AcDbLinetypeTableRecord
  2
DIVIDE2
 70
    0
  3
Divide (.5x) __..__..__..__..__..__..__..__.._
 72
   65
 73
    6
 40
15.875
 49
6.35
 74
    0
 49
-3.175
 74
    0
 49
0
 74
    0
 49
-3.175
 74
    0
 49
0
 74
    0
 49
-3.175
 74
    0
  0
LTYPE
  5
41
330
5
100
AcDbSymbolTableRecord
100
AcDbLinetypeTableRecord
  2
DIVIDEX2
 70
    0
  3
Divide (2x) ________  .  .  ________  .  .  _
 72
   65
 73
    6
 40
63.5
 49
25.4
 74
    0
 49
-12.7
 74
    0
 49
0
 74
    0
 49
-12.7
 74
    0
 49
0
 74
    0
 49
-12.7
 74
    0
  0
LTYPE
  5
42
330
5
100
AcDbSymbolTableRecord
100
AcDbLinetypeTableRecord
  2
BORDER
 70
    0
  3
Border __ __ . __ __ . __ __ . __ __ . __ __ .
 72
   65
 73
    6
 40
44.45
 49
12.7
 74
    0
 49
-6.35
 74
    0
 49
12.7
 74
    0
 49
-6.35
 74
    0
 49
0
 74
    0
 49
-6.35
 74
    0
  0
LTYPE
  5
43
330
5
100
AcDbSymbolTableRecord
100
AcDbLinetypeTableRecord
  2
BORDERTINY
 70
    0
  3
Border (.15x) __.__.__.__.__.__.__.__.__.__.__.
 72
   65
 73
    6
 40
6.6675
 49
1.905
 74
    0
 49
-0.9525
 74
    0
 49
1.905
 74
    0
 49
-0.9525
 74
    0
 49
0
 74
    0
 49
-0.9525
 74
    0
  0
LTYPE
  5
44
330
5
100
AcDbSymbolTableRecord
100
AcDbLinetypeTableRecord
  2
BORDER2
 70
    0
  3
Border (.5x) __.__.__.__.__.__.__.__.__.__.__.
 72
   65
 73
    6
 40
22.225
 49
6.35
 74
    0
 49
-3.175
 74
    0
 49
6.35
 74
    0
 49
-3.175
 74
    0
 49
0
 74
    0
 49
-3.175
 74
    0
  0
LTYPE
  5
45
330
5
100
AcDbSymbolTableRecord
100
AcDbLinetypeTableRecord
  2
BORDERX2
 70
    0
  3
Border (2x) ____  ____  .  ____  ____  .  ___
 72
   65
 73
    6
 40
88.89999999999999
 49
25.4
 74
    0
 49
-12.7
 74
    0
 49
25.4
 74
    0
 49
-12.7
 74
    0
 49
0
 74
    0
 49
-12.7
 74
    0
  0
LTYPE
  5
46
330
5
100
AcDbSymbolTableRecord
100
AcDbLinetypeTableRecord
  2
CENTER
 70
    0
  3
Center ____ _ ____ _ ____ _ ____ _ ____ _ ____
 72
   65
 73
    4
 40
50.8
 49
31.75
 74
    0
 49
-6.35
 74
    0
 49
6.35
 74
    0
 49
-6.35
 74
    0
  0
LTYPE
  5
47
330
5
100
AcDbSymbolTableRecord
100
AcDbLinetypeTableRecord
  2
CENTERTINY
 70
    0
  3
Center (.15x) ___ _ ___ _ ___ _ ___ _ ___ _ ___
 72
   65
 73
    4
 40
7.62
 49
4.7625
 74
    0
 49
-0.9525
 74
    0
 49
0.9525
 74
    0
 49
-0.9525
 74
    0
  0
LTYPE
  5
48
330
5
100
AcDbSymbolTableRecord
100
AcDbLinetypeTableRecord
  2
CENTER2
 70
    0
  3
Center (.5x) ___ _ ___ _ ___ _ ___ _ ___ _ ___
 72
   65
 73
    4
 40
28.575
 49
19.05
 74
    0
 49
-3.175
 74
    0
 49
3.175
 74
    0
 49
-3.175
 74
    0
  0
LTYPE
  5
49
330
5
100
AcDbSymbolTableRecord
100
AcDbLinetypeTableRecord
  2
CENTERX2
 70
    0
  3
Center (2x) ________  __  ________  __  _____
 72
   65
 73
    4
 40
101.6
 49
63.5
 74
    0
 49
-12.7
 74
    0
 49
12.7
 74
    0
 49
-12.7
 74
    0
  0
ENDTAB
  0
TABLE
  2
LAYER
  5
2
330
0
100
AcDbSymbolTable
 70
    1
  0
LAYER
  5
10
330
2
100
AcDbSymbolTableRecord
100
AcDbLayerTableRecord
  2
0
 70
    0
 62
    7
  6
CONTINUOUS
370
   -3
390
F
  0
ENDTAB
  0
TABLE
  2
STYLE
  5
3
330
0
100
AcDbSymbolTable
 70
    3
  0
STYLE
  5
4A
330
2
100
AcDbSymbolTableRecord
100
AcDbTextStyleTableRecord
  2
Standard
 70
    0
 40
0
 41
1
 50
0
 71
    0
 42
1
  3
txt
  4

  0
ENDTAB
  0
TABLE
  2
VIEW
  5
6
330
0
100
AcDbSymbolTable
 70
    0
  0
ENDTAB
  0
TABLE
  2
UCS
  5
7
330
0
100
AcDbSymbolTable
 70
    0
  0
ENDTAB
  0
TABLE
  2
APPID
  5
9
330
0
100
AcDbSymbolTable
 70
    1
  0
APPID
  5
12
330
9
100
AcDbSymbolTableRecord
100
AcDbRegAppTableRecord
  2
ACAD
 70
    0
  0
APPID
  5
4B
330
9
100
AcDbSymbolTableRecord
100
AcDbRegAppTableRecord
  2
LibreCad
 70
    0
  0
ENDTAB
  0
TABLE
  2
DIMSTYLE
  5
A
330
0
100
AcDbSymbolTable
 70
    1
100
AcDbDimStyleTable
 71
    1
  0
DIMSTYLE
105
4C
330
A
100
AcDbSymbolTableRecord
100
AcDbDimStyleTableRecord
  2
Standard
 70
    0
 40
1
 41
0.18
 42
0.0625
 43
0.38
 44
0.18
 45
0
 46
0
 47
0
 48
0
 49
1
140
0.18
141
0.09
142
0
143
25.4
144
1
145
0
146
1
147
0.09
148
0
 71
    0
 72
    0
 73
    1
 74
    1
 75
    0
 76
    0
 77
    0
 78
    0
 79
    0
170
    0
171
    2
172
    0
173
    0
174
    0
175
    0
176
    0
177
    0
178
    0
179
    0
271
    4
272
    4
273
    2
274
    2
275
    0
276
    0
277
    2
278
    0
279
    0
280
    0
281
    0
282
    0
283
    1
284
    0
285
    0
286
    0
288
    0
289
    3
340
standard
341

371
   -2
372
   -2
  0
ENDTAB
  0
TABLE
  2
BLOCK_RECORD
  5
1
330
0
100
AcDbSymbolTable
 70
    2
  0
BLOCK_RECORD
  5
1F
330
1
100
AcDbSymbolTableRecord
100
AcDbBlockTableRecord
  2
*Model_Space
 70
    0
280
    1
281
    0
  0
BLOCK_RECORD
  5
1E
330
1
100
AcDbSymbolTableRecord
100
AcDbBlockTableRecord
  2
*Paper_Space
 70
    0
280
    1
281
    0
  0
ENDTAB
  0
ENDSEC
  0
SECTION
  2
BLOCKS
  0
BLOCK
  5
20
330
1F
100
AcDbEntity
  8
0
100
AcDbBlockBegin
  2
*Model_Space
 70
    0
 10
0
 20
0
 30
0
  3
*Model_Space
  1

  0
ENDBLK
  5
21
330
1F
100
AcDbEntity
  8
0
100
AcDbBlockEnd
  0
BLOCK
  5
1C
330
1B
100
AcDbEntity
  8
0
100
AcDbBlockBegin
  2
*Paper_Space
 70
    0
 10
0
 20
0
 30
0
  3
*Paper_Space
  1

  0
ENDBLK
  5
1D
330
1F
100
AcDbEntity
  8
0
100
AcDbBlockEnd
  0
ENDSEC
  0
SECTION
  2
ENTITIES
  0
LWPOLYLINE
  5
4D
100
AcDbEntity
  8
0
  6
ByLayer
 62
  256
370
   -1
100
AcDbPolyline
 90
  256
 70
    1
 43
0
 10
-40.82056298265195
 20
15.57038732250927
 10
-41.20771972758423
 20
15.56548821082169
 10
-41.59246099310216
 20
15.55086941558831
 10
-41.97466896946169
 20
15.52664874655319
 10
-42.35422584691874
 20
15.49294401346039
 10
-42.73101381572927
 20
15.44987302605396
 10
-43.10491506614922
 20
15.39755359407796
 10
-43.47581178843456
 20
15.33610352727643
 10
-43.84358617284119
 20
15.26564063539345
 10
-44.20812040962509
 20
15.18628272817306
 10
-44.56929668904219
 20
15.09814761535931
 10
-44.92699720134843
 20
15.00135310669628
 10
-45.28110413679977
 20
14.896017011928
 10
-45.63149968565214
 20
14.78225714079854
 10
-45.97806603816149
 20
14.66019130305194
 10
-46.32068538458377
 20
14.52993730843228
 10
-46.65923991517491
 20
14.39161296668359
 10
-46.99361182019087
 20
14.24533608754995
 10
-47.3236832898876
 20
14.09122448077539
 10
-47.64933651452101
 20
13.92939595610399
 10
-47.97045368434708
 20
13.75996832327979
 10
-48.28691698962174
 20
13.58305939204684
 10
-48.59860862060093
 20
13.39878697214921
 10
-48.9054107675406
 20
13.20726887333096
 10
-49.2072056206967
 20
13.00862290533613
 10
-49.50387537032518
 20
12.80296687790877
 10
-49.79530220668195
 20
12.59041860079296
 10
-50.081368320023
 20
12.37109588373274
 10
-50.36195590060424
 20
12.14511653647217
 10
-50.63694713868163
 20
11.9125983687553
 10
-50.90622422451112
 20
11.67365919032618
 10
-51.16966934834864
 20
11.42841681092889
 10
-51.42716470045014
 20
11.17698904030746
 10
-51.67859247107157
 20
10.91949368820596
 10
-51.92383485046886
 20
10.65604856436844
 10
-52.16277402889797
 20
10.38677147853896
 10
-52.39529219661485
 20
10.11178024046156
 10
-52.62127154387542
 20
9.831192659880321
 10
-52.84059426093564
 20
9.545126546539279
 10
-53.05314253805145
 20
9.253699710182495
 10
-53.25879856547881
 20
8.957029960554026
 10
-53.45744453347363
 20
8.655235107397925
 10
-53.64896263229189
 20
8.348432960458251
 10
-53.83323505218952
 20
8.036741329479057
 10
-54.01014398342247
 20
7.720278024204399
 10
-54.17957161624668
 20
7.399160854378332
 10
-54.34140014091808
 20
7.073507629744912
 10
-54.49551174769262
 20
6.743436160048194
 10
-54.64178862682628
 20
6.409064255032235
 10
-54.78011296857497
 20
6.070509724441088
 10
-54.91036696319463
 20
5.727890378018811
 10
-55.03243280094122
 20
5.381324025509459
 10
-55.14619267207068
 20
5.030928476657087
 10
-55.25152876683896
 20
4.676821541205751
 10
-55.348323275502
 20
4.319121028899506
 10
-55.43645838831574
 20
3.957944749482406
 10
-55.51581629553613
 20
3.59341051269851
 10
-55.58627918741911
 20
3.225636128291871
 10
-55.64772925422064
 20
2.854739406006544
 10
-55.70004868619665
 20
2.480838155586587
 10
-55.74311967360308
 20
2.104050186776053
 10
-55.77682440669588
 20
1.724493309318999
 10
-55.801045075731
 20
1.34228533295948
 10
-55.81566387096437
 20
0.9575440674415514
 10
-55.82056298265195
 20
0.5703873225092693
 10
-55.81566387096437
 20
0.1832305775769883
 10
-55.801045075731
 20
-0.2015106879409389
 10
-55.77682440669588
 20
-0.5837186643004568
 10
-55.74311967360308
 20
-0.9632755417575098
 10
-55.70004868619665
 20
-1.340063510568043
 10
-55.64772925422064
 20
-1.713964760988
 10
-55.58627918741911
 20
-2.084861483273325
 10
-55.51581629553613
 20
-2.452635867679964
 10
-55.43645838831574
 20
-2.817170104463862
 10
-55.348323275502
 20
-3.17834638388096
 10
-55.25152876683896
 20
-3.536046896187205
 10
-55.14619267207068
 20
-3.890153831638542
 10
-55.03243280094122
 20
-4.240549380490913
 10
-54.91036696319463
 20
-4.587115733000266
 10
-54.78011296857497
 20
-4.929735079422542
 10
-54.64178862682628
 20
-5.268289610013689
 10
-54.49551174769262
 20
-5.602661515029649
 10
-54.34140014091808
 20
-5.932732984726366
 10
-54.17957161624668
 20
-6.258386209359786
 10
-54.01014398342247
 20
-6.579503379185853
 10
-53.83323505218952
 20
-6.895966684460512
 10
-53.64896263229189
 20
-7.207658315439707
 10
-53.45744453347363
 20
-7.514460462379382
 10
-53.25879856547881
 20
-7.816255315535482
 10
-53.05314253805145
 20
-8.112925065163953
 10
-52.84059426093564
 20
-8.404351901520737
 10
-52.62127154387542
 20
-8.69041801486178
 10
-52.39529219661485
 20
-8.971005595443025
 10
-52.16277402889797
 20
-9.245996833520415
 10
-51.92383485046886
 20
-9.5152739193499
 10
-51.67859247107157
 20
-9.77871904318742
 10
-51.42716470045014
 20
-10.03621439528892
 10
-51.16966934834864
 20
-10.28764216591035
 10
-50.90622422451112
 20
-10.53288454530765
 10
-50.63694713868163
 20
-10.77182372373676
 10
-50.36195590060424
 20
-11.00434189145363
 10
-50.081368320023
 20
-11.2303212387142
 10
-49.79530220668195
 20
-11.44964395577442
 10
-49.50387537032518
 20
-11.66219223289024
 10
-49.2072056206967
 20
-11.86784826031759
 10
-48.9054107675406
 20
-12.06649422831242
 10
-48.59860862060093
 20
-12.25801232713068
 10
-48.28691698962174
 20
-12.44228474702831
 10
-47.97045368434708
 20
-12.61919367826125
 10
-47.64933651452101
 20
-12.78862131108545
 10
-47.3236832898876
 20
-12.95044983575686
 10
-46.99361182019087
 20
-13.10456144253141
 10
-46.65923991517491
 20
-13.25083832166506
 10
-46.32068538458377
 20
-13.38916266341374
 10
-45.97806603816149
 20
-13.51941665803341
 10
-45.63149968565214
 20
-13.64148249578
 10
-45.28110413679977
 20
-13.75524236690947
 10
-44.92699720134843
 20
-13.86057846167775
 10
-44.56929668904219
 20
-13.95737297034078
 10
-44.20812040962509
 20
-14.04550808315452
 10
-43.84358617284119
 20
-14.12486599037491
 10
-43.47581178843456
 20
-14.1953288822579
 10
-43.10491506614922
 20
-14.25677894905942
 10
-42.73101381572927
 20
-14.30909838103542
 10
-42.35422584691874
 20
-14.35216936844185
 10
-41.97466896946169
 20
-14.38587410153466
 10
-41.59246099310216
 20
-14.41009477056977
 10
-41.20771972758423
 20
-14.42471356580315
 10
-40.82056298265195
 20
-14.42961267749073
 10
-40.43340623771967
 20
-14.42471356580315
 10
-40.04866497220173
 20
-14.41009477056977
 10
-39.66645699584221
 20
-14.38587410153465
 10
-39.28690011838516
 20
-14.35216936844185
 10
-38.91011214957462
 20
-14.30909838103542
 10
-38.53621089915466
 20
-14.25677894905942
 10
-38.16531417686933
 20
-14.19532888225789
 10
-37.79753979246269
 20
-14.12486599037491
 10
-37.43300555567879
 20
-14.04550808315452
 10
-37.07182927626168
 20
-13.95737297034078
 10
-36.71412876395544
 20
-13.86057846167774
 10
-36.3600218285041
 20
-13.75524236690946
 10
-36.00962627965173
 20
-13.64148249578
 10
-35.66305992714237
 20
-13.5194166580334
 10
-35.3204405807201
 20
-13.38916266341374
 10
-34.98188605012895
 20
-13.25083832166505
 10
-34.64751414511299
 20
-13.10456144253141
 10
-34.31744267541627
 20
-12.95044983575685
 10
-33.99178945078285
 20
-12.78862131108545
 10
-33.67067228095678
 20
-12.61919367826125
 10
-33.35420897568212
 20
-12.4422847470283
 10
-33.04251734470293
 20
-12.25801232713068
 10
-32.73571519776326
 20
-12.06649422831242
 10
-32.43392034460715
 20
-11.86784826031759
 10
-32.13725059497868
 20
-11.66219223289024
 10
-31.8458237586219
 20
-11.44964395577442
 10
-31.55975764528086
 20
-11.2303212387142
 10
-31.27917006469961
 20
-11.00434189145363
 10
-31.00417882662222
 20
-10.77182372373676
 10
-30.73490174079274
 20
-10.53288454530765
 10
-30.47145661695522
 20
-10.28764216591035
 10
-30.21396126485371
 20
-10.03621439528892
 10
-29.96253349423228
 20
-9.778719043187422
 10
-29.71729111483499
 20
-9.515273919349902
 10
-29.47835193640587
 20
-9.245996833520415
 10
-29.245833768689
 20
-8.971005595443025
 10
-29.01985442142843
 20
-8.69041801486178
 10
-28.80053170436821
 20
-8.404351901520737
 10
-28.5879834272524
 20
-8.112925065163957
 10
-28.38232739982504
 20
-7.816255315535487
 10
-28.18368143183021
 20
-7.514460462379386
 10
-27.99216333301195
 20
-7.207658315439712
 10
-27.80789091311433
 20
-6.895966684460518
 10
-27.63098198188138
 20
-6.579503379185859
 10
-27.46155434905718
 20
-6.258386209359793
 10
-27.29972582438577
 20
-5.932732984726373
 10
-27.14561421761122
 20
-5.602661515029656
 10
-26.99933733847757
 20
-5.268289610013697
 10
-26.86101299672889
 20
-4.929735079422549
 10
-26.73075900210922
 20
-4.587115733000273
 10
-26.60869316436263
 20
-4.24054938049092
 10
-26.49493329323317
 20
-3.890153831638549
 10
-26.38959719846489
 20
-3.536046896187213
 10
-26.29280268980185
 20
-3.178346383880967
 10
-26.20466757698811
 20
-2.817170104463869
 10
-26.12530966976772
 20
-2.452635867679971
 10
-26.05484677788473
 20
-2.084861483273332
 10
-25.99339671108321
 20
-1.713964760988006
 10
-25.9410772791072
 20
-1.340063510568048
 10
-25.89800629170077
 20
-0.9632755417575143
 10
-25.86430155860797
 20
-0.5837186643004602
 10
-25.84008088957285
 20
-0.2015106879409413
 10
-25.82546209433947
 20
0.1832305775769871
 10
-25.82056298265189
 20
0.5703873225092693
 10
-25.82546209433947
 20
0.9575440674415509
 10
-25.84008088957285
 20
1.342285332959479
 10
-25.86430155860797
 20
1.724493309318997
 10
-25.89800629170077
 20
2.104050186776051
 10
-25.9410772791072
 20
2.480838155586584
 10
-25.99339671108321
 20
2.854739406006542
 10
-26.05484677788473
 20
3.225636128291868
 10
-26.12530966976772
 20
3.593410512698507
 10
-26.20466757698811
 20
3.957944749482403
 10
-26.29280268980185
 20
4.319121028899502
 10
-26.38959719846489
 20
4.676821541205747
 10
-26.49493329323317
 20
5.030928476657084
 10
-26.60869316436263
 20
5.381324025509455
 10
-26.73075900210922
 20
5.727890378018808
 10
-26.86101299672889
 20
6.070509724441084
 10
-26.99933733847757
 20
6.409064255032231
 10
-27.14561421761122
 20
6.743436160048191
 10
-27.29972582438577
 20
7.073507629744908
 10
-27.46155434905718
 20
7.399160854378328
 10
-27.63098198188138
 20
7.720278024204395
 10
-27.80789091311433
 20
8.036741329479053
 10
-27.99216333301195
 20
8.348432960458247
 10
-28.18368143183021
 20
8.655235107397921
 10
-28.38232739982504
 20
8.957029960554022
 10
-28.5879834272524
 20
9.253699710182492
 10
-28.80053170436821
 20
9.545126546539276
 10
-29.01985442142843
 20
9.831192659880319
 10
-29.245833768689
 20
10.11178024046156
 10
-29.47835193640587
 20
10.38677147853895
 10
-29.71729111483499
 20
10.65604856436844
 10
-29.96253349423228
 20
10.91949368820596
 10
-30.21396126485371
 20
11.17698904030746
 10
-30.47145661695522
 20
11.42841681092889
 10
-30.73490174079274
 20
11.67365919032619
 10
-31.00417882662222
 20
11.9125983687553
 10
-31.27917006469961
 20
12.14511653647217
 10
-31.55975764528086
 20
12.37109588373274
 10
-31.8458237586219
 20
12.59041860079296
 10
-32.13725059497868
 20
12.80296687790877
 10
-32.43392034460715
 20
13.00862290533613
 10
-32.73571519776326
 20
13.20726887333096
 10
-33.04251734470293
 20
13.39878697214922
 10
-33.35420897568212
 20
13.58305939204684
 10
-33.67067228095678
 20
13.75996832327979
 10
-33.99178945078285
 20
13.92939595610399
 10
-34.31744267541627
 20
14.0912244807754
 10
-34.64751414511299
 20
14.24533608754995
 10
-34.98188605012895
 20
14.3916129666836
 10
-35.3204405807201
 20
14.52993730843228
 10
-35.66305992714237
 20
14.66019130305195
 10
-36.00962627965173
 20
14.78225714079854
 10
-36.3600218285041
 20
14.896017011928
 10
-36.71412876395544
 20
15.00135310669628
 10
-37.07182927626168
 20
15.09814761535932
 10
-37.43300555567879
 20
15.18628272817306
 10
-37.79753979246269
 20
15.26564063539345
 10
-38.16531417686933
 20
15.33610352727643
 10
-38.53621089915466
 20
15.39755359407796
 10
-38.91011214957462
 20
15.44987302605396
 10
-39.28690011838516
 20
15.49294401346039
 10
-39.66645699584221
 20
15.52664874655319
 10
-40.04866497220173
 20
15.55086941558831
 10
-40.43340623771967
 20
15.56548821082169
  0
LWPOLYLINE
  5
4E
100
AcDbEntity
  8
0
  6
ByLayer
 62
  256
370
   -1
100
AcDbPolyline
 90
  256
 70
    1
 43
0
 10
-40.82056298265195
 20
33.0703873225093
 10
-41.6594025966719
 20
33.05977258051954
 10
-42.49300867196074
 20
33.02809852418055
 10
-43.32112595407303
 20
32.9756204079378
 10
-44.14349918856332
 20
32.90259348623673
 10
-44.95987312098615
 20
32.80927301352279
 10
-45.76999249689605
 20
32.69591424424145
 10
-46.57360206184759
 20
32.56277243283814
 10
-47.37044656139531
 20
32.41010283375835
 10
-48.16027074109376
 20
32.2381607014475
 10
-48.94281934649747
 20
32.04720129035105
 10
-49.717837123161
 20
31.83747985491448
 10
-50.4850688166389
 20
31.60925164958321
 10
-51.24425917248571
 20
31.3627719288027
 10
-51.99515293625596
 20
31.09829594701842
 10
-52.73749485350423
 20
30.81607895867581
 10
-53.47102966978505
 20
30.51637621822033
 10
-54.19550213065297
 20
30.19944298009743
 10
-54.91065698166253
 20
29.86553449875256
 10
-55.61623896836826
 20
29.51490602863118
 10
-56.31199283632475
 20
29.14781282417875
 10
-56.9976633310865
 20
28.76451013984071
 10
-57.67299519820808
 20
28.36525323006252
 10
-58.33773318324405
 20
27.95029734928963
 10
-58.99162203174893
 20
27.51989775196749
 10
-59.63440648927727
 20
27.07430969254157
 10
-60.26583130138364
 20
26.61378842545731
 10
-60.88564121362256
 20
26.13858920516016
 10
-61.4935809715486
 20
25.64896728609558
 10
-62.08939532071628
 20
25.14517792270903
 10
-62.67282900668015
 20
24.62747636944596
 10
-63.24362677499478
 20
24.09611788075182
 10
-63.8015333712147
 20
23.55135771107206
 10
-64.34629354089446
 20
22.99345111485214
 10
-64.8776520295886
 20
22.42265334653751
 10
-65.39535358285168
 20
21.83921966057363
 10
-65.89914294623824
 20
21.24340531140595
 10
-66.38876486530282
 20
20.63546555347992
 10
-66.86396408559995
 20
20.015655641241
 10
-67.32448535268421
 20
19.38423082913463
 10
-67.77007341211014
 20
18.74144637160628
 10
-68.20047300943227
 20
18.0875575231014
 10
-68.61542889020515
 20
17.42281953806544
 10
-69.01468579998334
 20
16.74748767094385
 10
-69.39798848432139
 20
16.06181717618209
 10
-69.76508168877383
 20
15.36606330822561
 10
-70.11571015889521
 20
14.66048132151986
 10
-70.44961864024006
 20
13.94532647051031
 10
-70.76655187836298
 20
13.2208540096424
 10
-71.06625461881846
 20
12.48731919336158
 10
-71.34847160716107
 20
11.74497727611331
 10
-71.61294758894536
 20
10.99408351234305
 10
-71.85942730972586
 20
10.23489315649624
 10
-72.08765551505712
 20
9.467661463018342
 10
-72.29737695049371
 20
8.692643686354806
 10
-72.48833636159016
 20
7.910095080951091
 10
-72.66027849390099
 20
7.120270901252646
 10
-72.81294809298078
 20
6.323426401704924
 10
-72.94608990438408
 20
5.519816836753382
 10
-73.05944867366543
 20
4.709697460843471
 10
-73.15276914637936
 20
3.893323528420646
 10
-73.22579606808043
 20
3.070950293930359
 10
-73.27827418432318
 20
2.242833011818065
 10
-73.30994824066218
 20
1.409226936529217
 10
-73.32056298265194
 20
0.5703873225092693
 10
-73.30994824066218
 20
-0.2684522915106846
 10
-73.27827418432318
 20
-1.102058366799538
 10
-73.22579606808043
 20
-1.930175648911837
 10
-73.15276914637936
 20
-2.752548883402128
 10
-73.05944867366543
 20
-3.568922815824958
 10
-72.94608990438408
 20
-4.379042191734873
 10
-72.81294809298078
 20
-5.182651756686419
 10
-72.66027849390099
 20
-5.979496256234143
 10
-72.48833636159016
 20
-6.769320435932592
 10
-72.29737695049371
 20
-7.551869041336311
 10
-72.08765551505712
 20
-8.326886817999847
 10
-71.85942730972586
 20
-9.094118511477749
 10
-71.61294758894536
 20
-9.853308867324559
 10
-71.34847160716107
 20
-10.60420263109483
 10
-71.06625461881848
 20
-11.3465445483431
 10
-70.76655187836299
 20
-12.08007936462391
 10
-70.44961864024009
 20
-12.80455182549183
 10
-70.11571015889524
 20
-13.51970667650138
 10
-69.76508168877386
 20
-14.22528866320713
 10
-69.39798848432142
 20
-14.9210425311636
 10
-69.01468579998337
 20
-15.60671302592536
 10
-68.61542889020518
 20
-16.28204489304695
 10
-68.2004730094323
 20
-16.94678287808291
 10
-67.77007341211016
 20
-17.6006717265878
 10
-67.32448535268423
 20
-18.24345618411615
 10
-66.86396408559997
 20
-18.87488099622251
 10
-66.38876486530285
 20
-19.49469090846143
 10
-65.89914294623827
 20
-20.10263066638746
 10
-65.39535358285173
 20
-20.69844501555514
 10
-64.87765202958866
 20
-21.28187870151902
 10
-64.34629354089452
 20
-21.85267646983365
 10
-63.80153337121475
 20
-22.41058306605357
 10
-63.24362677499484
 20
-22.95534323573332
 10
-62.6728290066802
 20
-23.48670172442747
 10
-62.08939532071632
 20
-24.00440327769054
 10
-61.49358097154865
 20
-24.50819264107709
 10
-60.88564121362262
 20
-24.99781456014166
 10
-60.2658313013837
 20
-25.47301378043881
 10
-59.63440648927733
 20
-25.93353504752306
 10
-58.99162203174898
 20
-26.37912310694898
 10
-58.3377331832441
 20
-26.80952270427112
 10
-57.67299519820814
 20
-27.22447858504401
 10
-56.99766333108656
 20
-27.6237354948222
 10
-56.31199283632479
 20
-28.00703817916024
 10
-55.61623896836831
 20
-28.37413138361267
 10
-54.91065698166257
 20
-28.72475985373405
 10
-54.19550213065301
 20
-29.05866833507891
 10
-53.4710296697851
 20
-29.37560157320181
 10
-52.73749485350427
 20
-29.67530431365729
 10
-51.99515293625601
 20
-29.9575213019999
 10
-51.24425917248575
 20
-30.22199728378418
 10
-50.48506881663894
 20
-30.46847700456468
 10
-49.71783712316104
 20
-30.69670520989595
 10
-48.94281934649751
 20
-30.90642664533253
 10
-48.1602707410938
 20
-31.09738605642897
 10
-47.37044656139534
 20
-31.26932818873982
 10
-46.57360206184762
 20
-31.42199778781962
 10
-45.76999249689608
 20
-31.55513959922291
 10
-44.95987312098616
 20
-31.66849836850425
 10
-44.14349918856333
 20
-31.76181884121819
 10
-43.32112595407304
 20
-31.83484576291926
 10
-42.49300867196075
 20
-31.88732387916201
 10
-41.6594025966719
 20
-31.918997935501
 10
-40.82056298265195
 20
-31.92961267749076
 10
-39.981723368632
 20
-31.918997935501
 10
-39.14811729334315
 20
-31.88732387916201
 10
-38.32000001123086
 20
-31.83484576291925
 10
-37.49762677674057
 20
-31.76181884121818
 10
-36.68125284431775
 20
-31.66849836850425
 10
-35.87113346840783
 20
-31.55513959922291
 10
-35.06752390345629
 20
-31.42199778781961
 10
-34.27067940390857
 20
-31.26932818873981
 10
-33.48085522421012
 20
-31.09738605642897
 10
-32.69830661880641
 20
-30.90642664533253
 10
-31.92328884214288
 20
-30.69670520989595
 10
-31.15605714866498
 20
-30.46847700456468
 10
-30.39686679281817
 20
-30.22199728378417
 10
-29.64597302904791
 20
-29.95752130199989
 10
-28.90363111179964
 20
-29.67530431365728
 10
-28.17009629551882
 20
-29.3756015732018
 10
-27.44562383465091
 20
-29.0586683350789
 10
-26.73046898364136
 20
-28.72475985373403
 10
-26.02488699693561
 20
-28.37413138361265
 10
-25.32913312897913
 20
-28.00703817916022
 10
-24.64346263421737
 20
-27.62373549482217
 10
-23.96813076709578
 20
-27.22447858504398
 10
-23.30339278205982
 20
-26.80952270427109
 10
-22.64950393355494
 20
-26.37912310694895
 10
-22.00671947602659
 20
-25.93353504752303
 10
-21.37529466392023
 20
-25.47301378043877
 10
-20.7554847516813
 20
-24.99781456014162
 10
-20.14754499375528
 20
-24.50819264107704
 10
-19.55173064458759
 20
-24.00440327769049
 10
-18.96829695862371
 20
-23.48670172442742
 10
-18.39749919030909
 20
-22.95534323573328
 10
-17.83959259408917
 20
-22.41058306605353
 10
-17.29483242440941
 20
-21.85267646983361
 10
-16.76347393571527
 20
-21.28187870151898
 10
-16.2457723824522
 20
-20.6984450155551
 10
-15.74198301906565
 20
-20.10263066638742
 10
-15.25236110000108
 20
-19.49469090846139
 10
-14.77716187970393
 20
-18.87488099622247
 10
-14.31664061261967
 20
-18.2434561841161
 10
-13.87105255319375
 20
-17.60067172658775
 10
-13.44065295587161
 20
-16.94678287808286
 10
-13.02569707509872
 20
-16.2820448930469
 10
-12.62644016532053
 20
-15.60671302592531
 10
-12.24313748098249
 20
-14.92104253116355
 10
-11.87604427653005
 20
-14.22528866320708
 10
-11.52541580640867
 20
-13.51970667650133
 10
-11.19150732506381
 20
-12.80455182549178
 10
-10.87457408694091
 20
-12.08007936462386
 10
-10.57487134648542
 20
-11.34654454834305
 10
-10.29265435814282
 20
-10.60420263109478
 10
-10.02817837635854
 20
-9.853308867324515
 10
-9.781698655578033
 20
-9.094118511477705
 10
-9.553470450246763
 20
-8.326886817999807
 10
-9.343749014810182
 20
-7.551869041336272
 10
-9.152789603713742
 20
-6.769320435932556
 10
-8.980847471402896
 20
-5.979496256234111
 10
-8.828177872323097
 20
-5.182651756686389
 10
-8.695036060919801
 20
-4.379042191734847
 10
-8.581677291638458
 20
-3.568922815824935
 10
-8.488356818924526
 20
-2.752548883402109
 10
-8.415329897223454
 20
-1.930175648911822
 10
-8.362851780980698
 20
-1.102058366799528
 10
-8.331177724641712
 20
-0.2684522915106795
 10
-8.32056298265195
 20
0.5703873225092693
 10
-8.331177724641712
 20
1.409226936529222
 10
-8.362851780980698
 20
2.242833011818075
 10
-8.415329897223451
 20
3.070950293930374
 10
-8.488356818924522
 20
3.893323528420664
 10
-8.581677291638455
 20
4.709697460843494
 10
-8.695036060919797
 20
5.519816836753408
 10
-8.828177872323094
 20
6.323426401704954
 10
-8.980847471402891
 20
7.120270901252677
 10
-9.152789603713737
 20
7.910095080951125
 10
-9.343749014810175
 20
8.692643686354845
 10
-9.553470450246754
 20
9.467661463018381
 10
-9.781698655578023
 20
10.23489315649628
 10
-10.02817837635852
 20
10.99408351234309
 10
-10.2926543581428
 20
11.74497727611336
 10
-10.57487134648541
 20
12.48731919336163
 10
-10.87457408694089
 20
13.22085400964244
 10
-11.19150732506379
 20
13.94532647051036
 10
-11.52541580640865
 20
14.66048132151991
 10
-11.87604427653003
 20
15.36606330822566
 10
-12.24313748098247
 20
16.06181717618214
 10
-12.62644016532051
 20
16.7474876709439
 10
-13.02569707509869
 20
17.42281953806549
 10
-13.44065295587158
 20
18.08755752310145
 10
-13.87105255319372
 20
18.74144637160633
 10
-14.31664061261964
 20
19.38423082913468
 10
-14.7771618797039
 20
20.01565564124104
 10
-15.25236110000104
 20
20.63546555347996
 10
-15.74198301906561
 20
21.24340531140599
 10
-16.24577238245216
 20
21.83921966057368
 10
-16.76347393571523
 20
22.42265334653755
 10
-17.29483242440937
 20
22.99345111485218
 10
-17.83959259408913
 20
23.5513577110721
 10
-18.39749919030904
 20
24.09611788075186
 10
-18.96829695862367
 20
24.627476369446
 10
-19.55173064458754
 20
25.14517792270907
 10
-20.14754499375523
 20
25.64896728609562
 10
-20.75548475168126
 20
26.13858920516019
 10
-21.37529466392018
 20
26.61378842545734
 10
-22.00671947602654
 20
27.0743096925416
 10
-22.64950393355489
 20
27.51989775196752
 10
-23.30339278205977
 20
27.95029734928966
 10
-23.96813076709573
 20
28.36525323006255
 10
-24.64346263421732
 20
28.76451013984074
 10
-25.32913312897908
 20
29.14781282417878
 10
-26.02488699693556
 20
29.51490602863121
 10
-26.73046898364131
 20
29.86553449875259
 10
-27.44562383465086
 20
30.19944298009745
 10
-28.17009629551877
 20
30.51637621822035
 10
-28.90363111179959
 20
30.81607895867583
 10
-29.64597302904786
 20
31.09829594701844
 10
-30.39686679281813
 20
31.36277192880272
 10
-31.15605714866494
 20
31.60925164958322
 10
-31.92328884214283
 20
31.83747985491449
 10
-32.69830661880637
 20
32.04720129035107
 10
-33.48085522421009
 20
32.23816070144751
 10
-34.27067940390854
 20
32.41010283375836
 10
-35.06752390345626
 20
32.56277243283816
 10
-35.87113346840781
 20
32.69591424424145
 10
-36.68125284431773
 20
32.80927301352279
 10
-37.49762677674056
 20
32.90259348623673
 10
-38.32000001123085
 20
32.9756204079378
 10
-39.14811729334315
 20
33.02809852418055
 10
-39.981723368632
 20
33.05977258051954
  0
LWPOLYLINE
  5
4F
100
AcDbEntity
  8
0
  6
ByLayer
 62
  256
370
   -1
100
AcDbPolyline
 90
   64
 70
    1
 43
0
 10
-20.83141695565689
 20
-8.926389212724963
 10
-20.94899777525068
 20
-8.932326533085378
 10
-21.06318206690474
 20
-8.949753125403845
 10
-21.1733917774749
 20
-8.978090936536198
 10
-21.279048853817
 20
-9.016761913338271
 10
-21.37957524278687
 20
-9.065188002665899
 10
-21.47439289124034
 20
-9.122791151374914
 10
-21.56292374603326
 20
-9.188993306321152
 10
-21.64458975402145
 20
-9.26321641436045
 10
-21.71881286206074
 20
-9.344882422348636
 10
-21.78501501700698
 20
-9.433413277141549
 10
-21.84261816571599
 20
-9.528230925595022
 10
-21.89104425504362
 20
-9.628757314564886
 10
-21.92971523184569
 20
-9.734414390906981
 10
-21.95805304297804
 20
-9.844624101477137
 10
-21.97547963529651
 20
-9.958808393131189
 10
-21.98141695565693
 20
-10.07638921272497
 10
-21.97547963529651
 20
-10.19397003231876
 10
-21.95805304297804
 20
-10.30815432397281
 10
-21.92971523184569
 20
-10.41836403454297
 10
-21.89104425504362
 20
-10.52402111088506
 10
-21.84261816571599
 20
-10.62454749985493
 10
-21.78501501700698
 20
-10.7193651483084
 10
-21.71881286206074
 20
-10.80789600310131
 10
-21.64458975402145
 20
-10.8895620110895
 10
-21.56292374603326
 20
-10.96378511912879
 10
-21.47439289124034
 20
-11.02998727407503
 10
-21.37957524278687
 20
-11.08759042278405
 10
-21.279048853817
 20
-11.13601651211167
 10
-21.1733917774749
 20
-11.17468748891374
 10
-21.06318206690474
 20
-11.20302530004609
 10
-20.94899777525068
 20
-11.22045189236456
 10
-20.83141695565689
 20
-11.22638921272497
 10
-20.71383613606311
 20
-11.22045189236456
 10
-20.59965184440906
 20
-11.20302530004609
 10
-20.48944213383891
 20
-11.17468748891374
 10
-20.38378505749682
 20
-11.13601651211167
 10
-20.28325866852695
 20
-11.08759042278405
 10
-20.18844102007348
 20
-11.02998727407503
 10
-20.09991016528057
 20
-10.96378511912879
 10
-20.01824415729239
 20
-10.8895620110895
 10
-19.9440210492531
 20
-10.80789600310131
 10
-19.87781889430686
 20
-10.7193651483084
 10
-19.82021574559784
 20
-10.62454749985493
 10
-19.77178965627022
 20
-10.52402111088506
 10
-19.73311867946815
 20
-10.41836403454297
 10
-19.7047808683358
 20
-10.30815432397281
 10
-19.68735427601733
 20
-10.19397003231876
 10
-19.68141695565691
 20
-10.07638921272497
 10
-19.68735427601733
 20
-9.958808393131189
 10
-19.7047808683358
 20
-9.844624101477137
 10
-19.73311867946815
 20
-9.734414390906981
 10
-19.77178965627022
 20
-9.628757314564886
 10
-19.82021574559784
 20
-9.528230925595022
 10
-19.87781889430686
 20
-9.433413277141549
 10
-19.9440210492531
 20
-9.344882422348636
 10
-20.01824415729239
 20
-9.26321641436045
 10
-20.09991016528057
 20
-9.188993306321152
 10
-20.18844102007348
 20
-9.122791151374914
 10
-20.28325866852695
 20
-9.065188002665899
 10
-20.38378505749682
 20
-9.016761913338271
 10
-20.48944213383891
 20
-8.978090936536198
 10
-20.59965184440906
 20
-8.949753125403845
 10
-20.71383613606311
 20
-8.932326533085378
  0
LWPOLYLINE
  5
50
100
AcDbEntity
  8
0
  6
ByLayer
 62
  256
370
   -1
100
AcDbPolyline
 90
   64
 70
    1
 43
0
 10
-41.54731096549341
 20
-20.92997702317877
 10
-41.66489178508719
 20
-20.93591434353919
 10
-41.77907607674124
 20
-20.95334093585765
 10
-41.88928578731139
 20
-20.98167874699
 10
-41.99494286365349
 20
-21.02034972379207
 10
-42.09546925262336
 20
-21.0687758131197
 10
-42.19028690107682
 20
-21.12637896182871
 10
-42.27881775586974
 20
-21.19258111677495
 10
-42.36048376385791
 20
-21.26680422481425
 10
-42.43470687189721
 20
-21.34847023280243
 10
-42.50090902684344
 20
-21.43700108759535
 10
-42.55851217555247
 20
-21.53181873604882
 10
-42.60693826488009
 20
-21.63234512501868
 10
-42.64560924168215
 20
-21.73800220136078
 10
-42.6739470528145
 20
-21.84821191193094
 10
-42.69137364513297
 20
-21.96239620358499
 10
-42.69731096549339
 20
-22.07997702317878
 10
-42.69137364513297
 20
-22.19755784277256
 10
-42.6739470528145
 20
-22.31174213442662
 10
-42.64560924168215
 20
-22.42195184499678
 10
-42.60693826488009
 20
-22.52760892133887
 10
-42.55851217555247
 20
-22.62813531030874
 10
-42.50090902684344
 20
-22.72295295876221
 10
-42.43470687189721
 20
-22.81148381355512
 10
-42.36048376385791
 20
-22.89314982154331
 10
-42.27881775586974
 20
-22.9673729295826
 10
-42.19028690107682
 20
-23.03357508452884
 10
-42.09546925262336
 20
-23.09117823323786
 10
-41.99494286365349
 20
-23.13960432256548
 10
-41.88928578731139
 20
-23.17827529936755
 10
-41.77907607674124
 20
-23.2066131104999
 10
-41.66489178508719
 20
-23.22403970281837
 10
-41.54731096549341
 20
-23.22997702317878
 10
-41.42973014589961
 20
-23.22403970281837
 10
-41.31554585424556
 20
-23.2066131104999
 10
-41.2053361436754
 20
-23.17827529936755
 10
-41.0996790673333
 20
-23.13960432256548
 10
-40.99915267836343
 20
-23.09117823323786
 10
-40.90433502990996
 20
-23.03357508452884
 10
-40.81580417511704
 20
-22.9673729295826
 10
-40.73413816712885
 20
-22.89314982154331
 10
-40.65991505908956
 20
-22.81148381355512
 10
-40.59371290414332
 20
-22.72295295876221
 10
-40.53610975543431
 20
-22.62813531030874
 10
-40.48768366610668
 20
-22.52760892133887
 10
-40.44901268930461
 20
-22.42195184499678
 10
-40.42067487817226
 20
-22.31174213442662
 10
-40.40324828585379
 20
-22.19755784277256
 10
-40.39731096549338
 20
-22.07997702317878
 10
-40.40324828585379
 20
-21.96239620358499
 10
-40.42067487817226
 20
-21.84821191193094
 10
-40.44901268930461
 20
-21.73800220136078
 10
-40.48768366610668
 20
-21.63234512501868
 10
-40.53610975543431
 20
-21.53181873604882
 10
-40.59371290414332
 20
-21.43700108759535
 10
-40.65991505908956
 20
-21.34847023280243
 10
-40.73413816712885
 20
-21.26680422481425
 10
-40.81580417511704
 20
-21.19258111677495
 10
-40.90433502990996
 20
-21.12637896182871
 10
-40.99915267836343
 20
-21.0687758131197
 10
-41.0996790673333
 20
-21.02034972379207
 10
-41.2053361436754
 20
-20.98167874699
 10
-41.31554585424556
 20
-20.95334093585765
 10
-41.42973014589961
 20
-20.93591434353919
  0
LWPOLYLINE
  5
51
100
AcDbEntity
  8
0
  6
ByLayer
 62
  256
370
   -1
100
AcDbPolyline
 90
   64
 70
    1
 43
0
 10
-60.03551494407833
 20
-10.26733266920804
 10
-60.15309576367211
 20
-10.27326998956845
 10
-60.26728005532616
 20
-10.29069658188692
 10
-60.37748976589631
 20
-10.31903439301927
 10
-60.48314684223842
 20
-10.35770536982134
 10
-60.58367323120829
 20
-10.40613145914897
 10
-60.67849087966177
 20
-10.46373460785798
 10
-60.76702173445467
 20
-10.52993676280422
 10
-60.84868774244286
 20
-10.60415987084351
 10
-60.92291085048217
 20
-10.6858258788317
 10
-60.98911300542841
 20
-10.77435673362461
 10
-61.04671615413743
 20
-10.86917438207808
 10
-61.09514224346506
 20
-10.96970077104795
 10
-61.13381322026713
 20
-11.07535784739004
 10
-61.16215103139948
 20
-11.1855675579602
 10
-61.17957762371795
 20
-11.29975184961426
 10
-61.18551494407836
 20
-11.41733266920804
 10
-61.17957762371795
 20
-11.53491348880183
 10
-61.16215103139948
 20
-11.64909778045589
 10
-61.13381322026713
 20
-11.75930749102605
 10
-61.09514224346506
 20
-11.86496456736814
 10
-61.04671615413743
 20
-11.96549095633801
 10
-60.98911300542841
 20
-12.06030860479148
 10
-60.92291085048217
 20
-12.14883945958439
 10
-60.84868774244286
 20
-12.23050546757257
 10
-60.76702173445467
 20
-12.30472857561186
 10
-60.67849087966177
 20
-12.37093073055809
 10
-60.58367323120829
 20
-12.4285338792671
 10
-60.48314684223842
 20
-12.47695996859473
 10
-60.37748976589631
 20
-12.51563094539679
 10
-60.26728005532616
 20
-12.54396875652914
 10
-60.15309576367211
 20
-12.56139534884761
 10
-60.03551494407833
 20
-12.56733266920802
 10
-59.91793412448455
 20
-12.56139534884761
 10
-59.8037498328305
 20
-12.54396875652915
 10
-59.69354012226034
 20
-12.5156309453968
 10
-59.58788304591824
 20
-12.47695996859473
 10
-59.48735665694836
 20
-12.42853387926711
 10
-59.39253900849489
 20
-12.3709307305581
 10
-59.30400815370199
 20
-12.30472857561186
 10
-59.2223421457138
 20
-12.23050546757257
 10
-59.14811903767449
 20
-12.14883945958439
 10
-59.08191688272825
 20
-12.06030860479147
 10
-59.02431373401923
 20
-11.965490956338
 10
-58.9758876446916
 20
-11.86496456736814
 10
-58.93721666788953
 20
-11.75930749102604
 10
-58.90887885675718
 20
-11.64909778045589
 10
-58.89145226443871
 20
-11.53491348880183
 10
-58.8855149440783
 20
-11.41733266920804
 10
-58.89145226443871
 20
-11.29975184961426
 10
-58.90887885675718
 20
-11.1855675579602
 10
-58.93721666788953
 20
-11.07535784739004
 10
-58.9758876446916
 20
-10.96970077104795
 10
-59.02431373401923
 20
-10.86917438207808
 10
-59.08191688272825
 20
-10.77435673362461
 10
-59.14811903767449
 20
-10.6858258788317
 10
-59.2223421457138
 20
-10.60415987084351
 10
-59.30400815370199
 20
-10.52993676280422
 10
-59.39253900849489
 20
-10.46373460785798
 10
-59.48735665694836
 20
-10.40613145914897
 10
-59.58788304591824
 20
-10.35770536982134
 10
-59.69354012226034
 20
-10.31903439301927
 10
-59.8037498328305
 20
-10.29069658188692
 10
-59.91793412448455
 20
-10.27326998956845
  0
LWPOLYLINE
  5
52
100
AcDbEntity
  8
0
  6
ByLayer
 62
  256
370
   -1
100
AcDbPolyline
 90
   64
 70
    1
 43
0
 10
-60.07297991957034
 20
13.67495171064309
 10
-60.19056073916413
 20
13.66901439028268
 10
-60.30474503081818
 20
13.65158779796422
 10
-60.41495474138833
 20
13.62324998683187
 10
-60.52061181773043
 20
13.5845790100298
 10
-60.62113820670029
 20
13.53615292070218
 10
-60.71595585515376
 20
13.47854977199317
 10
-60.80448670994667
 20
13.41234761704693
 10
-60.88615271793485
 20
13.33812450900764
 10
-60.96037582597414
 20
13.25645850101945
 10
-61.02657798092038
 20
13.16792764622654
 10
-61.0841811296294
 20
13.07310999777307
 10
-61.13260721895702
 20
12.9725836088032
 10
-61.17127819575909
 20
12.86692653246111
 10
-61.19961600689144
 20
12.75671682189095
 10
-61.2170425992099
 20
12.6425325302369
 10
-61.22297991957032
 20
12.52495171064312
 10
-61.2170425992099
 20
12.40737089104933
 10
-61.19961600689144
 20
12.29318659939527
 10
-61.17127819575909
 20
12.18297688882511
 10
-61.13260721895702
 20
12.07731981248301
 10
-61.0841811296294
 20
11.97679342351315
 10
-61.02657798092038
 20
11.88197577505968
 10
-60.96037582597414
 20
11.79344492026677
 10
-60.88615271793485
 20
11.71177891227858
 10
-60.80448670994667
 20
11.63755580423929
 10
-60.71595585515376
 20
11.57135364929306
 10
-60.62113820670029
 20
11.51375050058405
 10
-60.52061181773043
 20
11.46532441125642
 10
-60.41495474138833
 20
11.42665343445435
 10
-60.30474503081818
 20
11.398315623322
 10
-60.19056073916413
 20
11.38088903100354
 10
-60.07297991957034
 20
11.37495171064312
 10
-59.95539909997655
 20
11.38088903100353
 10
-59.84121480832249
 20
11.398315623322
 10
-59.73100509775233
 20
11.42665343445434
 10
-59.62534802141023
 20
11.46532441125641
 10
-59.52482163244036
 20
11.51375050058404
 10
-59.43000398398689
 20
11.57135364929305
 10
-59.34147312919397
 20
11.63755580423929
 10
-59.25980712120579
 20
11.71177891227858
 10
-59.18558401316649
 20
11.79344492026677
 10
-59.11938185822025
 20
11.88197577505968
 10
-59.06177870951124
 20
11.97679342351315
 10
-59.01335262018361
 20
12.07731981248302
 10
-58.97468164338154
 20
12.18297688882512
 10
-58.94634383224919
 20
12.29318659939527
 10
-58.92891723993073
 20
12.40737089104933
 10
-58.92297991957031
 20
12.52495171064312
 10
-58.92891723993073
 20
12.6425325302369
 10
-58.94634383224919
 20
12.75671682189096
 10
-58.97468164338154
 20
12.86692653246112
 10
-59.01335262018361
 20
12.97258360880321
 10
-59.06177870951124
 20
13.07310999777308
 10
-59.11938185822025
 20
13.16792764622654
 10
-59.18558401316649
 20
13.25645850101945
 10
-59.25980712120579
 20
13.33812450900764
 10
-59.34147312919397
 20
13.41234761704693
 10
-59.43000398398689
 20
13.47854977199316
 10
-59.52482163244036
 20
13.53615292070218
 10
-59.62534802141023
 20
13.5845790100298
 10
-59.73100509775233
 20
13.62324998683187
 10
-59.84121480832249
 20
13.65158779796421
 10
-59.95539909997655
 20
13.66901439028268
  0
LWPOLYLINE
  5
53
100
AcDbEntity
  8
0
  6
ByLayer
 62
  256
370
   -1
100
AcDbPolyline
 90
   64
 70
    1
 43
0
 10
-41.59475704822029
 20
24.35488384946088
 10
-41.71233786781407
 20
24.34894652910047
 10
-41.82652215946812
 20
24.33151993678201
 10
-41.93673187003827
 20
24.30318212564966
 10
-42.04238894638037
 20
24.26451114884759
 10
-42.14291533535024
 20
24.21608505951996
 10
-42.2377329838037
 20
24.15848191081095
 10
-42.32626383859662
 20
24.09227975586471
 10
-42.40792984658479
 20
24.01805664782542
 10
-42.48215295462408
 20
23.93639063983724
 10
-42.54835510957032
 20
23.84785978504432
 10
-42.60595825827934
 20
23.75304213659085
 10
-42.65438434760696
 20
23.65251574762098
 10
-42.69305532440903
 20
23.54685867127889
 10
-42.72139313554138
 20
23.43664896070873
 10
-42.73881972785985
 20
23.32246466905468
 10
-42.74475704822027
 20
23.20488384946089
 10
-42.73881972785985
 20
23.0873030298671
 10
-42.72139313554138
 20
22.97311873821305
 10
-42.69305532440903
 20
22.86290902764289
 10
-42.65438434760696
 20
22.7572519513008
 10
-42.60595825827934
 20
22.65672556233093
 10
-42.54835510957032
 20
22.56190791387746
 10
-42.48215295462408
 20
22.47337705908455
 10
-42.40792984658479
 20
22.39171105109637
 10
-42.32626383859662
 20
22.31748794305708
 10
-42.2377329838037
 20
22.25128578811085
 10
-42.14291533535024
 20
22.19368263940183
 10
-42.04238894638037
 20
22.14525655007421
 10
-41.93673187003827
 20
22.10658557327214
 10
-41.82652215946812
 20
22.07824776213979
 10
-41.71233786781407
 20
22.06082116982133
 10
-41.59475704822029
 20
22.05488384946091
 10
-41.47717622862649
 20
22.06082116982132
 10
-41.36299193697243
 20
22.07824776213979
 10
-41.25278222640227
 20
22.10658557327213
 10
-41.14712515006018
 20
22.1452565500742
 10
-41.04659876109031
 20
22.19368263940183
 10
-40.95178111263684
 20
22.25128578811085
 10
-40.86325025784392
 20
22.31748794305708
 10
-40.78158424985573
 20
22.39171105109637
 10
-40.70736114181643
 20
22.47337705908456
 10
-40.6411589868702
 20
22.56190791387747
 10
-40.58355583816119
 20
22.65672556233094
 10
-40.53512974883355
 20
22.75725195130081
 10
-40.49645877203149
 20
22.8629090276429
 10
-40.46812096089914
 20
22.97311873821306
 10
-40.45069436858067
 20
23.08730302986711
 10
-40.44475704822025
 20
23.20488384946089
 10
-40.45069436858067
 20
23.32246466905468
 10
-40.46812096089914
 20
23.43664896070874
 10
-40.49645877203149
 20
23.5468586712789
 10
-40.53512974883355
 20
23.65251574762099
 10
-40.58355583816119
 20
23.75304213659085
 10
-40.6411589868702
 20
23.84785978504432
 10
-40.70736114181643
 20
23.93639063983724
 10
-40.78158424985573
 20
24.01805664782542
 10
-40.86325025784392
 20
24.09227975586471
 10
-40.95178111263684
 20
24.15848191081094
 10
-41.04659876109031
 20
24.21608505951996
 10
-41.14712515006018
 20
24.26451114884758
 10
-41.25278222640227
 20
24.30318212564965
 10
-41.36299193697243
 20
24.331519936782
 10
-41.47717622862649
 20
24.34894652910047
  0
LWPOLYLINE
  5
54
100
AcDbEntity
  8
0
  6
ByLayer
 62
  256
370
   -1
100
AcDbPolyline
 90
   64
 70
    1
 43
0
 10
-20.84139806289198
 20
12.41618728006348
 10
-20.95897888248577
 20
12.41024995970307
 10
-21.07316317413983
 20
12.3928233673846
 10
-21.18337288471
 20
12.36448555625226
 10
-21.28902996105209
 20
12.32581457945019
 10
-21.38955635002196
 20
12.27738849012256
 10
-21.48437399847543
 20
12.21978534141355
 10
-21.57290485326835
 20
12.15358318646732
 10
-21.65457086125654
 20
12.07936007842802
 10
-21.72879396929584
 20
11.99769407043983
 10
-21.79499612424207
 20
11.90916321564692
 10
-21.85259927295109
 20
11.81434556719345
 10
-21.90102536227871
 20
11.71381917822358
 10
-21.93969633908079
 20
11.60816210188149
 10
-21.96803415021314
 20
11.49795239131134
 10
-21.9854607425316
 20
11.38376809965728
 10
-21.99139806289202
 20
11.2661872800635
 10
-21.9854607425316
 20
11.14860646046971
 10
-21.96803415021314
 20
11.03442216881565
 10
-21.93969633908079
 20
10.9242124582455
 10
-21.90102536227871
 20
10.8185553819034
 10
-21.85259927295109
 20
10.71802899293353
 10
-21.79499612424207
 20
10.62321134448006
 10
-21.72879396929584
 20
10.53468048968715
 10
-21.65457086125654
 20
10.45301448169897
 10
-21.57290485326835
 20
10.37879137365968
 10
-21.48437399847543
 20
10.31258921871344
 10
-21.38955635002196
 20
10.25498607000443
 10
-21.28902996105209
 20
10.20655998067681
 10
-21.18337288471
 20
10.16788900387474
 10
-21.07316317413983
 20
10.13955119274239
 10
-20.95897888248577
 20
10.12212460042392
 10
-20.84139806289198
 20
10.11618728006351
 10
-20.7238172432982
 20
10.12212460042392
 10
-20.60963295164415
 20
10.13955119274238
 10
-20.499423241074
 20
10.16788900387473
 10
-20.39376616473191
 20
10.2065599806768
 10
-20.29323977576204
 20
10.25498607000442
 10
-20.19842212730858
 20
10.31258921871343
 10
-20.10989127251566
 20
10.37879137365967
 10
-20.02822526452748
 20
10.45301448169896
 10
-19.95400215648819
 20
10.53468048968715
 10
-19.88780000154195
 20
10.62321134448006
 10
-19.83019685283293
 20
10.71802899293354
 10
-19.78177076350531
 20
10.8185553819034
 10
-19.74309978670324
 20
10.9242124582455
 10
-19.71476197557089
 20
11.03442216881566
 10
-19.69733538325242
 20
11.14860646046971
 10
-19.69139806289201
 20
11.2661872800635
 10
-19.69733538325242
 20
11.38376809965728
 10
-19.71476197557089
 20
11.49795239131134
 10
-19.74309978670324
 20
11.6081621018815
 10
-19.78177076350531
 20
11.71381917822359
 10
-19.83019685283293
 20
11.81434556719346
 10
-19.88780000154195
 20
11.90916321564693
 10
-19.95400215648819
 20
11.99769407043984
 10
-20.02822526452748
 20
12.07936007842802
 10
-20.10989127251566
 20
12.15358318646731
 10
-20.19842212730858
 20
12.21978534141354
 10
-20.29323977576204
 20
12.27738849012256
 10
-20.39376616473191
 20
12.32581457945018
 10
-20.499423241074
 20
12.36448555625225
 10
-20.60963295164415
 20
12.3928233673846
 10
-20.7238172432982
 20
12.41024995970306
  0
LWPOLYLINE
  5
55
100
AcDbEntity
  8
0
  6
ByLayer
 62
  256
370
   -1
100
AcDbPolyline
 90
   66
 70
    1
 43
0
 10
54.59388378079804
 20
6.152420239444631
 10
58.72825715433671
 20
13.39926838676819
 10
58.83555212832474
 20
13.56822330617583
 10
58.9522100535785
 20
13.71698709272911
 10
59.07718063584582
 20
13.846158946039
 10
59.20941358087451
 20
13.95633806571646
 10
59.3478585944124
 20
14.04812365137245
 10
59.49146538220731
 20
14.12211490261794
 10
59.63918365000707
 20
14.17891101906389
 10
59.78996310355949
 20
14.21911120032127
 10
59.94275344861239
 20
14.24331464600103
 10
60.09650439091359
 20
14.25212055571415
 10
60.25016563621094
 20
14.24612812907158
 10
60.40268689025223
 20
14.22593656568428
 10
60.55301785878528
 20
14.19214506516323
 10
60.70010824755794
 20
14.14535282711939
 10
60.84290776231799
 20
14.08615905116371
 10
60.98036610881329
 20
14.01516293690717
 10
61.11143299279163
 20
13.93296368396072
 10
61.23505812000086
 20
13.84016049193533
 10
61.3501911961888
 20
13.73735256044196
 10
61.45578192710325
 20
13.62513908909158
 10
61.55078001849204
 20
13.50411927749515
 10
61.63413517610299
 20
13.37489232526363
 10
61.70479710568394
 20
13.23805743200798
 10
61.76171551298268
 20
13.09421379733918
 10
61.80384010374706
 20
12.94396062086818
 10
61.83012058372488
 20
12.78789710220595
 10
61.83950665866397
 20
12.62662244096345
 10
61.83094803431216
 20
12.46073583675164
 10
61.80339441641727
 20
12.29083648918149
 10
61.7557955107271
 20
12.11752359786396
 10
61.6871010229895
 20
11.94139636241001
 10
61.59626065895227
 20
11.76305398243061
 10
57.46188728541352
 20
4.516205835107051
 10
57.35459231142549
 20
4.347250915699419
 10
57.23793438617173
 20
4.198487129146142
 10
57.11296380390441
 20
4.069315275836258
 10
56.98073085887572
 20
3.959136156158803
 10
56.84228584533783
 20
3.867350570502814
 10
56.69867905754292
 20
3.793359319257327
 10
56.55096078974316
 20
3.73656320281138
 10
56.40018133619075
 20
3.696363021554006
 10
56.24739099113785
 20
3.672159575874246
 10
56.09364004883665
 20
3.663353666161133
 10
55.93997880353932
 20
3.669346092803705
 10
55.78745754949803
 20
3.689537656190999
 10
55.63712658096497
 20
3.723329156712051
 10
55.49003619219233
 20
3.770121394755897
 10
55.34723667743227
 20
3.829315170711574
 10
55.20977833093698
 20
3.900311284968119
 10
55.07871144695864
 20
3.982510537914568
 10
54.95508631974941
 20
4.075313729939957
 10
54.83995324356148
 20
4.178121661433323
 10
54.73436251264704
 20
4.290335132783704
 10
54.63936442125825
 20
4.411354944380134
 10
54.5560092636473
 20
4.540581896611651
 10
54.48534733406636
 20
4.677416789867292
 10
54.42842892676762
 20
4.821260424536092
 10
54.38630433600326
 20
4.971513601007088
 10
54.36002385602544
 20
5.127577119669318
 10
54.35063778108634
 20
5.288851780911816
 10
54.35919640543815
 20
5.454738385123622
 10
54.38675002333304
 20
5.624637732693769
 10
54.43434892902321
 20
5.797950624011295
 10
54.50304341676081
 20
5.974077859465236
  0
LWPOLYLINE
  5
56
100
AcDbEntity
  8
0
  6
ByLayer
 62
  256
370
   -1
100
AcDbPolyline
 90
   66
 70
    1
 43
0
 10
36.05103268261934
 20
16.71974459917765
 10
40.18540605615786
 20
23.96659274650124
 10
40.29270103014589
 20
24.13554766590889
 10
40.40935895539965
 20
24.28431145246218
 10
40.53432953766698
 20
24.41348330577208
 10
40.66656248269567
 20
24.52366242544954
 10
40.80500749623357
 20
24.61544801110554
 10
40.94861428402849
 20
24.68943926235104
 10
41.09633255182825
 20
24.746235378797
 10
41.24711200538068
 20
24.78643556005437
 10
41.39990235043359
 20
24.81063900573414
 10
41.5536532927348
 20
24.81944491544726
 10
41.70731453803214
 20
24.81345248880469
 10
41.85983579207344
 20
24.7932609254174
 10
42.01016676060651
 20
24.75946942489635
 10
42.15725714937916
 20
24.7126771868525
 10
42.30005666413923
 20
24.65348341089682
 10
42.43751501063453
 20
24.58248729664027
 10
42.56858189461288
 20
24.50028804369382
 10
42.69220702182213
 20
24.40748485166843
 10
42.80734009801006
 20
24.30467692017505
 10
42.91293082892452
 20
24.19246344882467
 10
43.00792892031332
 20
24.07144363722823
 10
43.09128407792427
 20
23.94221668499671
 10
43.16194600750522
 20
23.80538179174106
 10
43.21886441480397
 20
23.66153815707225
 10
43.26098900556835
 20
23.51128498060124
 10
43.28726948554618
 20
23.355221461939
 10
43.29665556048528
 20
23.19394680069649
 10
43.28809693613347
 20
23.02806019648467
 10
43.26054331823858
 20
22.85816084891451
 10
43.21294441254842
 20
22.68484795759697
 10
43.14424992481081
 20
22.50872072214302
 10
43.05340956077359
 20
22.33037834216361
 10
38.9190361872348
 20
15.08353019484007
 10
38.81174121324678
 20
14.91457527543244
 10
38.69508328799302
 20
14.76581148887916
 10
38.57011270572571
 20
14.63663963556927
 10
38.43787976069702
 20
14.52646051589181
 10
38.29943474715913
 20
14.43467493023582
 10
38.15582795936422
 20
14.36068367899034
 10
38.00810969156446
 20
14.30388756254439
 10
37.85733023801205
 20
14.26368738128701
 10
37.70453989295915
 20
14.23948393560725
 10
37.55078895065795
 20
14.23067802589414
 10
37.39712770536061
 20
14.23667045253671
 10
37.24460645131932
 20
14.256862015924
 10
37.09427548278627
 20
14.29065351644505
 10
36.94718509401362
 20
14.3374457544889
 10
36.80438557925356
 20
14.39663953044457
 10
36.66692723275827
 20
14.46763564470112
 10
36.53586034877992
 20
14.54983489764757
 10
36.4122352215707
 20
14.64263808967296
 10
36.29710214538277
 20
14.74544602116632
 10
36.19151141446832
 20
14.8576594925167
 10
36.09651332307953
 20
14.97867930411314
 10
36.01315816546857
 20
15.10790625634465
 10
35.94249623588763
 20
15.2447411496003
 10
35.88557782858889
 20
15.3885847842691
 10
35.84345323782453
 20
15.5388379607401
 10
35.81717275784671
 20
15.69490147940233
 10
35.80778668290761
 20
15.85617614064483
 10
35.81634530725943
 20
16.02206274485663
 10
35.84389892515433
 20
16.19196209242678
 10
35.8914978308445
 20
16.36527498374431
 10
35.96019231858211
 20
16.54140221919826
  0
LWPOLYLINE
  5
57
100
AcDbEntity
  8
0
  6
ByLayer
 62
  256
370
   -1
100
AcDbPolyline
 90
  271
 70
    1
 43
0
 10
33.87844536689056
 20
12.70037034550409
 10
26.30636993958274
 20
25.66103922996177
 10
26.22185736004623
 20
25.8150967432487
 10
26.14673117832721
 20
25.97155651257685
 10
26.08088733543222
 20
26.13009208964491
 10
26.0242217723678
 20
26.2903770261516
 10
25.97663043014049
 20
26.45208487379564
 10
25.93800924975684
 20
26.61488918427575
 10
25.90825417222339
 20
26.77846350929062
 10
25.88726113854668
 20
26.94248140053898
 10
25.87492608973326
 20
27.10661640971954
 10
25.87114496678967
 20
27.27054208853102
 10
25.87581371072245
 20
27.43393198867212
 10
25.88882826253814
 20
27.59645966184156
 10
25.91008456324329
 20
27.75779865973806
 10
25.93947855384444
 20
27.91762253406033
 10
25.97690617534813
 20
28.07560483650707
 10
26.02226336876092
 20
28.23141911877702
 10
26.07544607508933
 20
28.38473893256887
 10
26.13635023533991
 20
28.53523782958134
 10
26.20487179051921
 20
28.68258936151315
 10
26.28090668163377
 20
28.826467080063
 10
26.36435084969012
 20
28.96654453692962
 10
26.45510023569482
 20
29.10249528381171
 10
26.55305078065441
 20
29.233992872408
 10
26.65809842557542
 20
29.36071085441719
 10
26.77013911146441
 20
29.48232278153799
 10
26.88906877932791
 20
29.59850220546912
 10
27.01478337017248
 20
29.7089226779093
 10
27.14717882500464
 20
29.81325775055723
 10
27.28615108483095
 20
29.91118097511164
 10
27.43159609065794
 20
30.00236590327123
 10
27.58340978349216
 20
30.08648608673471
 10
27.74148810434016
 20
30.16321507720081
 10
28.21251242847282
 20
30.3720183343685
 10
28.68457296904145
 20
30.57271025134408
 10
29.15760190000061
 20
30.7653295239875
 10
29.63153139530485
 20
30.94991484815873
 10
30.1062936289087
 20
31.12650491971774
 10
30.58182077476673
 20
31.29513843452447
 10
31.05804500683346
 20
31.4558540884389
 10
31.53489849906346
 20
31.60869057732098
 10
32.01231342541126
 20
31.75368659703066
 10
32.49022195983142
 20
31.89088084342793
 10
32.96855627627847
 20
32.02031201237273
 10
33.44724854870698
 20
32.14201879972503
 10
34.40543565732653
 20
32.36241401309196
 10
35.36424067732644
 20
32.5523760504084
 10
36.32312100034307
 20
32.71221447855403
 10
37.28153401801281
 20
32.84223886440856
 10
38.23893712197203
 20
32.94275877485167
 10
39.1947877038571
 20
33.01408377676303
 10
40.14854315530441
 20
33.05652343702235
 10
41.09966086795032
 20
33.0703873225093
 10
42.0475982334312
 20
33.05598500010357
 10
42.99181264338345
 20
33.01362603668485
 10
43.93176148944343
 20
32.94361999913284
 10
44.86690216324752
 20
32.8462764543272
 10
45.79669205643207
 20
32.72190496914764
 10
46.72058856063349
 20
32.57081511047384
 10
47.63804906748813
 20
32.39331644518549
 10
48.54853096863238
 20
32.18971854016227
 10
49.45149165570261
 20
31.96033096228387
 10
50.34638852033519
 20
31.70546327842998
 10
51.2326789541665
 20
31.42542505548028
 10
52.10982034883292
 20
31.12052586031446
 10
52.97727009597082
 20
30.79107525981221
 10
53.83448558721656
 20
30.43738282085322
 10
54.68092421420654
 20
30.05975811031717
 10
55.51604336857713
 20
29.65851069508374
 10
56.3393004419647
 20
29.23395014203264
 10
57.15015282600561
 20
28.78638601804354
 10
57.94805791233626
 20
28.31612788999613
 10
58.73247309259301
 20
27.8234853247701
 10
59.50285575841224
 20
27.30876788924514
 10
60.25866330143032
 20
26.77228515030092
 10
60.99935311328363
 20
26.21434667481715
 10
61.72438258560855
 20
25.6352620296735
 10
62.43320911004145
 20
25.03534078174966
 10
63.1252900782187
 20
24.41489249792533
 10
63.80008288177667
 20
23.77422674508018
 10
64.45704491235175
 20
23.11365309009391
 10
65.0956335615803
 20
22.4334810998462
 10
65.71530622109873
 20
21.73402034121674
 10
66.31552028254336
 20
21.01558038108521
 10
66.89573313755062
 20
20.27847078633131
 10
67.45540217775684
 20
19.52300112383472
 10
67.99398479479842
 20
18.74948096047512
 10
68.51093838031173
 20
17.95821986313221
 10
69.00572032593314
 20
17.14952739868566
 10
69.47778802329904
 20
16.32371313401518
 10
69.92659886404577
 20
15.48108663600044
 10
70.35161023980976
 20
14.62195747152114
 10
70.75227954222731
 20
13.74663520745695
 10
71.12806416293488
 20
12.85542941068757
 10
71.47842149356877
 20
11.94864964809268
 10
71.8028089257654
 20
11.02660548655198
 10
71.9550943648361
 20
10.55995599582684
 10
72.10068385116114
 20
10.08960649294514
 10
72.23950955869505
 20
9.615595673766821
 10
72.37150366139235
 20
9.137962234151853
 10
72.49659833320763
 20
8.656744869960196
 10
72.61472574809542
 20
8.171982277051811
 10
72.72581808001027
 20
7.683713151286659
 10
72.82980750290672
 20
7.191976188524698
 10
72.92662619073931
 20
6.696810084625893
 10
73.01620631746262
 20
6.198253535450202
 10
73.09848005703115
 20
5.696345236857586
 10
73.17337958339948
 20
5.191123884708007
 10
73.24083707052215
 20
4.682628174861427
 10
73.3007846923537
 20
4.170896803177804
 10
73.31544382400546
 20
3.996057494991585
 10
73.32056298265195
 20
3.82283206397746
 10
73.31636953685687
 20
3.651476235687822
 10
73.30309085518392
 20
3.482245735675064
 10
73.2809543061968
 20
3.31539628949158
 10
73.25018725845918
 20
3.151183622689763
 10
73.21101708053476
 20
2.989863460822008
 10
73.16367114098722
 20
2.831691529440706
 10
73.10837680838026
 20
2.676923554098251
 10
73.04536145127759
 20
2.525815260347039
 10
72.97485243824286
 20
2.37862237373946
 10
72.8970771378398
 20
2.23560061982791
 10
72.81226291863209
 20
2.09700572416478
 10
72.72063714918342
 20
1.963093412302466
 10
72.62242719805747
 20
1.83411940979336
 10
72.51786043381794
 20
1.710339442189856
 10
72.40716422502852
 20
1.592009235044346
 10
72.2905659402529
 20
1.479384513909226
 10
72.16829294805477
 20
1.372721004336888
 10
72.04057261699784
 20
1.272274431879725
 10
71.90763231564577
 20
1.17830052209013
 10
71.76969941256226
 20
1.091055000520499
 10
71.62700127631101
 20
1.010793592723223
 10
71.4797652754557
 20
0.9377720242506964
 10
71.32821877856004
 20
0.8722460206553125
 10
71.1725891541877
 20
0.8144713074894647
 10
71.01310377090239
 20
0.7647036103055467
 10
70.8499899972678
 20
0.7231986546559515
 10
70.6834752018476
 20
0.6902121660930728
 10
70.51378675320549
 20
0.6659998701693041
 10
70.34115201990517
 20
0.6508174924370387
 10
70.16579837051033
 20
0.64492075844867
 10
55.28988484339074
 20
0.568337394353243
 10
54.99272496939611
 20
0.6239168995259565
 10
54.70165690257632
 20
0.6974120801361424
 10
54.41735744900861
 20
0.7883117155329464
 10
54.14050341477022
 20
0.8961045850655145
 10
53.87177160593841
 20
1.020279468082992
 10
53.61183882859039
 20
1.160325143934526
 10
53.36138188880342
 20
1.315730391969261
 10
53.12107759265473
 20
1.485983991536344
 10
52.89160274622156
 20
1.670574721984919
 10
52.67363415558114
 20
1.868991362664134
 10
52.46784862681073
 20
2.080722692923134
 10
52.27492296598755
 20
2.305257492111065
 10
52.09553397918884
 20
2.542084539577072
 10
51.93035847249186
 20
2.790692614670302
 10
51.78007325197383
 20
3.0505704967399
 10
51.64535512371199
 20
3.321206965135012
 10
50.96297897324242
 20
5.189319865516062
 10
50.85793523030706
 20
5.139913686485298
 10
50.75424007810432
 20
5.102925964903767
 10
50.6522321700356
 20
5.077780825315275
 10
50.55225015950234
 20
5.063902392263623
 10
50.45463269990594
 20
5.060714790292622
 10
50.35971844464783
 20
5.067642143946074
 10
50.2678460471294
 20
5.084108577767786
 10
50.17935416075211
 20
5.109538216301564
 10
50.09458143891736
 20
5.143355184091211
 10
50.01386653502657
 20
5.184983605680536
 10
49.93754810248114
 20
5.233847605613343
 10
49.86596479468251
 20
5.289371308433436
 10
49.79945526503209
 20
5.350978838684623
 10
49.73835816693131
 20
5.418094320910707
 10
49.6337558789843
 20
5.566545639462792
 10
49.5909279959409
 20
5.646729724876403
 10
49.55486715805282
 20
5.730118260440135
 10
49.52591201872144
 20
5.816135370697793
 10
49.50440123134821
 20
5.904205180193181
 10
49.49067344933453
 20
5.993751813470105
 10
49.48506732608182
 20
6.084199395072373
 10
49.48792151499151
 20
6.174972049543787
 10
49.49957466946501
 20
6.265493901428155
 10
49.52036544290373
 20
6.355189075269281
 10
49.5506324887091
 20
6.44348169561097
 10
49.59071446028253
 20
6.529795886997031
 10
49.64095001102544
 20
6.613555773971264
 10
49.70167779433926
 20
6.694185481077479
 10
49.77323646362538
 20
6.77110913285948
 10
49.85596467228525
 20
6.843750853861073
 10
49.95020107372027
 20
6.911534768626062
 10
49.77084327488417
 20
7.154357519527956
 10
49.58544775165637
 20
7.391493980978692
 10
49.39415655438563
 20
7.622863648499881
 10
49.1971117334207
 20
7.848386017613137
 10
48.99445533911035
 20
8.067980583840074
 10
48.78632942180336
 20
8.281566842702304
 10
48.57287603184848
 20
8.489064289721439
 10
48.35423721959449
 20
8.690392420419093
 10
48.13055503539016
 20
8.885470730316877
 10
47.90197152958424
 20
9.074218714936407
 10
47.66862875252551
 20
9.256555869799294
 10
47.43066875456272
 20
9.432401690427152
 10
47.18823358604466
 20
9.601675672341594
 10
46.94146529732008
 20
9.764297311064231
 10
46.69050593873776
 20
9.920186102116677
 10
46.43549756064645
 20
10.06926154102054
 10
46.17658221339494
 20
10.21144312329745
 10
45.91390194733196
 20
10.346650344469
 10
45.64759881280631
 20
10.47480270005681
 10
45.37781486016674
 20
10.5958196855825
 10
45.10469213976203
 20
10.70962079656767
 10
44.82837270194094
 20
10.81612552853394
 10
44.54899859705222
 20
10.91525337700293
 10
44.26671187544466
 20
11.00692383749624
 10
43.98165458746702
 20
11.09105640553549
 10
43.69396878346807
 20
11.16757057664229
 10
43.40379651379656
 20
11.23638584633826
 10
43.11127982880127
 20
11.297421710145
 10
42.81656077883097
 20
11.35059766358413
 10
42.51978141423442
 20
11.39583320217727
 10
42.22108378536038
 20
11.43304782144602
 10
41.92060994255763
 20
11.462161016912
 10
41.91087507723451
 20
11.34648737750599
 10
41.89105980765085
 20
11.23819088065836
 10
41.86183218328183
 20
11.1372768710897
 10
41.82386025360264
 20
11.04375069352062
 10
41.77781206808848
 20
10.95761769267174
 10
41.72435567621453
 20
10.87888321326365
 10
41.66415912745597
 20
10.80755260001698
 10
41.59789047128803
 20
10.74363119765233
 10
41.52621775718585
 20
10.68712435089031
 10
41.44980903462465
 20
10.63803740445152
 10
41.3693323530796
 20
10.59637570305658
 10
41.28545576202591
 20
10.5621445914261
 10
41.19884731093876
 20
10.53534941428068
 10
41.11017504929333
 20
10.51599551634093
 10
40.92931129222842
 20
10.49963293696088
 10
40.83845589575932
 20
10.5026349449618
 10
40.7482088866327
 20
10.51309961105083
 10
40.65923831432375
 20
10.53103227994857
 10
40.57221222830767
 20
10.55643829637564
 10
40.48779867805965
 20
10.58932300505264
 10
40.40666571305486
 20
10.62969175070018
 10
40.32948138276851
 20
10.67754987803888
 10
40.25691373667578
 20
10.73290273178934
 10
40.18963082425186
 20
10.79575565667216
 10
40.12830069497195
 20
10.86611399740797
 10
40.07359139831122
 20
10.94398309871736
 10
40.02617098374488
 20
11.02936830532094
 10
39.98670750074811
 20
11.12227496193933
 10
39.95586899879609
 20
11.22270841329313
 10
39.93432352736402
 20
11.33067400410295
 10
39.92273913592709
 20
11.4461770790894
 10
37.8651553856313
 20
11.04123961775613
 10
37.57773193997831
 20
11.0084862113726
 10
37.29119687319182
 20
10.99567897199785
 10
37.00645279178563
 20
11.00244226604052
 10
36.72440230227352
 20
11.02840045990922
 10
36.44594801116932
 20
11.07317792001258
 10
36.17199252498681
 20
11.13639901275923
 10
35.9034384502398
 20
11.21768810455779
 10
35.64118839344206
 20
11.31666956181689
 10
35.38614496110742
 20
11.43296775094516
 10
35.13921075974967
 20
11.56620703835121
 10
34.90128839588262
 20
11.71601179044367
 10
34.67328047602004
 20
11.88200637363118
 10
34.45608960667575
 20
12.06381515432235
 10
34.25061839436353
 20
12.2610624989258
 10
34.0577694455972
 20
12.47337277385018
  0
LWPOLYLINE
  5
58
100
AcDbEntity
  8
0
  6
ByLayer
 62
  256
370
   -1
100
AcDbPolyline
 90
   66
 70
    1
 43
0
 10
13.69543307083481
 20
6.152420239444631
 10
17.82980644437353
 20
13.39926838676819
 10
17.93710141836156
 20
13.56822330617583
 10
18.05375934361532
 20
13.71698709272911
 10
18.17872992588264
 20
13.846158946039
 10
18.31096287091133
 20
13.95633806571646
 10
18.44940788444922
 20
14.04812365137245
 10
18.59301467224413
 20
14.12211490261794
 10
18.74073294004388
 20
14.17891101906389
 10
18.8915123935963
 20
14.21911120032127
 10
19.04430273864919
 20
14.24331464600103
 10
19.1980536809504
 20
14.25212055571414
 10
19.35171492624774
 20
14.24612812907157
 10
19.50423618028902
 20
14.22593656568428
 10
19.65456714882207
 20
14.19214506516322
 10
19.80165753759472
 20
14.14535282711938
 10
19.94445705235478
 20
14.0861590511637
 10
20.08191539885007
 20
14.01516293690716
 10
20.21298228282842
 20
13.93296368396071
 10
20.33660741003765
 20
13.84016049193532
 10
20.45174048622558
 20
13.73735256044195
 10
20.55733121714002
 20
13.62513908909157
 10
20.65232930852881
 20
13.50411927749514
 10
20.73568446613977
 20
13.37489232526362
 10
20.80634639572071
 20
13.23805743200797
 10
20.86326480301945
 20
13.09421379733917
 10
20.90538939378383
 20
12.94396062086817
 10
20.93166987376165
 20
12.78789710220594
 10
20.94105594870075
 20
12.62662244096344
 10
20.93249732434894
 20
12.46073583675163
 10
20.90494370645404
 20
12.29083648918148
 10
20.85734480076388
 20
12.11752359786395
 10
20.78865031302627
 20
11.94139636241001
 10
20.69780994898905
 20
11.76305398243061
 10
16.5634365754506
 20
4.516205835107051
 10
16.45614160146257
 20
4.347250915699398
 10
16.3394836762088
 20
4.198487129146102
 10
16.21451309394148
 20
4.0693152758362
 10
16.08228014891279
 20
3.959136156158729
 10
15.94383513537489
 20
3.867350570502726
 10
15.80022834757997
 20
3.793359319257226
 10
15.65251007978021
 20
3.736563202811266
 10
15.50173062622779
 20
3.696363021553883
 10
15.34894028117487
 20
3.672159575874112
 10
15.19518933887366
 20
3.663353666160992
 10
15.04152809357631
 20
3.669346092803558
 10
14.88900683953502
 20
3.689537656190847
 10
14.73867587100196
 20
3.723329156711895
 10
14.5915854822293
 20
3.770121394755738
 10
14.44878596746923
 20
3.829315170711414
 10
14.31132762097392
 20
3.900311284967959
 10
14.18026073699556
 20
3.982510537914409
 10
14.05663560978632
 20
4.075313729939801
 10
13.94150253359838
 20
4.17812166143317
 10
13.83591180268392
 20
4.290335132783556
 10
13.74091371129511
 20
4.411354944379993
 10
13.65755855368415
 20
4.540581896611518
 10
13.5868966241032
 20
4.677416789867166
 10
13.52997821680444
 20
4.821260424535977
 10
13.48785362604006
 20
4.971513601006984
 10
13.46157314606223
 20
5.127577119669226
 10
13.45218707112313
 20
5.288851780911736
 10
13.46074569547493
 20
5.454738385123555
 10
13.48829931336982
 20
5.624637732693717
 10
13.53589821905998
 20
5.797950624011261
 10
13.60459270679758
 20
5.974077859465218
  0
LWPOLYLINE
  5
59
100
AcDbEntity
  8
0
  6
ByLayer
 62
  256
370
   -1
100
AcDbPolyline
 90
   66
 70
    1
 43
0
 10
-4.847418027343565
 20
16.71974459917765
 10
-0.7130446538048432
 20
23.96659274650124
 10
-0.6057496798168148
 20
24.13554766590888
 10
-0.4890917545630525
 20
24.28431145246216
 10
-0.3641211722957348
 20
24.41348330577204
 10
-0.2318882272670401
 20
24.52366242544949
 10
-0.093443213729147
 20
24.61544801110548
 10
0.0501635740657661
 20
24.68943926235097
 10
0.1978818418655205
 20
24.74623537879692
 10
0.3486612954179378
 20
24.78643556005429
 10
0.5014516404708395
 20
24.81063900573406
 10
0.6552025827720469
 20
24.81944491544716
 10
0.8088638280693816
 20
24.81345248880459
 10
0.9613850821106652
 20
24.7932609254173
 10
1.111716050643719
 20
24.75946942489624
 10
1.258806439416364
 20
24.7126771868524
 10
1.401605954176423
 20
24.65348341089671
 10
1.539064300671717
 20
24.58248729664017
 10
1.670131184650066
 20
24.50028804369372
 10
1.793756311859293
 20
24.40748485166832
 10
1.90888938804722
 20
24.30467692017496
 10
2.014480118961667
 20
24.19246344882457
 10
2.109478210350456
 20
24.07144363722814
 10
2.192833367961409
 20
23.94221668499662
 10
2.263495297542346
 20
23.80538179174097
 10
2.320413704841091
 20
23.66153815707217
 10
2.362538295605463
 20
23.51128498060117
 10
2.388818775583285
 20
23.35522146193894
 10
2.398204850522378
 20
23.19394680069643
 10
2.389646226170563
 20
23.02806019648462
 10
2.362092608275662
 20
22.85816084891447
 10
2.314493702585497
 20
22.68484795759694
 10
2.245799214847888
 20
22.508720722143
 10
2.154958850810658
 20
22.33037834216361
 10
-1.979414522728064
 20
15.08353019484007
 10
-2.086709496716089
 20
14.91457527543243
 10
-2.203367421969848
 20
14.76581148887915
 10
-2.328338004237162
 20
14.63663963556926
 10
-2.460570949265855
 20
14.52646051589181
 10
-2.599015962803747
 20
14.43467493023581
 10
-2.742622750598659
 20
14.36068367899032
 10
-2.890341018398412
 20
14.30388756254437
 10
-3.041120471950829
 20
14.263687381287
 10
-3.19391081700373
 20
14.23948393560723
 10
-3.347661759304938
 20
14.23067802589412
 10
-3.501323004602273
 20
14.23667045253669
 10
-3.653844258643557
 20
14.25686201592398
 10
-3.804175227176612
 20
14.29065351644503
 10
-3.951265615949258
 20
14.33744575448888
 10
-4.094065130709318
 20
14.39663953044455
 10
-4.231523477204613
 20
14.4676356447011
 10
-4.362590361182964
 20
14.54983489764755
 10
-4.486215488392192
 20
14.64263808967294
 10
-4.60134856458012
 20
14.7454460211663
 10
-4.706939295494569
 20
14.85765949251669
 10
-4.801937386883359
 20
14.97867930411312
 10
-4.885292544494312
 20
15.10790625634464
 10
-4.955954474075252
 20
15.24474114960028
 10
-5.012872881373998
 20
15.38858478426908
 10
-5.054997472138371
 20
15.53883796074008
 10
-5.081277952116194
 20
15.69490147940231
 10
-5.090664027055286
 20
15.85617614064481
 10
-5.082105402703473
 20
16.02206274485662
 10
-5.054551784808572
 20
16.19196209242678
 10
-5.006952879118405
 20
16.36527498374431
 10
-4.938258391380796
 20
16.54140221919825
  0
LWPOLYLINE
  5
5A
100
AcDbEntity
  8
0
  6
ByLayer
 62
  256
370
   -1
100
AcDbPolyline
 90
  271
 70
    1
 43
0
 10
-7.020005343072384
 20
12.70037034550409
 10
-14.59208077038021
 20
25.66103922996177
 10
-14.67659334991672
 20
25.8150967432487
 10
-14.75171953163574
 20
25.97155651257683
 10
-14.81756337453074
 20
26.13009208964489
 10
-14.87422893759517
 20
26.29037702615157
 10
-14.92182027982248
 20
26.45208487379561
 10
-14.96044146020614
 20
26.61488918427571
 10
-14.9901965377396
 20
26.77846350929058
 10
-15.01118957141631
 20
26.94248140053894
 10
-15.02352462022974
 20
27.1066164097195
 10
-15.02730574317334
 20
27.27054208853097
 10
-15.02263699924057
 20
27.43393198867207
 10
-15.00962244742488
 20
27.59645966184151
 10
-14.98836614671974
 20
27.75779865973801
 10
-14.9589721561186
 20
27.91762253406028
 10
-14.92154453461491
 20
28.07560483650702
 10
-14.87618734120214
 20
28.23141911877696
 10
-14.82300463487374
 20
28.38473893256881
 10
-14.76210047462316
 20
28.53523782958128
 10
-14.69357891944388
 20
28.68258936151309
 10
-14.61754402832933
 20
28.82646708006295
 10
-14.53409986027298
 20
28.96654453692958
 10
-14.44335047426829
 20
29.10249528381167
 10
-14.34539992930871
 20
29.23399287240796
 10
-14.2403522843877
 20
29.36071085441715
 10
-14.12831159849872
 20
29.48232278153796
 10
-14.00938193063523
 20
29.59850220546909
 10
-13.88366733979067
 20
29.70892267790927
 10
-13.75127188495851
 20
29.81325775055721
 10
-13.61229962513221
 20
29.91118097511162
 10
-13.46685461930522
 20
30.00236590327122
 10
-13.315040926471
 20
30.08648608673471
 10
-13.15696260562301
 20
30.16321507720081
 10
-12.68593828149035
 20
30.3720183343685
 10
-12.21387774092172
 20
30.57271025134408
 10
-11.74084880996256
 20
30.7653295239875
 10
-11.26691931465832
 20
30.94991484815873
 10
-10.79215708105447
 20
31.12650491971774
 10
-10.31662993519645
 20
31.29513843452447
 10
-9.840405703129711
 20
31.4558540884389
 10
-9.363552210899716
 20
31.60869057732098
 10
-8.886137284551914
 20
31.75368659703066
 10
-8.408228750131755
 20
31.89088084342793
 10
-7.929894433684696
 20
32.02031201237273
 10
-7.451202161256187
 20
32.14201879972503
 10
-6.493015052636639
 20
32.36241401309196
 10
-5.534210032636736
 20
32.5523760504084
 10
-4.575329709620103
 20
32.71221447855403
 10
-3.616916691950363
 20
32.84223886440856
 10
-2.659513587991143
 20
32.94275877485167
 10
-1.703663006106069
 20
33.01408377676303
 10
-0.7499075546587645
 20
33.05652343702235
 10
0.2012101579871453
 20
33.0703873225093
 10
1.149147523468035
 20
33.05598500010357
 10
2.09336193342028
 20
33.01362603668485
 10
3.033310779480255
 20
32.94361999913284
 10
3.968451453284334
 20
32.8462764543272
 10
4.898241346468893
 20
32.72190496914764
 10
5.822137850670308
 20
32.57081511047384
 10
6.739598357524953
 20
32.39331644518549
 10
7.650080258669201
 20
32.18971854016227
 10
8.553040945739429
 20
31.96033096228387
 10
9.447937810372013
 20
31.70546327842998
 10
10.33422824420333
 20
31.42542505548028
 10
11.21136963886974
 20
31.12052586031446
 10
12.07881938600764
 20
30.79107525981221
 10
12.93603487725339
 20
30.43738282085322
 10
13.78247350424337
 20
30.05975811031717
 10
14.61759265861396
 20
29.65851069508374
 10
15.44084973200152
 20
29.23395014203264
 10
16.25170211604244
 20
28.78638601804354
 10
17.04960720237309
 20
28.31612788999613
 10
17.83402238262984
 20
27.8234853247701
 10
18.60440504844907
 20
27.30876788924514
 10
19.36021259146715
 20
26.77228515030092
 10
20.10090240332046
 20
26.21434667481715
 10
20.82593187564538
 20
25.6352620296735
 10
21.53475840007828
 20
25.03534078174966
 10
22.22683936825553
 20
24.41489249792533
 10
22.9016321718135
 20
23.77422674508018
 10
23.55859420238859
 20
23.11365309009391
 10
24.19718285161715
 20
22.4334810998462
 10
24.81685551113556
 20
21.73402034121674
 10
25.4170695725802
 20
21.01558038108521
 10
25.99728242758745
 20
20.27847078633131
 10
26.55695146779368
 20
19.52300112383472
 10
27.09553408483526
 20
18.74948096047512
 10
27.61248767034856
 20
17.95821986313221
 10
28.10726961596998
 20
17.14952739868566
 10
28.57933731333587
 20
16.32371313401518
 10
29.0281481540826
 20
15.48108663600044
 10
29.45315952984657
 20
14.62195747152114
 10
29.85382883226414
 20
13.74663520745695
 10
30.22961345297169
 20
12.85542941068757
 10
30.5799707836056
 20
11.94864964809268
 10
30.90435821580223
 20
11.02660548655198
 10
31.05664365487294
 20
10.55995599582684
 10
31.20223314119796
 20
10.08960649294514
 10
31.34105884873186
 20
9.615595673766821
 10
31.47305295142918
 20
9.137962234151853
 10
31.59814762324445
 20
8.656744869960196
 10
31.71627503813224
 20
8.171982277051811
 10
31.82736737004709
 20
7.683713151286659
 10
31.93135679294353
 20
7.191976188524698
 10
32.02817548077613
 20
6.696810084625893
 10
32.11775560749943
 20
6.198253535450202
 10
32.20002934706797
 20
5.696345236857586
 10
32.27492887343631
 20
5.191123884708007
 10
32.34238636055898
 20
4.682628174861427
 10
32.40233398239053
 20
4.170896803177804
 10
32.41699311404227
 20
3.996057494991585
 10
32.42211227268877
 20
3.82283206397746
 10
32.4179188268937
 20
3.651476235687822
 10
32.40464014522075
 20
3.482245735675064
 10
32.38250359623363
 20
3.31539628949158
 10
32.35173654849601
 20
3.151183622689763
 10
32.31256637057158
 20
2.989863460822008
 10
32.26522043102405
 20
2.831691529440706
 10
32.20992609841709
 20
2.676923554098251
 10
32.14691074131441
 20
2.525815260347039
 10
32.07640172827971
 20
2.37862237373946
 10
31.99862642787664
 20
2.23560061982791
 10
31.91381220866892
 20
2.09700572416478
 10
31.82218643922025
 20
1.963093412302466
 10
31.7239764880943
 20
1.83411940979336
 10
31.61940972385477
 20
1.710339442189856
 10
31.50871351506534
 20
1.592009235044346
 10
31.39211523028973
 20
1.479384513909226
 10
31.2698422380916
 20
1.372721004336888
 10
31.14212190703465
 20
1.272274431879725
 10
31.00918160568258
 20
1.17830052209013
 10
30.87124870259908
 20
1.091055000520499
 10
30.72855056634782
 20
1.010793592723223
 10
30.58131456549252
 20
0.9377720242506964
 10
30.42976806859686
 20
0.8722460206553125
 10
30.27413844422453
 20
0.8144713074894647
 10
30.11465306093922
 20
0.7647036103055467
 10
29.95153928730461
 20
0.7231986546559515
 10
29.78502449188441
 20
0.6902121660930728
 10
29.61533604324231
 20
0.6659998701693041
 10
29.44270130994199
 20
0.6508174924370387
 10
29.26734766054714
 20
0.64492075844867
 10
14.39143413342785
 20
0.568337394353243
 10
14.09427425943321
 20
0.6239168995259565
 10
13.80320619261341
 20
0.6974120801361424
 10
13.5189067390457
 20
0.7883117155329464
 10
13.24205270480731
 20
0.8961045850655145
 10
12.97332089597549
 20
1.020279468082992
 10
12.71338811862747
 20
1.160325143934526
 10
12.4629311788405
 20
1.315730391969261
 10
12.2226268826918
 20
1.485983991536344
 10
11.99315203625862
 20
1.670574721984919
 10
11.77518344561821
 20
1.868991362664134
 10
11.56939791684779
 20
2.080722692923134
 10
11.3764722560246
 20
2.305257492111065
 10
11.1970832692259
 20
2.542084539577072
 10
11.03190776252891
 20
2.790692614670302
 10
10.88162254201087
 20
3.0505704967399
 10
10.74690441374902
 20
3.321206965135012
 10
10.06452826327924
 20
5.189319865516062
 10
9.959484520343885
 20
5.139913686485313
 10
9.855789368141142
 20
5.102925964903797
 10
9.753781460072432
 20
5.077780825315317
 10
9.653799449539168
 20
5.063902392263679
 10
9.556181989942774
 20
5.060714790292689
 10
9.461267734684665
 20
5.067642143946152
 10
9.36939533716626
 20
5.084108577767874
 10
9.280903450788974
 20
5.10953821630166
 10
9.19613072895423
 20
5.143355184091315
 10
9.11541582506344
 20
5.184983605680647
 10
9.039097392518029
 20
5.233847605613459
 10
8.967514084719411
 20
5.289371308433556
 10
8.901004555069006
 20
5.350978838684746
 10
8.839907456968227
 20
5.418094320910832
 10
8.735305169021231
 20
5.56654563946292
 10
8.692477285977848
 20
5.64672972487653
 10
8.656416448089768
 20
5.730118260440261
 10
8.627461308758406
 20
5.816135370697915
 10
8.605950521385182
 20
5.9042051801933
 10
8.592222739371515
 20
5.993751813470221
 10
8.586616616118818
 20
6.084199395072481
 10
8.58947080502851
 20
6.174972049543889
 10
8.601123959502013
 20
6.26549390142825
 10
8.621914732940743
 20
6.355189075269368
 10
8.652181778746119
 20
6.443481695611048
 10
8.692263750319556
 20
6.529795886997098
 10
8.742499301062477
 20
6.613555773971321
 10
8.803227084376294
 20
6.694185481077524
 10
8.874785753662429
 20
6.771109132859511
 10
8.957513962322299
 20
6.843750853861089
 10
9.051750363757321
 20
6.911534768626062
 10
8.872392564921238
 20
7.154357519527951
 10
8.686997041693441
 20
7.391493980978684
 10
8.495705844422696
 20
7.62286364849987
 10
8.298661023457768
 20
7.848386017613123
 10
8.096004629147426
 20
8.067980583840058
 10
7.887878711840433
 20
8.281566842702283
 10
7.674425321885559
 20
8.489064289721416
 10
7.455786509631571
 20
8.690392420419069
 10
7.232104325427235
 20
8.885470730316854
 10
7.003520819621317
 20
9.074218714936382
 10
6.770178042562584
 20
9.25655586979927
 10
6.532218044599802
 20
9.432401690427128
 10
6.289782876081739
 20
9.601675672341569
 10
6.043014587357161
 20
9.764297311064206
 10
5.792055228774837
 20
9.920186102116652
 10
5.537046850683529
 20
10.06926154102052
 10
5.278131503432007
 20
10.21144312329743
 10
5.015451237369037
 20
10.34665034446898
 10
4.749148102843387
 20
10.4748027000568
 10
4.479364150203821
 20
10.59581968558248
 10
4.206241429799108
 20
10.70962079656766
 10
3.929921991978013
 20
10.81612552853393
 10
3.650547887089304
 20
10.91525337700292
 10
3.368261165481747
 20
11.00692383749623
 10
3.083203877504109
 20
11.09105640553548
 10
2.795518073505156
 20
11.16757057664229
 10
2.505345803833656
 20
11.23638584633825
 10
2.212829118838375
 20
11.297421710145
 10
1.918110068868079
 20
11.35059766358413
 10
1.621330704271536
 20
11.39583320217726
 10
1.322633075397512
 20
11.43304782144602
 10
1.022159232594774
 20
11.462161016912
 10
1.012424367271651
 20
11.34648737750599
 10
0.9926090976879837
 20
11.23819088065835
 10
0.9633814733189606
 20
11.13727687108968
 10
0.9254095436397715
 20
11.0437506935206
 10
0.8793613581256057
 20
10.95761769267171
 10
0.8259049662516527
 20
10.87888321326363
 10
0.7657084174931019
 20
10.80755260001696
 10
0.6994397613251426
 20
10.7436311976523
 10
0.6277670472229644
 20
10.68712435089028
 10
0.5513583246617567
 20
10.63803740445149
 10
0.470881643116709
 20
10.59637570305655
 10
0.3870050520630106
 20
10.56214459142607
 10
0.3003966009758509
 20
10.53534941428064
 10
0.2117243393304193
 20
10.51599551634089
 10
0.0308605822654986
 20
10.49963293696085
 10
-0.0599948142036118
 20
10.50263494496177
 10
-0.1502418233302364
 20
10.51309961105079
 10
-0.2392123956391856
 20
10.53103227994854
 10
-0.3262384816552701
 20
10.55643829637561
 10
-0.4106520319033005
 20
10.58932300505261
 10
-0.4917849969080872
 20
10.62969175070016
 10
-0.5689693271944409
 20
10.67754987803886
 10
-0.6415369732871723
 20
10.73290273178932
 10
-0.7088198857110919
 20
10.79575565667214
 10
-0.7701500149910099
 20
10.86611399740795
 10
-0.8248593116517373
 20
10.94398309871734
 10
-0.8722797262180847
 20
11.02936830532093
 10
-0.9117432092148625
 20
11.12227496193932
 10
-0.9425817111668813
 20
11.22270841329312
 10
-0.9641271825989517
 20
11.33067400410295
 10
-0.9757115740358842
 20
11.4461770790894
 10
-3.03329532433159
 20
11.04123961775613
 10
-3.320718769984579
 20
11.0084862113726
 10
-3.607253836771072
 20
10.99567897199785
 10
-3.891997918177268
 20
11.00244226604052
 10
-4.174048407689369
 20
11.02840045990922
 10
-4.452502698793576
 20
11.07317792001258
 10
-4.72645818497609
 20
11.13639901275923
 10
-4.995012259723112
 20
11.21768810455779
 10
-5.257262316520844
 20
11.31666956181689
 10
-5.512305748855487
 20
11.43296775094516
 10
-5.759239950213241
 20
11.56620703835121
 10
-5.997162314080309
 20
11.71601179044367
 10
-6.22517023394289
 20
11.88200637363118
 10
-6.442361103287188
 20
12.06381515432235
 10
-6.647832315599402
 20
12.2610624989258
 10
-6.840681264365734
 20
12.47337277385018
  0
LWPOLYLINE
  5
5B
100
AcDbEntity
  8
0
  6
ByLayer
 62
  256
370
   -1
100
AcDbPolyline
 90
   66
 70
    1
 43
0
 10
22.5530443614831
 20
-27.48630447741791
 10
26.68741773502188
 20
-20.23945633009435
 10
26.79471270900991
 20
-20.07050141068672
 10
26.91137063426367
 20
-19.92173762413344
 10
27.03634121653099
 20
-19.79256577082356
 10
27.16857416155968
 20
-19.6823866511461
 10
27.30701917509757
 20
-19.59060106549012
 10
27.45062596289248
 20
-19.51660981424462
 10
27.59834423069223
 20
-19.45981369779868
 10
27.74912368424465
 20
-19.4196135165413
 10
27.90191402929755
 20
-19.39541007086154
 10
28.05566497159876
 20
-19.38660416114843
 10
28.20932621689609
 20
-19.392596587791
 10
28.36184747093737
 20
-19.4127881511783
 10
28.51217843947042
 20
-19.44657965169935
 10
28.65926882824307
 20
-19.49337188974319
 10
28.80206834300312
 20
-19.55256566569887
 10
28.93952668949841
 20
-19.62356177995542
 10
29.07059357347676
 20
-19.70576103290187
 10
29.19421870068599
 20
-19.79856422492725
 10
29.30935177687391
 20
-19.90137215642062
 10
29.41494250778836
 20
-20.013585627771
 10
29.50994059917715
 20
-20.13460543936743
 10
29.59329575678811
 20
-20.26383239159895
 10
29.66395768636905
 20
-20.40066728485459
 10
29.72087609366779
 20
-20.54451091952339
 10
29.76300068443216
 20
-20.69476409599438
 10
29.78928116440999
 20
-20.85082761465662
 10
29.79866723934908
 20
-21.01210227589911
 10
29.79010861499727
 20
-21.17798888011092
 10
29.76255499710238
 20
-21.34788822768106
 10
29.71495609141221
 20
-21.52120111899859
 10
29.64626160367461
 20
-21.69732835445253
 10
29.55542123963738
 20
-21.87567073443193
 10
25.42104786609866
 20
-29.12251888175549
 10
25.31375289211064
 20
-29.29147380116313
 10
25.19709496685688
 20
-29.44023758771641
 10
25.07212438458957
 20
-29.56940944102629
 10
24.93989143956088
 20
-29.67958856070376
 10
24.80144642602298
 20
-29.77137414635975
 10
24.65783963822808
 20
-29.84536539760524
 10
24.51012137042832
 20
-29.90216151405119
 10
24.35934191687591
 20
-29.94236169530857
 10
24.20655157182301
 20
-29.96656514098833
 10
24.0528006295218
 20
-29.97537105070145
 10
23.89913938422446
 20
-29.96937862405888
 10
23.74661813018318
 20
-29.94918706067158
 10
23.59628716165012
 20
-29.91539556015053
 10
23.44919677287748
 20
-29.86860332210669
 10
23.30639725811741
 20
-29.80940954615101
 10
23.16893891162212
 20
-29.73841343189446
 10
23.03787202764377
 20
-29.65621417894802
 10
22.91424690043453
 20
-29.56341098692263
 10
22.7991138242466
 20
-29.46060305542926
 10
22.69352309333215
 20
-29.34838958407888
 10
22.59852500194336
 20
-29.22736977248244
 10
22.5151698443324
 20
-29.09814282025093
 10
22.44450791475146
 20
-28.96130792699528
 10
22.38758950745271
 20
-28.81746429232648
 10
22.34546491668834
 20
-28.66721111585548
 10
22.31918443671051
 20
-28.51114759719325
 10
22.30979836177141
 20
-28.34987293595075
 10
22.31835698612322
 20
-28.18398633173894
 10
22.34591060401812
 20
-28.01408698416878
 10
22.39350950970827
 20
-27.84077409285126
 10
22.46220399744588
 20
-27.66464685739731
  0
LWPOLYLINE
  5
5C
100
AcDbEntity
  8
0
  6
ByLayer
 62
  256
370
   -1
100
AcDbPolyline
 90
   66
 70
    1
 43
0
 10
4.010193263304686
 20
-16.91898011768489
 10
8.144566636843464
 20
-9.672131970361297
 10
8.251861610831494
 20
-9.503177050953667
 10
8.368519536085257
 20
-9.354413264400396
 10
8.493490118352575
 20
-9.225241411090515
 10
8.625723063381269
 20
-9.115062291413061
 10
8.764168076919161
 20
-9.023276705757077
 10
8.907774864714074
 20
-8.949285454511593
 10
9.055493132513828
 20
-8.892489338065648
 10
9.206272586066243
 20
-8.852289156808277
 10
9.359062931119142
 20
-8.828085711128519
 10
9.512813873420349
 20
-8.819279801415412
 10
9.666475118717681
 20
-8.825272228057987
 10
9.818996372758962
 20
-8.845463791445283
 10
9.969327341292015
 20
-8.879255291966338
 10
10.11641773006466
 20
-8.926047530010187
 10
10.25921724482471
 20
-8.985241305965868
 10
10.39667559132
 20
-9.056237420222415
 10
10.52774247529835
 20
-9.138436673168865
 10
10.65136760250758
 20
-9.231239865194258
 10
10.7665006786955
 20
-9.334047796687624
 10
10.87209140960995
 20
-9.446261268038008
 10
10.96708950099873
 20
-9.567281079634441
 10
11.05044465860968
 20
-9.696508031865958
 10
11.12110658819062
 20
-9.833342925121601
 10
11.17802499548936
 20
-9.977186559790402
 10
11.22014958625374
 20
-10.1274397362614
 10
11.24643006623156
 20
-10.28350325492363
 10
11.25581614117065
 20
-10.44477791616613
 10
11.24725751681884
 20
-10.61066452037793
 10
11.21970389892394
 20
-10.78056386794808
 10
11.17210499323377
 20
-10.9538767592656
 10
11.10341050549616
 20
-11.13000399471954
 10
11.01257014145894
 20
-11.30834637469893
 10
6.878196767920244
 20
-18.55519452202247
 10
6.770901793932219
 20
-18.72414944143011
 10
6.65424386867846
 20
-18.87291322798339
 10
6.529273286411144
 20
-19.00208508129328
 10
6.397040341382451
 20
-19.11226420097074
 10
6.258595327844558
 20
-19.20404978662674
 10
6.114988540049645
 20
-19.27804103787223
 10
5.96727027224989
 20
-19.33483715431818
 10
5.816490818697472
 20
-19.37503733557556
 10
5.663700473644569
 20
-19.39924078125532
 10
5.509949531343359
 20
-19.40804669096844
 10
5.356288286046022
 20
-19.40205426432587
 10
5.203767032004736
 20
-19.38186270093858
 10
5.053436063471679
 20
-19.34807120041753
 10
4.906345674699031
 20
-19.30127896237369
 10
4.763546159938969
 20
-19.24208518641801
 10
4.626087813443672
 20
-19.17108907216146
 10
4.495020929465319
 20
-19.08888981921502
 10
4.371395802256087
 20
-18.99608662718963
 10
4.256262726068156
 20
-18.89327869569626
 10
4.150671995153706
 20
-18.78106522434588
 10
4.055673903764912
 20
-18.66004541274944
 10
3.972318746153957
 20
-18.53081846051792
 10
3.901656816573015
 20
-18.39398356726228
 10
3.844738409274268
 20
-18.25013993259347
 10
3.802613818509892
 20
-18.09988675612247
 10
3.776333338532067
 20
-17.94382323746024
 10
3.766947263592972
 20
-17.78254857621773
 10
3.775505887944785
 20
-17.61666197200592
 10
3.803059505839684
 20
-17.44676262443577
 10
3.850658411529849
 20
-17.27344973311824
 10
3.919352899267456
 20
-17.09732249766429
  0
LWPOLYLINE
  5
5D
100
AcDbEntity
  8
0
  6
ByLayer
 62
  256
370
   -1
100
AcDbPolyline
 90
  271
 70
    1
 43
0
 10
1.837605947575938
 20
-20.93835437135845
 10
-5.734469479731885
 20
-7.977685486900773
 10
-5.818982059268398
 20
-7.823627973613846
 10
-5.894108240987427
 20
-7.667168204285711
 10
-5.959952083882426
 20
-7.508632627217657
 10
-6.016617646946855
 20
-7.348347690710969
 10
-6.064208989174171
 20
-7.186639843066934
 10
-6.10283016955783
 20
-7.023835532586839
 10
-6.13258524709129
 20
-6.860261207571969
 10
-6.153578280768006
 20
-6.696243316323612
 10
-6.165913329581437
 20
-6.532108307143054
 10
-6.169694452525039
 20
-6.368182628331581
 10
-6.16502570859227
 20
-6.20479272819048
 10
-6.152011156776587
 20
-6.042265055021039
 10
-6.130754856071447
 20
-5.880926057124542
 10
-6.101360865470306
 20
-5.721102182802277
 10
-6.063933243966622
 20
-5.56311988035553
 10
-6.01857605055385
 20
-5.407305598085588
 10
-5.965393344225451
 20
-5.253985784293738
 10
-5.904489183974878
 20
-5.103486887281264
 10
-5.835967628795591
 20
-4.956135355349454
 10
-5.759932737681046
 20
-4.812257636799595
 10
-5.6764885696247
 20
-4.672180179932973
 10
-5.585739183620011
 20
-4.536229433050876
 10
-5.487788638660434
 20
-4.404731844454588
 10
-5.382740993739427
 20
-4.278013862445396
 10
-5.270700307850447
 20
-4.156401935324588
 10
-5.151770639986951
 20
-4.04022251139345
 10
-5.026056049142398
 20
-3.929802038953268
 10
-4.893660594310242
 20
-3.825466966305329
 10
-4.754688334483941
 20
-3.727543741750919
 10
-4.609243328656953
 20
-3.636358813591325
 10
-4.457429635822734
 20
-3.552238630127833
 10
-4.299351314974743
 20
-3.47550963966173
 10
-3.828326990842087
 20
-3.266706382494041
 10
-3.356266450273452
 20
-3.066014465518464
 10
-2.88323751931429
 20
-2.873395192875039
 10
-2.409308024010056
 20
-2.688809868703805
 10
-1.9345457904062
 20
-2.512219797144802
 10
-1.459018644548179
 20
-2.343586282338068
 10
-0.9827944124814428
 20
-2.182870628423642
 10
-0.5059409202514461
 20
-2.030034139541565
 10
-0.0285259939036418
 20
-1.885038119831874
 10
0.449382540516517
 20
-1.747843873434608
 10
0.9277168569635772
 20
-1.618412704489808
 10
1.406409129392086
 20
-1.496705917137512
 10
2.364596238011635
 20
-1.276310703770589
 10
3.323401258011539
 20
-1.086348666454151
 10
4.282281581028174
 20
-0.9265102383085115
 10
5.240694598697914
 20
-0.7964858524539841
 10
6.198097702657133
 20
-0.6959659420108812
 10
7.153948284542208
 20
-0.6246409400995158
 10
8.107703735989514
 20
-0.5822012798402008
 10
9.058821448635424
 20
-0.5683373943532491
 10
10.00675881411632
 20
-0.5827397167589738
 10
10.95097322406856
 20
-0.6250986801776878
 10
11.89092207012854
 20
-0.6951047177297038
 10
12.82606274393262
 20
-0.7924482625353351
 10
13.75585263711718
 20
-0.9168197477148943
 10
14.67974914131859
 20
-1.067909606388694
 10
15.59720964817324
 20
-1.245408271677048
 10
16.50769154931749
 20
-1.449006176700269
 10
17.41065223638771
 20
-1.67839375457867
 10
18.3055491010203
 20
-1.933261438432563
 10
19.19183953485161
 20
-2.213299661382262
 10
20.06898092951803
 20
-2.518198856548079
 10
20.93643067665592
 20
-2.847649457050328
 10
21.79364616790167
 20
-3.201341896009321
 10
22.64008479489165
 20
-3.578966606545372
 10
23.47520394926224
 20
-3.980214021778793
 10
24.2984610226498
 20
-4.404774574829897
 10
25.10931340669072
 20
-4.852338698818997
 10
25.90721849302137
 20
-5.322596826866405
 10
26.69163367327812
 20
-5.815239392092438
 10
27.46201633909735
 20
-6.329956827617403
 10
28.21782388211544
 20
-6.866439566561617
 10
28.95851369396875
 20
-7.424378042045392
 10
29.68354316629367
 20
-8.003462687189041
 10
30.39236969072656
 20
-8.603383935112873
 10
31.08445065890381
 20
-9.22383221893721
 10
31.75924346246179
 20
-9.864497971782356
 10
32.41620549303687
 20
-10.52507162676863
 10
33.05479414226544
 20
-11.20524361701634
 10
33.67446680178385
 20
-11.9047043756458
 10
34.27468086322849
 20
-12.62314433577733
 10
34.85489371823574
 20
-13.36025393053123
 10
35.41456275844196
 20
-14.11572359302783
 10
35.95314537548354
 20
-14.88924375638742
 10
36.47009896099684
 20
-15.68050485373034
 10
36.96488090661825
 20
-16.48919731817688
 10
37.43694860398414
 20
-17.31501158284736
 10
37.88575944473088
 20
-18.1576380808621
 10
38.31077082049485
 20
-19.01676724534141
 10
38.71144012291242
 20
-19.89208950940559
 10
39.08722474361996
 20
-20.78329530617497
 10
39.43758207425387
 20
-21.69007506876986
 10
39.7619695064505
 20
-22.61211923031057
 10
39.9142549455212
 20
-23.0787687210357
 10
40.05984443184623
 20
-23.5491182239174
 10
40.19867013938013
 20
-24.02312904309572
 10
40.33066424207745
 20
-24.50076248271069
 10
40.45575891389272
 20
-24.98197984690234
 10
40.57388632878051
 20
-25.46674243981073
 10
40.68497866069535
 20
-25.95501156557588
 10
40.7889680835918
 20
-26.44674852833784
 10
40.8857867714244
 20
-26.94191463223665
 10
40.9753668981477
 20
-27.44047118141234
 10
41.05764063771623
 20
-27.94237948000496
 10
41.13254016408457
 20
-28.44760083215454
 10
41.19999765120724
 20
-28.95609654200111
 10
41.2599452730388
 20
-29.46782791368474
 10
41.27460440469054
 20
-29.64266722187096
 10
41.27972356333704
 20
-29.81589265288509
 10
41.27553011754196
 20
-29.98724848117473
 10
41.26225143586902
 20
-30.15647898118749
 10
41.24011488688189
 20
-30.32332842737098
 10
41.20934783914427
 20
-30.4875410941728
 10
41.17017766121985
 20
-30.64886125604055
 10
41.12283172167231
 20
-30.80703318742186
 10
41.06753738906536
 20
-30.96180116276431
 10
41.00452203196269
 20
-31.11290945651553
 10
40.93401301892797
 20
-31.26010234312311
 10
40.85623771852492
 20
-31.40312409703466
 10
40.77142349931719
 20
-31.54171899269779
 10
40.67979772986853
 20
-31.6756313045601
 10
40.58158777874257
 20
-31.8046053070692
 10
40.47702101450304
 20
-31.92838527467271
 10
40.36632480571362
 20
-32.04671548181821
 10
40.249726520938
 20
-32.15934020295333
 10
40.12745352873988
 20
-32.26600371252567
 10
39.99973319768293
 20
-32.36645028498283
 10
39.86679289633086
 20
-32.46042419477243
 10
39.72885999324735
 20
-32.54766971634206
 10
39.58616185699611
 20
-32.62793112413932
 10
39.43892585614081
 20
-32.70095269261185
 10
39.28737935924514
 20
-32.76647869620723
 10
39.13174973487281
 20
-32.82425340937308
 10
38.9722643515875
 20
-32.874021106557
 10
38.80915057795289
 20
-32.91552606220659
 10
38.64263578253269
 20
-32.94851255076946
 10
38.47294733389059
 20
-32.97272484669323
 10
38.30031260059027
 20
-32.98790722442551
 10
38.12495895119542
 20
-32.99380395841387
 10
23.24904542407592
 20
-33.0703873225093
 10
22.95188555008129
 20
-33.01480781733657
 10
22.66081748326151
 20
-32.94131263672639
 10
22.37651802969381
 20
-32.85041300132958
 10
22.09966399545544
 20
-32.74262013179701
 10
21.83093218662363
 20
-32.61844524877954
 10
21.57099940927564
 20
-32.478399572928
 10
21.32054246948867
 20
-32.32299432489326
 10
21.08023817333999
 20
-32.15274072532618
 10
20.85076332690683
 20
-31.96814999487761
 10
20.63279473626643
 20
-31.7697333541984
 10
20.42700920749603
 20
-31.5580020239394
 10
20.23408354667286
 20
-31.33346722475147
 10
20.05469455987417
 20
-31.09664017728547
 10
19.88951905317719
 20
-30.84803210219224
 10
19.73923383265916
 20
-30.58815422012264
 10
19.60451570439733
 20
-30.31751775172753
 10
18.92213955392754
 20
-28.44940485134648
 10
18.81709581099217
 20
-28.49881103037724
 10
18.71340065878943
 20
-28.53579875195877
 10
18.61139275072071
 20
-28.56094389154726
 10
18.51141074018745
 20
-28.57482232459892
 10
18.41379328059105
 20
-28.57800992656992
 10
18.31887902533293
 20
-28.57108257291647
 10
18.22700662781451
 20
-28.55461613909475
 10
18.13851474143722
 20
-28.52918650056098
 10
18.05374201960247
 20
-28.49536953277133
 10
17.97302711571167
 20
-28.453741111182
 10
17.89670868316625
 20
-28.4048771112492
 10
17.82512537536762
 20
-28.3493534084291
 10
17.7586158457172
 20
-28.28774587817792
 10
17.69751874761641
 20
-28.22063039595183
 10
17.5929164596694
 20
-28.07217907739975
 10
17.550088576626
 20
-27.99199499198614
 10
17.51402773873791
 20
-27.9086064564224
 10
17.48507259940654
 20
-27.82258934616475
 10
17.4635618120333
 20
-27.73451953666936
 10
17.44983403001962
 20
-27.64497290339244
 10
17.44422790676692
 20
-27.55452532179017
 10
17.4470820956766
 20
-27.46375266731875
 10
17.4587352501501
 20
-27.37323081543439
 10
17.47952602358882
 20
-27.28353564159326
 10
17.50979306939418
 20
-27.19524302125157
 10
17.54987504096761
 20
-27.10892882986551
 10
17.60011059171053
 20
-27.02516894289128
 10
17.66083837502434
 20
-26.94453923578507
 10
17.73239704431047
 20
-26.86761558400306
 10
17.81512525297034
 20
-26.79497386300147
 10
17.90936165440536
 20
-26.72718994823648
 10
17.73000385556928
 20
-26.48436719733459
 10
17.54460833234148
 20
-26.24723073588386
 10
17.35331713507073
 20
-26.01586106836267
 10
17.15627231410581
 20
-25.79033869924942
 10
16.95361591979546
 20
-25.57074413302249
 10
16.74549000248847
 20
-25.35715787416026
 10
16.5320366125336
 20
-25.14966042714113
 10
16.31339780027961
 20
-24.94833229644347
 10
16.08971561607528
 20
-24.75325398654569
 10
15.86113211026936
 20
-24.56450600192616
 10
15.62778933321063
 20
-24.38216884706327
 10
15.38982933524785
 20
-24.20632302643541
 10
15.14739416672978
 20
-24.03704904452097
 10
14.9006258780052
 20
-23.87442740579834
 10
14.64966651942288
 20
-23.71853861474589
 10
14.39465814133157
 20
-23.56946317584202
 10
14.13574279408005
 20
-23.42728159356511
 10
13.87306252801708
 20
-23.29207437239356
 10
13.60675939349143
 20
-23.16392201680575
 10
13.33697544085186
 20
-23.04290503128006
 10
13.06385272044715
 20
-22.92910392029488
 10
12.78753328262605
 20
-22.82259918832861
 10
12.50815917773734
 20
-22.72347133985962
 10
12.22587245612979
 20
-22.63180087936631
 10
11.94081516815215
 20
-22.54766831132706
 10
11.65312936415319
 20
-22.47115414022026
 10
11.36295709448169
 20
-22.40233887052429
 10
11.07044040948641
 20
-22.34130300671755
 10
10.77572135951612
 20
-22.28812705327842
 10
10.47894199491957
 20
-22.24289151468528
 10
10.18024436604555
 20
-22.20567689541652
 10
9.879770523242811
 20
-22.17656369995054
 10
9.87003565791969
 20
-22.29223733935654
 10
9.850220388336027
 20
-22.40053383620416
 10
9.820992763967009
 20
-22.50144784577282
 10
9.783020834287825
 20
-22.59497402334188
 10
9.736972648773666
 20
-22.68110702419076
 10
9.683516256899722
 20
-22.75984150359884
 10
9.62331970814118
 20
-22.8311721168455
 10
9.557051051973231
 20
-22.89509351921015
 10
9.485378337871065
 20
-22.95160036597217
 10
9.408969615309868
 20
-23.00068731241095
 10
9.328492933764831
 20
-23.04234901380588
 10
9.244616342711144
 20
-23.07658012543637
 10
9.158007891623997
 20
-23.10337530258178
 10
9.069335629978578
 20
-23.12272920052153
 10
8.888471872913684
 20
-23.13909177990158
 10
8.797616476444587
 20
-23.13608977190066
 10
8.707369467317974
 20
-23.12562510581163
 10
8.618398895009037
 20
-23.10769243691389
 10
8.531372808992966
 20
-23.08228642048682
 10
8.446959258744947
 20
-23.04940171180982
 10
8.36582629374017
 20
-23.00903296616228
 10
8.288641963453827
 20
-22.96117483882359
 10
8.216074317361107
 20
-22.90582198507314
 10
8.148791404937198
 20
-22.84296906019032
 10
8.087461275657287
 20
-22.77261071945452
 10
8.032751978996567
 20
-22.69474161814514
 10
7.985331564430226
 20
-22.60935641154157
 10
7.945868081433452
 20
-22.51644975492319
 10
7.915029579481438
 20
-22.41601630356939
 10
7.893484108049369
 20
-22.30805071275958
 10
7.881899716612438
 20
-22.19254763777314
 10
5.82431596631649
 20
-22.59748509910641
 10
5.536892520663512
 20
-22.63023850548994
 10
5.250357453877032
 20
-22.64304574486468
 10
4.965613372470851
 20
-22.63628245082201
 10
4.683562882958765
 20
-22.61032425695331
 10
4.405108591854574
 20
-22.56554679684994
 10
4.131153105672077
 20
-22.50232570410329
 10
3.862599030925072
 20
-22.42103661230473
 10
3.600348974127357
 20
-22.32205515504562
 10
3.345305541792731
 20
-22.20575696591736
 10
3.098371340434994
 20
-22.07251767851131
 10
2.860448976567943
 20
-21.92271292641885
 10
2.632441056705377
 20
-21.75671834323135
 10
2.415250187361095
 20
-21.57490956254018
 10
2.209778975048896
 20
-21.37766221793673
 10
2.016930026282577
 20
-21.16535194301236
  0
LWPOLYLINE
  5
5E
100
AcDbEntity
  8
0
  6
ByLayer
 62
  256
370
   -1
100
AcDbPolyline
 90
    4
 70
    1
 43
0
 10
-15.83870184832731
 20
3.53949520905399
 42
0.414213562373095
 10
-18.78870184832731
 20
0.5894952090539908
 42
0.414213562373095
 10
-15.83870184832731
 20
-2.36050479094601
 42
0.414213562373095
 10
-12.88870184832731
 20
0.5894952090539903
 42
0.414213562373095
  0
LWPOLYLINE
  5
5F
100
AcDbEntity
  8
0
  6
ByLayer
 62
  256
370
   -1
100
AcDbPolyline
 90
    4
 70
    1
 43
0
 10
-53.30839410288954
 20
25.18650302370248
 42
0.414213562373095
 10
-56.25839410288953
 20
22.23650302370248
 42
0.4142135623730943
 10
-53.30839410288954
 20
19.28650302370247
 42
0.414213562373095
 10
-50.35839410288954
 20
22.23650302370248
 42
0.4142135623730944
  0
LWPOLYLINE
  5
60
100
AcDbEntity
  8
0
  6
ByLayer
 62
  256
370
   -1
100
AcDbPolyline
 90
    4
 70
    1
 43
0
 10
-53.30950552757502
 20
-18.11616680035495
 42
0.4142135623730946
 10
-56.25950552757502
 20
-21.06616680035496
 42
0.4142135623730953
 10
-53.30950552757502
 20
-24.01616680035496
 42
0.414213562373095
 10
-50.35950552757502
 20
-21.06616680035496
 42
0.4142135623730945
  0
ENDSEC
  0
SECTION
  2
OBJECTS
  0
DICTIONARY
  5
C
330
0
100
AcDbDictionary
281
    1
  3
ACAD_GROUP
350
D
  0
DICTIONARY
  5
D
330
C
100
AcDbDictionary
281
    1
  0
ENDSEC
  0
EOF
