999
dxfrw 0.6.3
  0
SECTION
  2
HEADER
  9
$ACADVER
  1
AC1021
  9
$DWGCODEPAGE
  3
ANSI_1252
  9
$INSBASE
 10
0
 20
0
 30
0
  9
$EXTMIN
 10
-32.50000000000006
 20
-32.5
 30
0
  9
$EXTMAX
 10
32.50000000000011
 20
32.5
 30
0
  9
$LIMMIN
 10
0
 20
0
  9
$LIMMAX
 10
12
 20
9
  9
$ORTHOMODE
 70
    0
  9
$REGENMODE
 70
    1
  9
$FILLMODE
 70
    1
  9
$QTEXTMODE
 70
    0
  9
$MIRRTEXT
 70
    1
  9
$LTSCALE
 40
1
  9
$ATTMODE
 70
    1
  9
$TEXTSIZE
 40
0.2
  9
$TRACEWID
 40
0.05
  9
$TEXTSTYLE
  7
STANDARD
  9
$CLAYER
  8
0
  9
$CELTYPE
  6
BYLAYER
  9
$CECOLOR
 62
  256
  9
$CELTSCALE
 40
1
  9
$DISPSILH
 70
    0
  9
$DIMSCALE
 40
1
  9
$DIMASZ
 40
0.18
  9
$DIMEXO
 40
0.0625
  9
$DIMDLI
 40
0.38
  9
$DIMRND
 40
0
  9
$DIMDLE
 40
0
  9
$DIMEXE
 40
0.18
  9
$DIMTP
 40
0
  9
$DIMTM
 40
0
  9
$DIMTXT
 40
0.18
  9
$DIMCEN
 40
0.09
  9
$DIMTSZ
 40
0
  9
$DIMTOL
 70
    0
  9
$DIMLIM
 70
    0
  9
$DIMTIH
 70
    1
  9
$DIMTOH
 70
    1
  9
$DIMSE1
 70
    0
  9
$DIMSE2
 70
    0
  9
$DIMTAD
 70
    0
  9
$DIMZIN
 70
    0
  9
$DIMBLK
  1

  9
$DIMASO
 70
    1
  9
$DIMSHO
 70
    1
  9
$DIMPOST
  1

  9
$DIMAPOST
  1

  9
$DIMALT
 70
    0
  9
$DIMALTD
 70
    2
  9
$DIMALTF
 40
25.4
  9
$DIMLFAC
 40
1
  9
$DIMTOFL
 70
    0
  9
$DIMTVP
 40
0
  9
$DIMTIX
 70
    0
  9
$DIMSOXD
 70
    0
  9
$DIMSAH
 70
    0
  9
$DIMBLK1
  1

  9
$DIMBLK2
  1

  9
$DIMSTYLE
  2
STANDARD
  9
$DIMCLRD
 70
    0
  9
$DIMCLRE
 70
    0
  9
$DIMCLRT
 70
    0
  9
$DIMTFAC
 40
1
  9
$DIMGAP
 40
0.09
  9
$DIMJUST
 70
    0
  9
$DIMSD1
 70
    0
  9
$DIMSD2
 70
    0
  9
$DIMTOLJ
 70
    0
  9
$DIMTZIN
 70
    8
  9
$DIMALTZ
 70
    0
  9
$DIMALTTZ
 70
    0
  9
$DIMUPT
 70
    0
  9
$DIMDEC
 70
    4
  9
$DIMTDEC
 70
    2
  9
$DIMALTU
 70
    2
  9
$DIMALTTD
 70
    3
  9
$DIMTXSTY
  7
STANDARD
  9
$DIMAUNIT
 70
    0
  9
$DIMADEC
 70
    0
  9
$DIMALTRND
 40
0
  9
$DIMAZIN
 70
    0
  9
$DIMDSEP
 70
   44
  9
$DIMATFIT
 70
    3
  9
$DIMFRAC
 70
    0
  9
$DIMLDRBLK
  1
STANDARD
  9
$DIMLUNIT
 70
    2
  9
$DIMLWD
 70
   -2
  9
$DIMLWE
 70
   -2
  9
$DIMTMOVE
 70
    0
  9
$DIMFXL
 40
1
  9
$DIMFXLON
 70
    0
  9
$DIMJOGANG
 40
0.7854
  9
$DIMTFILL
 70
    0
  9
$DIMTFILLCLR
 70
    0
  9
$DIMARCSYM
 70
    0
  9
$DIMLTYPE
  6

  9
$DIMLTEX1
  6

  9
$DIMLTEX2
  6

  9
$LUNITS
 70
    2
  9
$LUPREC
 70
    4
  9
$SKETCHINC
 40
0.1
  9
$FILLETRAD
 40
0.5
  9
$AUNITS
 70
    0
  9
$AUPREC
 70
    0
  9
$MENU
  1
.
  9
$ELEVATION
 40
0
  9
$PELEVATION
 40
0
  9
$THICKNESS
 40
0
  9
$LIMCHECK
 70
    0
  9
$CHAMFERA
 40
0.5
  9
$CHAMFERB
 40
0.5
  9
$CHAMFERC
 40
0
  9
$CHAMFERD
 40
0
  9
$SKPOLY
 70
    0
  9
$USRTIMER
 70
    1
  9
$ANGBASE
 50
0
  9
$ANGDIR
 70
    0
  9
$PDMODE
 70
    0
  9
$PDSIZE
 40
0
  9
$PLINEWID
 40
0
  9
$SPLFRAME
 70
    0
  9
$SPLINETYPE
 70
    6
  9
$SPLINESEGS
 70
    8
  9
$HANDSEED
  5
20000
  9
$SURFTAB1
 70
    6
  9
$SURFTAB2
 70
    6
  9
$SURFTYPE
 70
    6
  9
$SURFU
 70
    6
  9
$SURFV
 70
    6
  9
$UCSBASE
  2

  9
$UCSNAME
  2

  9
$UCSORG
 10
0
 20
0
 30
0
  9
$UCSXDIR
 10
1
 20
0
 30
0
  9
$UCSYDIR
 10
0
 20
1
 30
0
  9
$UCSORTHOREF
  2

  9
$UCSORTHOVIEW
 70
    0
  9
$UCSORGTOP
 10
0
 20
0
 30
0
  9
$UCSORGBOTTOM
 10
0
 20
0
 30
0
  9
$UCSORGLEFT
 10
0
 20
0
 30
0
  9
$UCSORGRIGHT
 10
0
 20
0
 30
0
  9
$UCSORGFRONT
 10
0
 20
0
 30
0
  9
$UCSORGBACK
 10
0
 20
0
 30
0
  9
$PUCSBASE
  2

  9
$PUCSNAME
  2

  9
$PUCSORG
 10
0
 20
0
 30
0
  9
$PUCSXDIR
 10
1
 20
0
 30
0
  9
$PUCSYDIR
 10
0
 20
1
 30
0
  9
$PUCSORTHOREF
  2

  9
$PUCSORTHOVIEW
 70
    0
  9
$PUCSORGTOP
 10
0
 20
0
 30
0
  9
$PUCSORGBOTTOM
 10
0
 20
0
 30
0
  9
$PUCSORGLEFT
 10
0
 20
0
 30
0
  9
$PUCSORGRIGHT
 10
0
 20
0
 30
0
  9
$PUCSORGFRONT
 10
0
 20
0
 30
0
  9
$PUCSORGBACK
 10
0
 20
0
 30
0
  9
$USERI1
 70
    0
  9
$USERI2
 70
    0
  9
$USERI3
 70
    0
  9
$USERI4
 70
    0
  9
$USERI5
 70
    0
  9
$USERR1
 40
0
  9
$USERR2
 40
0
  9
$USERR3
 40
0
  9
$USERR4
 40
0
  9
$USERR5
 40
0
  9
$WORLDVIEW
 70
    1
  9
$SHADEDGE
 70
    3
  9
$SHADEDIF
 70
   70
  9
$TILEMODE
 70
    1
  9
$MAXACTVP
 70
   64
  9
$PINSBASE
 10
0
 20
0
 30
0
  9
$PLIMCHECK
 70
    0
  9
$PEXTMIN
 10
1e+020
 20
1e+020
 30
1e+020
  9
$PEXTMAX
 10
-1e+020
 20
-1e+020
 30
-1e+020
  9
$GRIDMODE
 70
    0
  9
$SNAPSTYLE
 70
    0
  9
$PLIMMIN
 10
0
 20
0
  9
$PLIMMAX
 10
12
 20
9
  9
$UNITMODE
 70
    0
  9
$VISRETAIN
 70
    1
  9
$PLINEGEN
 70
    0
  9
$PSLTSCALE
 70
    1
  9
$TREEDEPTH
 70
 3020
  9
$CMLSTYLE
  2
Standard
  9
$CMLJUST
 70
    0
  9
$CMLSCALE
 40
20
  9
$PROXYGRAPHICS
 70
    1
  9
$MEASUREMENT
 70
    1
  9
$CELWEIGHT
370
   -1
  9
$ENDCAPS
280
    0
  9
$JOINSTYLE
280
    0
  9
$LWDISPLAY
290
    0
  9
$INSUNITS
 70
    4
  9
$HYPERLINKBASE
  1

  9
$STYLESHEET
  1

  9
$XEDIT
290
    1
  9
$CEPSNTYPE
380
    0
  9
$PSTYLEMODE
290
    1
  9
$EXTNAMES
290
    1
  9
$PSVPSCALE
 40
1
  9
$OLESTARTUP
290
    0
  9
$SORTENTS
280
  127
  9
$INDEXCTL
280
    0
  9
$HIDETEXT
280
    1
  9
$XCLIPFRAME
290
    0
  9
$HALOGAP
280
    0
  9
$OBSCOLOR
 70
  257
  9
$OBSLTYPE
280
    0
  9
$INTERSECTIONDISPLAY
280
    0
  9
$INTERSECTIONCOLOR
 70
  257
  9
$DIMASSOC
280
    1
  9
$PROJECTNAME
  1

  9
$CAMERADISPLAY
290
    0
  9
$LENSLENGTH
 40
50
  9
$CAMERAHEIGHT
 40
0
  9
$STEPSPERSEC
 40
2
  9
$STEPSIZE
 40
50
  9
$3DDWFPREC
 40
2
  9
$PSOLWIDTH
 40
5
  9
$PSOLHEIGHT
 40
80
  9
$LOFTANG1
 40
1.570796326794897
  9
$LOFTANG2
 40
1.570796326794897
  9
$LOFTMAG1
 40
0
  9
$LOFTMAG2
 40
0
  9
$LOFTPARAM
 70
    7
  9
$LOFTNORMALS
280
    1
  9
$LATITUDE
 40
1
  9
$LONGITUDE
 40
1
  9
$NORTHDIRECTION
 40
0
  9
$TIMEZONE
 70
-8000
  9
$LIGHTGLYPHDISPLAY
280
    1
  9
$TILEMODELIGHTSYNCH
280
    1
  9
$SOLIDHIST
280
    1
  9
$SHOWHIST
280
    1
  9
$DWFFRAME
280
    2
  9
$DGNFRAME
280
    0
  9
$REALWORLDSCALE
290
    1
  9
$INTERFERECOLOR
 62
    1
  9
$CSHADOW
280
    0
  9
$SHADOWPLANELOCATION
 40
0
  0
ENDSEC
  0
SECTION
  2
CLASSES
  0
ENDSEC
  0
SECTION
  2
TABLES
  0
TABLE
  2
VPORT
  5
8
330
0
100
AcDbSymbolTable
 70
    1
  0
VPORT
  5
31
330
2
100
AcDbSymbolTableRecord
100
AcDbViewportTableRecord
  2
*ACTIVE
 70
    0
 10
0
 20
0
 11
1
 21
1
 12
51.43318150182896
 22
22.45674121910842
 13
0
 23
0
 14
10
 24
10
 15
10
 25
10
 16
0
 26
0
 36
1
 17
0
 27
0
 37
0
 40
86.82583356143762
 41
1.904648390941597
 42
50
 43
0
 44
0
 50
0
 51
0
 71
    0
 72
  100
 73
    1
 74
    3
 75
    0
 76
    0
 77
    0
 78
    0
281
    0
 65
    1
110
0
120
0
130
0
111
1
121
0
131
0
112
0
122
1
132
0
 79
    0
146
0
348
10020
 60
    7
 61
    5
292
1
282
    1
141
0
142
0
 63
  250
421
3358443
  0
ENDTAB
  0
TABLE
  2
LTYPE
  5
5
330
0
100
AcDbSymbolTable
 70
    4
  0
LTYPE
  5
14
330
5
100
AcDbSymbolTableRecord
100
AcDbLinetypeTableRecord
  2
ByBlock
 70
    0
  3

 72
   65
 73
    0
 40
0
  0
LTYPE
  5
15
330
5
100
AcDbSymbolTableRecord
100
AcDbLinetypeTableRecord
  2
ByLayer
 70
    0
  3

 72
   65
 73
    0
 40
0
  0
LTYPE
  5
16
330
5
100
AcDbSymbolTableRecord
100
AcDbLinetypeTableRecord
  2
Continuous
 70
    0
  3
Solid line
 72
   65
 73
    0
 40
0
  0
LTYPE
  5
32
330
5
100
AcDbSymbolTableRecord
100
AcDbLinetypeTableRecord
  2
DOT
 70
    0
  3
Dot . . . . . . . . . . . . . . . . . . . . . .
 72
   65
 73
    2
 40
6.35
 49
0
 74
    0
 49
-6.35
 74
    0
  0
LTYPE
  5
33
330
5
100
AcDbSymbolTableRecord
100
AcDbLinetypeTableRecord
  2
DOTTINY
 70
    0
  3
Dot (.15x) .....................................
 72
   65
 73
    2
 40
0.9525
 49
0
 74
    0
 49
-0.9525
 74
    0
  0
LTYPE
  5
34
330
5
100
AcDbSymbolTableRecord
100
AcDbLinetypeTableRecord
  2
DOT2
 70
    0
  3
Dot (.5x) .....................................
 72
   65
 73
    2
 40
3.175
 49
0
 74
    0
 49
-3.175
 74
    0
  0
LTYPE
  5
35
330
5
100
AcDbSymbolTableRecord
100
AcDbLinetypeTableRecord
  2
DOTX2
 70
    0
  3
Dot (2x) .  .  .  .  .  .  .  .  .  .  .  .  .
 72
   65
 73
    2
 40
12.7
 49
0
 74
    0
 49
-12.7
 74
    0
  0
LTYPE
  5
36
330
5
100
AcDbSymbolTableRecord
100
AcDbLinetypeTableRecord
  2
DASHED
 70
    0
  3
Dashed _ _ _ _ _ _ _ _ _ _ _ _ _ _ _ _ _
 72
   65
 73
    2
 40
19.05
 49
12.7
 74
    0
 49
-6.35
 74
    0
  0
LTYPE
  5
37
330
5
100
AcDbSymbolTableRecord
100
AcDbLinetypeTableRecord
  2
DASHEDTINY
 70
    0
  3
Dashed (.15x) _ _ _ _ _ _ _ _ _ _ _ _ _ _ _ _ _
 72
   65
 73
    2
 40
2.8575
 49
1.905
 74
    0
 49
-0.9525
 74
    0
  0
LTYPE
  5
38
330
5
100
AcDbSymbolTableRecord
100
AcDbLinetypeTableRecord
  2
DASHED2
 70
    0
  3
Dashed (.5x) _ _ _ _ _ _ _ _ _ _ _ _ _ _ _ _ _
 72
   65
 73
    2
 40
9.524999999999999
 49
6.35
 74
    0
 49
-3.175
 74
    0
  0
LTYPE
  5
39
330
5
100
AcDbSymbolTableRecord
100
AcDbLinetypeTableRecord
  2
DASHEDX2
 70
    0
  3
Dashed (2x) ____  ____  ____  ____  ____  ___
 72
   65
 73
    2
 40
38.09999999999999
 49
25.4
 74
    0
 49
-12.7
 74
    0
  0
LTYPE
  5
3A
330
5
100
AcDbSymbolTableRecord
100
AcDbLinetypeTableRecord
  2
DASHDOT
 70
    0
  3
Dash dot __ . __ . __ . __ . __ . __ . __ . __
 72
   65
 73
    4
 40
25.4
 49
12.7
 74
    0
 49
-6.35
 74
    0
 49
0
 74
    0
 49
-6.35
 74
    0
  0
LTYPE
  5
3B
330
5
100
AcDbSymbolTableRecord
100
AcDbLinetypeTableRecord
  2
DASHDOTTINY
 70
    0
  3
Dash dot (.15x) _._._._._._._._._._._._._._._.
 72
   65
 73
    4
 40
3.81
 49
1.905
 74
    0
 49
-0.9525
 74
    0
 49
0
 74
    0
 49
-0.9525
 74
    0
  0
LTYPE
  5
3C
330
5
100
AcDbSymbolTableRecord
100
AcDbLinetypeTableRecord
  2
DASHDOT2
 70
    0
  3
Dash dot (.5x) _._._._._._._._._._._._._._._.
 72
   65
 73
    4
 40
12.7
 49
6.35
 74
    0
 49
-3.175
 74
    0
 49
0
 74
    0
 49
-3.175
 74
    0
  0
LTYPE
  5
3D
330
5
100
AcDbSymbolTableRecord
100
AcDbLinetypeTableRecord
  2
DASHDOTX2
 70
    0
  3
Dash dot (2x) ____  .  ____  .  ____  .  ___
 72
   65
 73
    4
 40
50.8
 49
25.4
 74
    0
 49
-12.7
 74
    0
 49
0
 74
    0
 49
-12.7
 74
    0
  0
LTYPE
  5
3E
330
5
100
AcDbSymbolTableRecord
100
AcDbLinetypeTableRecord
  2
DIVIDE
 70
    0
  3
Divide ____ . . ____ . . ____ . . ____ . . ____
 72
   65
 73
    6
 40
31.75
 49
12.7
 74
    0
 49
-6.35
 74
    0
 49
0
 74
    0
 49
-6.35
 74
    0
 49
0
 74
    0
 49
-6.35
 74
    0
  0
LTYPE
  5
3F
330
5
100
AcDbSymbolTableRecord
100
AcDbLinetypeTableRecord
  2
DIVIDETINY
 70
    0
  3
Divide (.15x) __..__..__..__..__..__..__..__.._
 72
   65
 73
    6
 40
4.7625
 49
1.905
 74
    0
 49
-0.9525
 74
    0
 49
0
 74
    0
 49
-0.9525
 74
    0
 49
0
 74
    0
 49
-0.9525
 74
    0
  0
LTYPE
  5
40
330
5
100
AcDbSymbolTableRecord
100
AcDbLinetypeTableRecord
  2
DIVIDE2
 70
    0
  3
Divide (.5x) __..__..__..__..__..__..__..__.._
 72
   65
 73
    6
 40
15.875
 49
6.35
 74
    0
 49
-3.175
 74
    0
 49
0
 74
    0
 49
-3.175
 74
    0
 49
0
 74
    0
 49
-3.175
 74
    0
  0
LTYPE
  5
41
330
5
100
AcDbSymbolTableRecord
100
AcDbLinetypeTableRecord
  2
DIVIDEX2
 70
    0
  3
Divide (2x) ________  .  .  ________  .  .  _
 72
   65
 73
    6
 40
63.5
 49
25.4
 74
    0
 49
-12.7
 74
    0
 49
0
 74
    0
 49
-12.7
 74
    0
 49
0
 74
    0
 49
-12.7
 74
    0
  0
LTYPE
  5
42
330
5
100
AcDbSymbolTableRecord
100
AcDbLinetypeTableRecord
  2
BORDER
 70
    0
  3
Border __ __ . __ __ . __ __ . __ __ . __ __ .
 72
   65
 73
    6
 40
44.45
 49
12.7
 74
    0
 49
-6.35
 74
    0
 49
12.7
 74
    0
 49
-6.35
 74
    0
 49
0
 74
    0
 49
-6.35
 74
    0
  0
LTYPE
  5
43
330
5
100
AcDbSymbolTableRecord
100
AcDbLinetypeTableRecord
  2
BORDERTINY
 70
    0
  3
Border (.15x) __.__.__.__.__.__.__.__.__.__.__.
 72
   65
 73
    6
 40
6.6675
 49
1.905
 74
    0
 49
-0.9525
 74
    0
 49
1.905
 74
    0
 49
-0.9525
 74
    0
 49
0
 74
    0
 49
-0.9525
 74
    0
  0
LTYPE
  5
44
330
5
100
AcDbSymbolTableRecord
100
AcDbLinetypeTableRecord
  2
BORDER2
 70
    0
  3
Border (.5x) __.__.__.__.__.__.__.__.__.__.__.
 72
   65
 73
    6
 40
22.225
 49
6.35
 74
    0
 49
-3.175
 74
    0
 49
6.35
 74
    0
 49
-3.175
 74
    0
 49
0
 74
    0
 49
-3.175
 74
    0
  0
LTYPE
  5
45
330
5
100
AcDbSymbolTableRecord
100
AcDbLinetypeTableRecord
  2
BORDERX2
 70
    0
  3
Border (2x) ____  ____  .  ____  ____  .  ___
 72
   65
 73
    6
 40
88.89999999999999
 49
25.4
 74
    0
 49
-12.7
 74
    0
 49
25.4
 74
    0
 49
-12.7
 74
    0
 49
0
 74
    0
 49
-12.7
 74
    0
  0
LTYPE
  5
46
330
5
100
AcDbSymbolTableRecord
100
AcDbLinetypeTableRecord
  2
CENTER
 70
    0
  3
Center ____ _ ____ _ ____ _ ____ _ ____ _ ____
 72
   65
 73
    4
 40
50.8
 49
31.75
 74
    0
 49
-6.35
 74
    0
 49
6.35
 74
    0
 49
-6.35
 74
    0
  0
LTYPE
  5
47
330
5
100
AcDbSymbolTableRecord
100
AcDbLinetypeTableRecord
  2
CENTERTINY
 70
    0
  3
Center (.15x) ___ _ ___ _ ___ _ ___ _ ___ _ ___
 72
   65
 73
    4
 40
7.62
 49
4.7625
 74
    0
 49
-0.9525
 74
    0
 49
0.9525
 74
    0
 49
-0.9525
 74
    0
  0
LTYPE
  5
48
330
5
100
AcDbSymbolTableRecord
100
AcDbLinetypeTableRecord
  2
CENTER2
 70
    0
  3
Center (.5x) ___ _ ___ _ ___ _ ___ _ ___ _ ___
 72
   65
 73
    4
 40
28.575
 49
19.05
 74
    0
 49
-3.175
 74
    0
 49
3.175
 74
    0
 49
-3.175
 74
    0
  0
LTYPE
  5
49
330
5
100
AcDbSymbolTableRecord
100
AcDbLinetypeTableRecord
  2
CENTERX2
 70
    0
  3
Center (2x) ________  __  ________  __  _____
 72
   65
 73
    4
 40
101.6
 49
63.5
 74
    0
 49
-12.7
 74
    0
 49
12.7
 74
    0
 49
-12.7
 74
    0
  0
ENDTAB
  0
TABLE
  2
LAYER
  5
2
330
0
100
AcDbSymbolTable
 70
    1
  0
LAYER
  5
10
330
2
100
AcDbSymbolTableRecord
100
AcDbLayerTableRecord
  2
0
 70
    0
 62
    7
  6
CONTINUOUS
370
   -3
390
F
  0
ENDTAB
  0
TABLE
  2
STYLE
  5
3
330
0
100
AcDbSymbolTable
 70
    3
  0
STYLE
  5
4A
330
2
100
AcDbSymbolTableRecord
100
AcDbTextStyleTableRecord
  2
Standard
 70
    0
 40
0
 41
1
 50
0
 71
    0
 42
1
  3
txt
  4

  0
ENDTAB
  0
TABLE
  2
VIEW
  5
6
330
0
100
AcDbSymbolTable
 70
    0
  0
ENDTAB
  0
TABLE
  2
UCS
  5
7
330
0
100
AcDbSymbolTable
 70
    0
  0
ENDTAB
  0
TABLE
  2
APPID
  5
9
330
0
100
AcDbSymbolTable
 70
    1
  0
APPID
  5
12
330
9
100
AcDbSymbolTableRecord
100
AcDbRegAppTableRecord
  2
ACAD
 70
    0
  0
APPID
  5
4B
330
9
100
AcDbSymbolTableRecord
100
AcDbRegAppTableRecord
  2
LibreCad
 70
    0
  0
ENDTAB
  0
TABLE
  2
DIMSTYLE
  5
A
330
0
100
AcDbSymbolTable
 70
    1
100
AcDbDimStyleTable
 71
    1
  0
DIMSTYLE
105
4C
330
A
100
AcDbSymbolTableRecord
100
AcDbDimStyleTableRecord
  2
Standard
 70
    0
 40
1
 41
0.18
 42
0.0625
 43
0.38
 44
0.18
 45
0
 46
0
 47
0
 48
0
 49
1
140
0.18
141
0.09
142
0
143
25.4
144
1
145
0
146
1
147
0.09
148
0
 71
    0
 72
    0
 73
    1
 74
    1
 75
    0
 76
    0
 77
    0
 78
    0
 79
    0
170
    0
171
    2
172
    0
173
    0
174
    0
175
    0
176
    0
177
    0
178
    0
179
    0
271
    4
272
    4
273
    2
274
    2
275
    0
276
    0
277
    2
278
    0
279
    0
280
    0
281
    0
282
    0
283
    1
284
    0
285
    0
286
    0
288
    0
289
    3
340
standard
341

371
   -2
372
   -2
  0
ENDTAB
  0
TABLE
  2
BLOCK_RECORD
  5
1
330
0
100
AcDbSymbolTable
 70
    2
  0
BLOCK_RECORD
  5
1F
330
1
100
AcDbSymbolTableRecord
100
AcDbBlockTableRecord
  2
*Model_Space
 70
    0
280
    1
281
    0
  0
BLOCK_RECORD
  5
1E
330
1
100
AcDbSymbolTableRecord
100
AcDbBlockTableRecord
  2
*Paper_Space
 70
    0
280
    1
281
    0
  0
ENDTAB
  0
ENDSEC
  0
SECTION
  2
BLOCKS
  0
BLOCK
  5
20
330
1F
100
AcDbEntity
  8
0
100
AcDbBlockBegin
  2
*Model_Space
 70
    0
 10
0
 20
0
 30
0
  3
*Model_Space
  1

  0
ENDBLK
  5
21
330
1F
100
AcDbEntity
  8
0
100
AcDbBlockEnd
  0
BLOCK
  5
1C
330
1B
100
AcDbEntity
  8
0
100
AcDbBlockBegin
  2
*Paper_Space
 70
    0
 10
0
 20
0
 30
0
  3
*Paper_Space
  1

  0
ENDBLK
  5
1D
330
1F
100
AcDbEntity
  8
0
100
AcDbBlockEnd
  0
ENDSEC
  0
SECTION
  2
ENTITIES
  0
LWPOLYLINE
  5
4D
100
AcDbEntity
  8
0
  6
ByLayer
 62
  256
370
   -1
100
AcDbPolyline
 90
  256
 70
    1
 43
0
 10
0
 20
32.5
 10
-0.8388396140199488
 20
32.48938525801024
 10
-1.672445689308797
 20
32.45771120167125
 10
-2.500562971421092
 20
32.4052330854285
 10
-3.322936205911379
 20
32.33220616372743
 10
-4.139310138334205
 20
32.23888569101349
 10
-4.949429514244117
 20
32.12552692173215
 10
-5.75303907919566
 20
31.99238511032885
 10
-6.549883578743382
 20
31.83971551124905
 10
-7.339707758441827
 20
31.66777337893821
 10
-8.122256363845544
 20
31.47681396784177
 10
-8.897274140509079
 20
31.26709253240519
 10
-9.664505833986977
 20
31.03886432707392
 10
-10.42369618983379
 20
30.79238460629341
 10
-11.17458995360405
 20
30.52790862450913
 10
-11.91693187085232
 20
30.24569163616652
 10
-12.65046668713314
 20
29.94598889571104
 10
-13.37493914800105
 20
29.62905565758815
 10
-14.09009399901061
 20
29.29514717624328
 10
-14.79567598571635
 20
28.9445187061219
 10
-15.49142985367283
 20
28.57742550166947
 10
-16.17710034843459
 20
28.19412281733143
 10
-16.85243221555618
 20
27.79486590755323
 10
-17.51717020059215
 20
27.37991002678034
 10
-18.17105904909703
 20
26.94951042945821
 10
-18.81384350662537
 20
26.50392237003229
 10
-19.44526831873174
 20
26.04340110294802
 10
-20.06507823097067
 20
25.56820188265088
 10
-20.6730179888967
 20
25.0785799635863
 10
-21.26883233806438
 20
24.57479060019975
 10
-21.85226602402826
 20
24.05708904693668
 10
-22.42306379234289
 20
23.52573055824254
 10
-22.98097038856281
 20
22.98097038856278
 10
-23.52573055824257
 20
22.42306379234286
 10
-24.05708904693671
 20
21.85226602402824
 10
-24.57479060019978
 20
21.26883233806436
 10
-25.07857996358634
 20
20.67301798889667
 10
-25.56820188265091
 20
20.06507823097065
 10
-26.04340110294806
 20
19.44526831873172
 10
-26.50392237003232
 20
18.81384350662536
 10
-26.94951042945824
 20
18.17105904909701
 10
-27.37991002678038
 20
17.51717020059213
 10
-27.79486590755327
 20
16.85243221555617
 10
-28.19412281733146
 20
16.17710034843458
 10
-28.57742550166951
 20
15.49142985367282
 10
-28.94451870612194
 20
14.79567598571634
 10
-29.29514717624332
 20
14.0900939990106
 10
-29.62905565758819
 20
13.37493914800104
 10
-29.94598889571109
 20
12.65046668713313
 10
-30.24569163616657
 20
11.91693187085231
 10
-30.52790862450918
 20
11.17458995360404
 10
-30.79238460629346
 20
10.42369618983378
 10
-31.03886432707397
 20
9.664505833986972
 10
-31.26709253240524
 20
8.897274140509076
 10
-31.47681396784182
 20
8.122256363845541
 10
-31.66777337893826
 20
7.339707758441826
 10
-31.83971551124911
 20
6.54988357874338
 10
-31.99238511032891
 20
5.753039079195658
 10
-32.12552692173221
 20
4.949429514244116
 10
-32.23888569101355
 20
4.139310138334205
 10
-32.33220616372748
 20
3.322936205911379
 10
-32.40523308542856
 20
2.500562971421092
 10
-32.45771120167131
 20
1.672445689308797
 10
-32.4893852580103
 20
0.8388396140199488
 10
-32.50000000000006
 20
0
 10
-32.4893852580103
 20
-0.8388396140199488
 10
-32.45771120167131
 20
-1.672445689308797
 10
-32.40523308542856
 20
-2.500562971421092
 10
-32.33220616372748
 20
-3.322936205911379
 10
-32.23888569101355
 20
-4.139310138334205
 10
-32.12552692173221
 20
-4.949429514244116
 10
-31.99238511032891
 20
-5.753039079195658
 10
-31.83971551124911
 20
-6.54988357874338
 10
-31.66777337893826
 20
-7.339707758441826
 10
-31.47681396784182
 20
-8.122256363845541
 10
-31.26709253240524
 20
-8.897274140509076
 10
-31.03886432707397
 20
-9.664505833986972
 10
-30.79238460629346
 20
-10.42369618983378
 10
-30.52790862450918
 20
-11.17458995360404
 10
-30.24569163616657
 20
-11.91693187085231
 10
-29.94598889571109
 20
-12.65046668713313
 10
-29.62905565758819
 20
-13.37493914800104
 10
-29.29514717624332
 20
-14.0900939990106
 10
-28.94451870612194
 20
-14.79567598571634
 10
-28.57742550166951
 20
-15.49142985367282
 10
-28.19412281733146
 20
-16.17710034843458
 10
-27.79486590755327
 20
-16.85243221555617
 10
-27.37991002678038
 20
-17.51717020059213
 10
-26.94951042945824
 20
-18.17105904909701
 10
-26.50392237003232
 20
-18.81384350662536
 10
-26.04340110294806
 20
-19.44526831873172
 10
-25.56820188265091
 20
-20.06507823097065
 10
-25.07857996358634
 20
-20.67301798889667
 10
-24.57479060019978
 20
-21.26883233806436
 10
-24.05708904693671
 20
-21.85226602402824
 10
-23.52573055824257
 20
-22.42306379234286
 10
-22.98097038856281
 20
-22.98097038856278
 10
-22.42306379234289
 20
-23.52573055824254
 10
-21.85226602402826
 20
-24.05708904693668
 10
-21.26883233806438
 20
-24.57479060019975
 10
-20.6730179888967
 20
-25.0785799635863
 10
-20.06507823097067
 20
-25.56820188265088
 10
-19.44526831873174
 20
-26.04340110294802
 10
-18.81384350662537
 20
-26.50392237003229
 10
-18.17105904909703
 20
-26.94951042945821
 10
-17.51717020059215
 20
-27.37991002678034
 10
-16.85243221555618
 20
-27.79486590755323
 10
-16.17710034843459
 20
-28.19412281733143
 10
-15.49142985367283
 20
-28.57742550166947
 10
-14.79567598571635
 20
-28.9445187061219
 10
-14.09009399901061
 20
-29.29514717624328
 10
-13.37493914800105
 20
-29.62905565758815
 10
-12.65046668713314
 20
-29.94598889571104
 10
-11.91693187085232
 20
-30.24569163616652
 10
-11.17458995360405
 20
-30.52790862450913
 10
-10.42369618983379
 20
-30.79238460629341
 10
-9.664505833986977
 20
-31.03886432707392
 10
-8.897274140509079
 20
-31.26709253240519
 10
-8.122256363845544
 20
-31.47681396784177
 10
-7.339707758441827
 20
-31.66777337893821
 10
-6.549883578743382
 20
-31.83971551124905
 10
-5.75303907919566
 20
-31.99238511032885
 10
-4.949429514244117
 20
-32.12552692173215
 10
-4.139310138334205
 20
-32.23888569101349
 10
-3.322936205911379
 20
-32.33220616372743
 10
-2.500562971421092
 20
-32.4052330854285
 10
-1.672445689308797
 20
-32.45771120167125
 10
-0.8388396140199488
 20
-32.48938525801024
 10
0
 20
-32.5
 10
0.8388396140199462
 20
-32.48938525801024
 10
1.672445689308792
 20
-32.45771120167125
 10
2.500562971421085
 20
-32.4052330854285
 10
3.322936205911371
 20
-32.33220616372743
 10
4.139310138334195
 20
-32.23888569101349
 10
4.949429514244105
 20
-32.12552692173215
 10
5.753039079195647
 20
-31.99238511032885
 10
6.549883578743367
 20
-31.83971551124905
 10
7.339707758441811
 20
-31.66777337893821
 10
8.122256363845528
 20
-31.47681396784177
 10
8.897274140509063
 20
-31.26709253240519
 10
9.664505833986961
 20
-31.03886432707392
 10
10.42369618983377
 20
-30.79238460629341
 10
11.17458995360403
 20
-30.52790862450913
 10
11.9169318708523
 20
-30.24569163616652
 10
12.65046668713312
 20
-29.94598889571104
 10
13.37493914800103
 20
-29.62905565758815
 10
14.09009399901059
 20
-29.29514717624328
 10
14.79567598571634
 20
-28.9445187061219
 10
15.49142985367282
 20
-28.57742550166947
 10
16.17710034843458
 20
-28.19412281733143
 10
16.85243221555617
 20
-27.79486590755323
 10
17.51717020059214
 20
-27.37991002678034
 10
18.17105904909702
 20
-26.94951042945821
 10
18.81384350662537
 20
-26.50392237003229
 10
19.44526831873174
 20
-26.04340110294802
 10
20.06507823097066
 20
-25.56820188265088
 10
20.6730179888967
 20
-25.0785799635863
 10
21.26883233806438
 20
-24.57479060019975
 10
21.85226602402827
 20
-24.05708904693668
 10
22.4230637923429
 20
-23.52573055824254
 10
22.98097038856282
 20
-22.98097038856278
 10
23.52573055824258
 20
-22.42306379234286
 10
24.05708904693672
 20
-21.85226602402824
 10
24.57479060019979
 20
-21.26883233806436
 10
25.07857996358635
 20
-20.67301798889667
 10
25.56820188265092
 20
-20.06507823097065
 10
26.04340110294807
 20
-19.44526831873172
 10
26.50392237003233
 20
-18.81384350662536
 10
26.94951042945826
 20
-18.17105904909701
 10
27.3799100267804
 20
-17.51717020059213
 10
27.79486590755329
 20
-16.85243221555617
 10
28.19412281733149
 20
-16.17710034843458
 10
28.57742550166954
 20
-15.49142985367282
 10
28.94451870612198
 20
-14.79567598571634
 10
29.29514717624336
 20
-14.0900939990106
 10
29.62905565758823
 20
-13.37493914800104
 10
29.94598889571113
 20
-12.65046668713313
 10
30.24569163616661
 20
-11.91693187085231
 10
30.52790862450923
 20
-11.17458995360404
 10
30.79238460629351
 20
-10.42369618983378
 10
31.03886432707402
 20
-9.664505833986972
 10
31.26709253240529
 20
-8.897274140509076
 10
31.47681396784187
 20
-8.122256363845541
 10
31.66777337893831
 20
-7.339707758441826
 10
31.83971551124916
 20
-6.54988357874338
 10
31.99238511032897
 20
-5.753039079195658
 10
32.12552692173227
 20
-4.949429514244116
 10
32.23888569101361
 20
-4.139310138334205
 10
32.33220616372754
 20
-3.322936205911379
 10
32.40523308542861
 20
-2.500562971421092
 10
32.45771120167137
 20
-1.672445689308797
 10
32.48938525801036
 20
-0.8388396140199488
 10
32.50000000000011
 20
0
 10
32.48938525801034
 20
0.8388396140199538
 10
32.45771120167136
 20
1.672445689308807
 10
32.4052330854286
 20
2.500562971421107
 10
32.33220616372752
 20
3.322936205911397
 10
32.23888569101358
 20
4.139310138334227
 10
32.12552692173224
 20
4.949429514244142
 10
31.99238511032894
 20
5.753039079195688
 10
31.83971551124914
 20
6.549883578743412
 10
31.66777337893829
 20
7.339707758441859
 10
31.47681396784184
 20
8.12225636384558
 10
31.26709253240526
 20
8.897274140509115
 10
31.03886432707399
 20
9.664505833987015
 10
30.79238460629348
 20
10.42369618983382
 10
30.5279086245092
 20
11.17458995360409
 10
30.24569163616659
 20
11.91693187085236
 10
29.94598889571111
 20
12.65046668713318
 10
29.6290556575882
 20
13.37493914800109
 10
29.29514717624334
 20
14.09009399901065
 10
28.94451870612196
 20
14.79567598571639
 10
28.57742550166952
 20
15.49142985367287
 10
28.19412281733148
 20
16.17710034843463
 10
27.79486590755329
 20
16.85243221555622
 10
27.3799100267804
 20
17.51717020059218
 10
26.94951042945826
 20
18.17105904909706
 10
26.50392237003234
 20
18.81384350662541
 10
26.04340110294808
 20
19.44526831873177
 10
25.56820188265093
 20
20.06507823097069
 10
25.07857996358636
 20
20.67301798889672
 10
24.5747906001998
 20
21.26883233806441
 10
24.05708904693673
 20
21.85226602402828
 10
23.52573055824259
 20
22.42306379234291
 10
22.98097038856284
 20
22.98097038856282
 10
22.42306379234292
 20
23.52573055824258
 10
21.85226602402829
 20
24.05708904693672
 10
21.26883233806441
 20
24.57479060019979
 10
20.67301798889673
 20
25.07857996358634
 10
20.0650782309707
 20
25.56820188265091
 10
19.44526831873178
 20
26.04340110294805
 10
18.81384350662542
 20
26.50392237003231
 10
18.17105904909707
 20
26.94951042945824
 10
17.51717020059218
 20
27.37991002678037
 10
16.85243221555622
 20
27.79486590755326
 10
16.17710034843463
 20
28.19412281733145
 10
15.49142985367287
 20
28.57742550166949
 10
14.79567598571639
 20
28.94451870612192
 10
14.09009399901065
 20
29.2951471762433
 10
13.37493914800109
 20
29.62905565758816
 10
12.65046668713318
 20
29.94598889571106
 10
11.91693187085236
 20
30.24569163616654
 10
11.17458995360409
 20
30.52790862450915
 10
10.42369618983382
 20
30.79238460629343
 10
9.664505833987015
 20
31.03886432707393
 10
8.897274140509115
 20
31.26709253240519
 10
8.12225636384558
 20
31.47681396784177
 10
7.339707758441859
 20
31.66777337893821
 10
6.549883578743412
 20
31.83971551124906
 10
5.753039079195688
 20
31.99238511032886
 10
4.949429514244142
 20
32.12552692173216
 10
4.139310138334227
 20
32.2388856910135
 10
3.322936205911397
 20
32.33220616372743
 10
2.500562971421107
 20
32.4052330854285
 10
1.672445689308807
 20
32.45771120167125
 10
0.8388396140199538
 20
32.48938525801024
  0
LWPOLYLINE
  5
4E
100
AcDbEntity
  8
0
  6
ByLayer
 62
  256
370
   -1
100
AcDbPolyline
 90
    4
 70
    1
 43
0
 10
25.01864692839214
 20
2.968248390400259
 42
0.4142135623730952
 10
22.06864692839213
 20
0.01824839040026086
 42
0.4142135623730951
 10
25.01864692839214
 20
-2.93175160959974
 42
0.414213562373095
 10
27.96864692839213
 20
0.01824839040026001
 42
0.414213562373095
  0
LWPOLYLINE
  5
4F
100
AcDbEntity
  8
0
  6
ByLayer
 62
  256
370
   -1
100
AcDbPolyline
 90
    4
 70
    1
 43
0
 10
-12.48017830184435
 20
24.59264553736098
 42
0.414213562373095
 10
-15.43017830184435
 20
21.64264553736098
 42
0.4142135623730948
 10
-12.48017830184435
 20
18.69264553736098
 42
0.414213562373095
 10
-9.530178301844355
 20
21.64264553736098
 42
0.4142135623730949
  0
LWPOLYLINE
  5
50
100
AcDbEntity
  8
0
  6
ByLayer
 62
  256
370
   -1
100
AcDbPolyline
 90
    4
 70
    1
 43
0
 10
-12.48715980371813
 20
-18.68045649048962
 42
0.414213562373095
 10
-15.43715980371813
 20
-21.63045649048962
 42
0.4142135623730953
 10
-12.48715980371813
 20
-24.58045649048962
 42
0.414213562373095
 10
-9.537159803718129
 20
-21.63045649048962
 42
0.414213562373095
  0
ENDSEC
  0
SECTION
  2
OBJECTS
  0
DICTIONARY
  5
C
330
0
100
AcDbDictionary
281
    1
  3
ACAD_GROUP
350
D
  0
DICTIONARY
  5
D
330
C
100
AcDbDictionary
281
    1
  0
ENDSEC
  0
EOF
